Truculenta-72ptExpanded.ufo
<glyph name="exclam" format="2">
  <advance width="306"/>
  <unicode hex="0021"/>
  <outline>
    <contour>
      <point x="123" y="238" type="curve"/>
      <point x="183" y="240" type="line"/>
      <point x="183" y="240"/>
      <point x="185" y="349"/>
      <point x="186" y="425" type="curve"/>
      <point x="188" y="500"/>
      <point x="196" y="709"/>
      <point x="196" y="709" type="curve"/>
      <point x="110" y="704" type="line"/>
      <point x="110" y="704"/>
      <point x="116" y="533"/>
      <point x="119" y="423" type="curve"/>
      <point x="121" y="315"/>
      <point x="123" y="238"/>
    </contour>
    <contour>
      <point x="195" y="0" type="line"/>
      <point x="188" y="135" type="line"/>
      <point x="118" y="133" type="line"/>
      <point x="114" y="0" type="line"/>
    </contour>
  </outline>
</glyph>
<glyph name="quotedbl" format="2">
  <advance width="458"/>
  <unicode hex="0022"/>
  <outline>
    <contour>
      <point x="264" y="493" type="curve"/>
      <point x="329" y="503" type="line"/>
      <point x="329" y="503"/>
      <point x="336" y="574"/>
      <point x="345" y="615" type="curve" smooth="yes"/>
      <point x="351" y="657"/>
      <point x="364" y="701"/>
      <point x="364" y="701" type="curve"/>
      <point x="270" y="702" type="line"/>
      <point x="270" y="702"/>
      <point x="271" y="654"/>
      <point x="268" y="604" type="curve" smooth="yes"/>
      <point x="267" y="551"/>
      <point x="264" y="493"/>
    </contour>
    <contour>
      <point x="106" y="490" type="curve"/>
      <point x="170" y="505" type="line"/>
      <point x="170" y="505"/>
      <point x="171" y="577"/>
      <point x="176" y="618" type="curve" smooth="yes"/>
      <point x="179" y="661"/>
      <point x="188" y="706"/>
      <point x="188" y="706" type="curve"/>
      <point x="94" y="698" type="line"/>
      <point x="94" y="698"/>
      <point x="99" y="651"/>
      <point x="101" y="601" type="curve" smooth="yes"/>
      <point x="104" y="548"/>
      <point x="106" y="490"/>
    </contour>
  </outline>
</glyph>
<glyph name="numbersign" format="2">
  <advance width="926"/>
  <unicode hex="0023"/>
  <outline>
    <contour>
      <point x="177" y="-1" type="line"/>
      <point x="257" y="3" type="line"/>
      <point x="339" y="374" type="line"/>
      <point x="420" y="700" type="line"/>
      <point x="342" y="696" type="line"/>
      <point x="277" y="385" type="line"/>
    </contour>
    <contour>
      <point x="78" y="170" type="line"/>
      <point x="78" y="170"/>
      <point x="336" y="175"/>
      <point x="457" y="174" type="curve" smooth="yes"/>
      <point x="582" y="173"/>
      <point x="802" y="172"/>
      <point x="802" y="172" type="curve"/>
      <point x="798" y="240" type="line"/>
      <point x="798" y="240"/>
      <point x="577" y="237"/>
      <point x="460" y="237" type="curve" smooth="yes"/>
      <point x="348" y="237"/>
      <point x="80" y="240"/>
      <point x="80" y="240" type="curve"/>
    </contour>
    <contour>
      <point x="508" y="-2" type="line"/>
      <point x="588" y="1" type="line"/>
      <point x="667" y="363" type="line"/>
      <point x="748" y="686" type="line"/>
      <point x="670" y="687" type="line"/>
      <point x="608" y="385" type="line"/>
    </contour>
    <contour>
      <point x="128" y="457" type="line"/>
      <point x="128" y="457"/>
      <point x="387" y="462"/>
      <point x="508" y="461" type="curve" smooth="yes"/>
      <point x="632" y="460"/>
      <point x="848" y="458"/>
      <point x="848" y="458" type="curve"/>
      <point x="848" y="527" type="line"/>
      <point x="848" y="527"/>
      <point x="627" y="524"/>
      <point x="510" y="524" type="curve" smooth="yes"/>
      <point x="398" y="524"/>
      <point x="120" y="527"/>
      <point x="120" y="527" type="curve"/>
    </contour>
  </outline>
</glyph>
<glyph name="dollar" format="2">
  <advance width="640"/>
  <unicode hex="0024"/>
  <outline>
    <contour>
      <point x="316" y="-10" type="curve"/>
      <point x="483" y="-10"/>
      <point x="550" y="68"/>
      <point x="550" y="163" type="curve" smooth="yes"/>
      <point x="550" y="271"/>
      <point x="434" y="309"/>
      <point x="326" y="349" type="curve" smooth="yes"/>
      <point x="239" y="381"/>
      <point x="165" y="410"/>
      <point x="165" y="504" type="curve" smooth="yes"/>
      <point x="165" y="557"/>
      <point x="191" y="641"/>
      <point x="322" y="641" type="curve"/>
      <point x="443" y="641"/>
      <point x="475" y="573"/>
      <point x="475" y="487" type="curve" smooth="yes"/>
      <point x="475" y="457"/>
      <point x="471" y="426"/>
      <point x="466" y="394" type="curve"/>
      <point x="543" y="394" type="line"/>
      <point x="549" y="428"/>
      <point x="552" y="462"/>
      <point x="552" y="493" type="curve" smooth="yes"/>
      <point x="552" y="614"/>
      <point x="501" y="704"/>
      <point x="324" y="704" type="curve"/>
      <point x="157" y="704"/>
      <point x="89" y="605"/>
      <point x="89" y="500" type="curve" smooth="yes"/>
      <point x="89" y="376"/>
      <point x="174" y="325"/>
      <point x="275" y="288" type="curve" smooth="yes"/>
      <point x="376" y="251"/>
      <point x="473" y="222"/>
      <point x="473" y="151" type="curve" smooth="yes"/>
      <point x="473" y="101"/>
      <point x="445" y="54"/>
      <point x="312" y="54" type="curve"/>
      <point x="195" y="54"/>
      <point x="163" y="102"/>
      <point x="163" y="168" type="curve" smooth="yes"/>
      <point x="163" y="184"/>
      <point x="165" y="200"/>
      <point x="168" y="217" type="curve"/>
      <point x="96" y="217" type="line"/>
      <point x="92" y="198"/>
      <point x="90" y="179"/>
      <point x="90" y="161" type="curve" smooth="yes"/>
      <point x="90" y="63"/>
      <point x="152" y="-10"/>
    </contour>
    <contour>
      <point x="354" y="-113" type="line"/>
      <point x="354" y="-113"/>
      <point x="345" y="162"/>
      <point x="345" y="311" type="curve"/>
      <point x="345" y="460"/>
      <point x="358" y="799"/>
      <point x="358" y="799" type="curve"/>
      <point x="290" y="802" type="line"/>
      <point x="290" y="802"/>
      <point x="293" y="541"/>
      <point x="293" y="322" type="curve"/>
      <point x="293" y="102"/>
      <point x="286" y="-112"/>
      <point x="286" y="-112" type="curve"/>
    </contour>
  </outline>
</glyph>
<glyph name="quotesingle" format="2">
  <advance width="282"/>
  <unicode hex="0027"/>
  <outline>
    <contour>
      <point x="106" y="490" type="curve"/>
      <point x="170" y="505" type="line"/>
      <point x="170" y="505"/>
      <point x="171" y="577"/>
      <point x="176" y="618" type="curve"/>
      <point x="179" y="661"/>
      <point x="188" y="706"/>
      <point x="188" y="706" type="curve"/>
      <point x="94" y="698" type="line"/>
      <point x="94" y="698"/>
      <point x="99" y="651"/>
      <point x="101" y="601" type="curve"/>
      <point x="104" y="548"/>
      <point x="106" y="490"/>
    </contour>
  </outline>
</glyph>
<glyph name="parenleft" format="2">
  <advance width="474"/>
  <unicode hex="0028"/>
  <outline>
    <contour>
      <point x="347" y="-140" type="curve"/>
      <point x="364" y="-83" type="line"/>
      <point x="206" y="-31"/>
      <point x="180" y="136"/>
      <point x="180" y="281" type="curve" smooth="yes"/>
      <point x="180" y="427"/>
      <point x="202" y="582"/>
      <point x="364" y="646" type="curve"/>
      <point x="347" y="703" type="line"/>
      <point x="202" y="671"/>
      <point x="110" y="549"/>
      <point x="110" y="281" type="curve" smooth="yes"/>
      <point x="110" y="14"/>
      <point x="199" y="-110"/>
    </contour>
  </outline>
</glyph>
<glyph name="parenright" format="2">
  <advance width="474"/>
  <unicode hex="0029"/>
  <outline>
    <contour>
      <point x="127" y="703" type="curve"/>
      <point x="110" y="646" type="line"/>
      <point x="268" y="594"/>
      <point x="294" y="427"/>
      <point x="294" y="282" type="curve" smooth="yes"/>
      <point x="294" y="136"/>
      <point x="272" y="-19"/>
      <point x="110" y="-83" type="curve"/>
      <point x="127" y="-140" type="line"/>
      <point x="272" y="-108"/>
      <point x="364" y="14"/>
      <point x="364" y="282" type="curve" smooth="yes"/>
      <point x="364" y="549"/>
      <point x="275" y="673"/>
    </contour>
  </outline>
</glyph>
<glyph name="asterisk" format="2">
  <advance width="594"/>
  <unicode hex="002A"/>
  <outline>
    <contour>
      <point x="432" y="427" type="curve"/>
      <point x="484" y="473" type="line"/>
      <point x="484" y="473"/>
      <point x="348" y="551"/>
      <point x="301" y="578" type="curve"/>
      <point x="252" y="607"/>
      <point x="155" y="678"/>
      <point x="155" y="678" type="curve"/>
      <point x="110" y="623" type="line"/>
      <point x="110" y="623"/>
      <point x="229" y="564"/>
      <point x="282" y="533" type="curve"/>
      <point x="333" y="504"/>
      <point x="432" y="427"/>
    </contour>
    <contour>
      <point x="146" y="415" type="line"/>
      <point x="146" y="415"/>
      <point x="263" y="504"/>
      <point x="314" y="533" type="curve"/>
      <point x="367" y="564"/>
      <point x="475" y="623"/>
      <point x="475" y="623" type="curve"/>
      <point x="456" y="687" type="line"/>
      <point x="456" y="687"/>
      <point x="344" y="607"/>
      <point x="295" y="578" type="curve"/>
      <point x="248" y="551"/>
      <point x="121" y="473"/>
      <point x="121" y="473" type="curve"/>
    </contour>
    <contour>
      <point x="336" y="357" type="line"/>
      <point x="336" y="357"/>
      <point x="324" y="495"/>
      <point x="324" y="562" type="curve"/>
      <point x="324" y="631"/>
      <point x="334" y="736"/>
      <point x="334" y="736" type="curve"/>
      <point x="265" y="743" type="line"/>
      <point x="265" y="743"/>
      <point x="272" y="626"/>
      <point x="273" y="561" type="curve"/>
      <point x="275" y="499"/>
      <point x="266" y="364"/>
      <point x="266" y="364" type="curve"/>
    </contour>
  </outline>
</glyph>
<glyph name="comma" format="2">
  <advance width="301"/>
  <unicode hex="002C"/>
  <outline>
    <contour>
      <point x="154" y="-134" type="line"/>
      <point x="177" y="-96"/>
      <point x="191" y="-50"/>
      <point x="191" y="1" type="curve" smooth="yes"/>
      <point x="191" y="125" type="line"/>
      <point x="110" y="118" type="line"/>
      <point x="112" y="0" type="line"/>
      <point x="151" y="-3" type="line"/>
      <point x="151" y="-44"/>
      <point x="141" y="-79"/>
      <point x="119" y="-117" type="curve"/>
    </contour>
  </outline>
</glyph>
<glyph name="hyphen" format="2">
  <advance width="469"/>
  <unicode hex="002D"/>
  <outline>
    <contour>
      <point x="60" y="259" type="line"/>
      <point x="60" y="259"/>
      <point x="171" y="261"/>
      <point x="230" y="261" type="curve"/>
      <point x="286" y="261"/>
      <point x="409" y="259"/>
      <point x="409" y="259" type="curve"/>
      <point x="406" y="321" type="line"/>
      <point x="406" y="321"/>
      <point x="298" y="317"/>
      <point x="236" y="318" type="curve"/>
      <point x="174" y="319"/>
      <point x="66" y="321"/>
      <point x="66" y="321" type="curve"/>
    </contour>
  </outline>
</glyph>
<glyph name="slash" format="2">
  <advance width="382"/>
  <unicode hex="002F"/>
  <outline>
    <contour>
      <point x="13" y="-1" type="curve"/>
      <point x="95" y="0" type="line"/>
      <point x="95" y="0"/>
      <point x="170" y="197"/>
      <point x="226" y="340" type="curve"/>
      <point x="282" y="484"/>
      <point x="369" y="695"/>
      <point x="369" y="695" type="curve"/>
      <point x="283" y="697" type="line"/>
      <point x="283" y="697"/>
      <point x="212" y="485"/>
      <point x="154" y="339" type="curve"/>
      <point x="99" y="193"/>
      <point x="13" y="-1"/>
    </contour>
  </outline>
</glyph>
<glyph name="zero" format="2">
  <advance width="636"/>
  <unicode hex="0030"/>
  <outline>
    <contour>
      <point x="311" y="-10" type="curve" smooth="yes"/>
      <point x="519" y="-10"/>
      <point x="556" y="172"/>
      <point x="556" y="342" type="curve" smooth="yes"/>
      <point x="556" y="523"/>
      <point x="528" y="707"/>
      <point x="325" y="707" type="curve" smooth="yes"/>
      <point x="122" y="707"/>
      <point x="80" y="520"/>
      <point x="80" y="343" type="curve" smooth="yes"/>
      <point x="80" y="159"/>
      <point x="111" y="-10"/>
    </contour>
    <contour>
      <point x="315" y="51" type="curve" smooth="yes"/>
      <point x="186" y="51"/>
      <point x="156" y="134"/>
      <point x="156" y="338" type="curve" smooth="yes"/>
      <point x="156" y="512"/>
      <point x="187" y="643"/>
      <point x="322" y="643" type="curve" smooth="yes"/>
      <point x="456" y="643"/>
      <point x="482" y="524"/>
      <point x="482" y="353" type="curve" smooth="yes"/>
      <point x="482" y="171"/>
      <point x="450" y="51"/>
    </contour>
  </outline>
</glyph>
<glyph name="one" format="2">
  <advance width="374"/>
  <unicode hex="0031"/>
  <outline>
    <contour>
      <point x="198" y="0" type="curve"/>
      <point x="286" y="0" type="line"/>
      <point x="282" y="99"/>
      <point x="281" y="176"/>
      <point x="281" y="341" type="curve" smooth="yes"/>
      <point x="281" y="503"/>
      <point x="284" y="592"/>
      <point x="287" y="694" type="curve"/>
      <point x="252" y="694" type="line"/>
      <point x="201" y="619" type="line"/>
      <point x="203" y="543"/>
      <point x="203" y="419"/>
      <point x="203" y="342" type="curve" smooth="yes"/>
      <point x="203" y="226"/>
      <point x="201" y="100"/>
    </contour>
    <contour>
      <point x="21" y="580" type="line"/>
      <point x="79" y="580"/>
      <point x="183" y="586"/>
      <point x="246" y="601" type="curve"/>
      <point x="252" y="694" type="line"/>
      <point x="222" y="668"/>
      <point x="95" y="650"/>
      <point x="17" y="645" type="curve"/>
    </contour>
  </outline>
</glyph>
<glyph name="two" format="2">
  <advance width="591"/>
  <unicode hex="0032"/>
  <outline>
    <contour>
      <point x="117" y="40" type="line"/>
      <point x="310" y="162"/>
      <point x="513" y="292"/>
      <point x="513" y="498" type="curve" smooth="yes"/>
      <point x="513" y="639"/>
      <point x="421" y="700"/>
      <point x="293" y="700" type="curve" smooth="yes"/>
      <point x="166" y="700"/>
      <point x="68" y="625"/>
      <point x="68" y="473" type="curve" smooth="yes"/>
      <point x="68" y="454"/>
      <point x="70" y="434"/>
      <point x="73" y="413" type="curve"/>
      <point x="146" y="414" type="line"/>
      <point x="143" y="432"/>
      <point x="142" y="448"/>
      <point x="142" y="464" type="curve" smooth="yes"/>
      <point x="142" y="576"/>
      <point x="206" y="631"/>
      <point x="289" y="631" type="curve" smooth="yes"/>
      <point x="375" y="631"/>
      <point x="433" y="596"/>
      <point x="433" y="486" type="curve" smooth="yes"/>
      <point x="433" y="309"/>
      <point x="265" y="212"/>
      <point x="49" y="62" type="curve"/>
    </contour>
    <contour>
      <point x="47" y="-4" type="line"/>
      <point x="85" y="-2"/>
      <point x="239" y="-1"/>
      <point x="285" y="0" type="curve" smooth="yes"/>
      <point x="296" y="0"/>
      <point x="490" y="0"/>
      <point x="520" y="0" type="curve"/>
      <point x="519" y="69" type="line"/>
      <point x="486" y="65"/>
      <point x="339" y="64"/>
      <point x="296" y="63" type="curve" smooth="yes"/>
      <point x="251" y="62"/>
      <point x="101" y="62"/>
      <point x="49" y="62" type="curve"/>
    </contour>
  </outline>
</glyph>
<glyph name="three" format="2">
  <advance width="550"/>
  <unicode hex="0033"/>
  <outline>
    <contour>
      <point x="265" y="-10" type="curve" smooth="yes"/>
      <point x="430" y="-10"/>
      <point x="496" y="68"/>
      <point x="494" y="167" type="curve" smooth="yes"/>
      <point x="493" y="251"/>
      <point x="438" y="291"/>
      <point x="371" y="303" type="curve"/>
      <point x="462" y="347"/>
      <point x="488" y="436"/>
      <point x="488" y="493" type="curve" smooth="yes"/>
      <point x="488" y="597"/>
      <point x="444" y="697"/>
      <point x="267" y="697" type="curve" smooth="yes"/>
      <point x="116" y="697"/>
      <point x="46" y="617"/>
      <point x="48" y="504" type="curve"/>
      <point x="124" y="504" type="line"/>
      <point x="123" y="572"/>
      <point x="146" y="631"/>
      <point x="265" y="631" type="curve" smooth="yes"/>
      <point x="393" y="631"/>
      <point x="410" y="567"/>
      <point x="410" y="487" type="curve" smooth="yes"/>
      <point x="410" y="405"/>
      <point x="369" y="326"/>
      <point x="235" y="326" type="curve" smooth="yes"/>
      <point x="218" y="326"/>
      <point x="143" y="327"/>
      <point x="130" y="328" type="curve"/>
      <point x="132" y="258" type="line"/>
      <point x="145" y="260"/>
      <point x="227" y="260"/>
      <point x="240" y="260" type="curve" smooth="yes"/>
      <point x="368" y="260"/>
      <point x="416" y="250"/>
      <point x="418" y="159" type="curve" smooth="yes"/>
      <point x="419" y="108"/>
      <point x="391" y="56"/>
      <point x="268" y="56" type="curve" smooth="yes"/>
      <point x="152" y="56"/>
      <point x="123" y="107"/>
      <point x="122" y="145" type="curve"/>
      <point x="47" y="144" type="line"/>
      <point x="48" y="92"/>
      <point x="76" y="-10"/>
    </contour>
  </outline>
</glyph>
<glyph name="four" format="2">
  <advance width="600"/>
  <unicode hex="0034"/>
  <outline>
    <contour>
      <point x="97" y="177" type="line"/>
      <point x="137" y="238"/>
      <point x="193" y="324"/>
      <point x="248" y="405" type="curve" smooth="yes"/>
      <point x="307" y="495"/>
      <point x="364" y="580"/>
      <point x="394" y="624" type="curve"/>
      <point x="412" y="673"/>
      <point x="442" y="696"/>
      <point x="442" y="696" type="curve"/>
      <point x="342" y="700" type="line"/>
      <point x="285" y="608"/>
      <point x="228" y="518"/>
      <point x="173" y="434" type="curve" smooth="yes"/>
      <point x="122" y="354"/>
      <point x="72" y="280"/>
      <point x="27" y="214" type="curve"/>
    </contour>
    <contour>
      <point x="42" y="142" type="line"/>
      <point x="42" y="142"/>
      <point x="236" y="146"/>
      <point x="298" y="147" type="curve" smooth="yes"/>
      <point x="394" y="148"/>
      <point x="570" y="147"/>
      <point x="570" y="147" type="curve"/>
      <point x="570" y="221" type="line"/>
      <point x="570" y="221"/>
      <point x="397" y="215"/>
      <point x="297" y="212" type="curve" smooth="yes"/>
      <point x="230" y="210"/>
      <point x="27" y="214"/>
      <point x="27" y="214" type="curve"/>
    </contour>
    <contour>
      <point x="357" y="-3" type="curve"/>
      <point x="441" y="0" type="line"/>
      <point x="440" y="123"/>
      <point x="438" y="220"/>
      <point x="438" y="378" type="curve" smooth="yes"/>
      <point x="438" y="534"/>
      <point x="441" y="595"/>
      <point x="442" y="696" type="curve"/>
      <point x="358" y="687" type="line"/>
      <point x="358" y="576"/>
      <point x="361" y="495"/>
      <point x="361" y="380" type="curve" smooth="yes"/>
      <point x="361" y="264"/>
      <point x="357" y="102"/>
    </contour>
  </outline>
</glyph>
<glyph name="five" format="2">
  <advance width="580"/>
  <unicode hex="0035"/>
  <outline>
    <contour>
      <point x="282" y="-10" type="curve" smooth="yes"/>
      <point x="449" y="-10"/>
      <point x="533" y="90"/>
      <point x="533" y="233" type="curve" smooth="yes"/>
      <point x="533" y="329"/>
      <point x="488" y="449"/>
      <point x="305" y="449" type="curve" smooth="yes"/>
      <point x="229" y="449"/>
      <point x="169" y="427"/>
      <point x="128" y="367" type="curve"/>
      <point x="148" y="301" type="line"/>
      <point x="188" y="355"/>
      <point x="222" y="380"/>
      <point x="298" y="380" type="curve" smooth="yes"/>
      <point x="422" y="380"/>
      <point x="455" y="303"/>
      <point x="455" y="235" type="curve" smooth="yes"/>
      <point x="455" y="128"/>
      <point x="404" y="58"/>
      <point x="284" y="58" type="curve" smooth="yes"/>
      <point x="154" y="58"/>
      <point x="133" y="114"/>
      <point x="133" y="164" type="curve"/>
      <point x="56" y="160" type="line"/>
      <point x="56" y="70"/>
      <point x="117" y="-10"/>
    </contour>
    <contour>
      <point x="148" y="301" type="line"/>
      <point x="150" y="381"/>
      <point x="155" y="426"/>
      <point x="158" y="502" type="curve" smooth="yes"/>
      <point x="161" y="583"/>
      <point x="161" y="617"/>
      <point x="166" y="696" type="curve"/>
      <point x="82" y="702" type="line"/>
      <point x="82" y="702"/>
      <point x="84" y="590"/>
      <point x="82" y="505" type="curve" smooth="yes"/>
      <point x="80" y="427"/>
      <point x="74" y="363"/>
      <point x="72" y="297" type="curve"/>
    </contour>
    <contour>
      <point x="105" y="626" type="line"/>
      <point x="105" y="626"/>
      <point x="158" y="629"/>
      <point x="296" y="629" type="curve" smooth="yes"/>
      <point x="393" y="629"/>
      <point x="501" y="627"/>
      <point x="501" y="627" type="curve"/>
      <point x="505" y="697" type="line"/>
      <point x="505" y="697"/>
      <point x="396" y="699"/>
      <point x="294" y="698" type="curve" smooth="yes"/>
      <point x="202" y="697"/>
      <point x="82" y="701"/>
      <point x="82" y="701" type="curve"/>
    </contour>
  </outline>
</glyph>
<glyph name="six" format="2">
  <advance width="611"/>
  <unicode hex="0036"/>
  <outline>
    <contour>
      <point x="311" y="-10" type="curve" smooth="yes"/>
      <point x="455" y="-10"/>
      <point x="544" y="77"/>
      <point x="544" y="204" type="curve" smooth="yes"/>
      <point x="544" y="328"/>
      <point x="463" y="397"/>
      <point x="324" y="397" type="curve" smooth="yes"/>
      <point x="221" y="397"/>
      <point x="145" y="341"/>
      <point x="127" y="280" type="curve"/>
      <point x="151" y="203" type="line"/>
      <point x="154" y="285"/>
      <point x="222" y="328"/>
      <point x="322" y="328" type="curve" smooth="yes"/>
      <point x="422" y="328"/>
      <point x="467" y="286"/>
      <point x="467" y="202" type="curve" smooth="yes"/>
      <point x="467" y="122"/>
      <point x="412" y="58"/>
      <point x="314" y="58" type="curve" smooth="yes"/>
      <point x="155" y="58"/>
      <point x="149" y="181"/>
      <point x="149" y="279" type="curve" smooth="yes"/>
      <point x="149" y="496"/>
      <point x="177" y="647"/>
      <point x="326" y="647" type="curve" smooth="yes"/>
      <point x="429" y="647"/>
      <point x="459" y="578"/>
      <point x="459" y="500" type="curve" smooth="yes"/>
      <point x="459" y="485"/>
      <point x="458" y="469"/>
      <point x="456" y="454" type="curve"/>
      <point x="533" y="456" type="line"/>
      <point x="537" y="475"/>
      <point x="539" y="495"/>
      <point x="539" y="514" type="curve" smooth="yes"/>
      <point x="539" y="616"/>
      <point x="483" y="713"/>
      <point x="332" y="713" type="curve" smooth="yes"/>
      <point x="159" y="713"/>
      <point x="71" y="602"/>
      <point x="71" y="321" type="curve" smooth="yes"/>
      <point x="71" y="96"/>
      <point x="128" y="-10"/>
    </contour>
  </outline>
</glyph>
<glyph name="seven" format="2">
  <advance width="479"/>
  <unicode hex="0037"/>
  <outline>
    <contour>
      <point x="145" y="-1" type="curve"/>
      <point x="232" y="0" type="line"/>
      <point x="230" y="136"/>
      <point x="254" y="251"/>
      <point x="297" y="357" type="curve" smooth="yes"/>
      <point x="335" y="451"/>
      <point x="387" y="538"/>
      <point x="452" y="627" type="curve"/>
      <point x="452" y="700" type="line"/>
      <point x="362" y="629"/>
      <point x="286" y="521"/>
      <point x="231" y="397" type="curve" smooth="yes"/>
      <point x="176" y="271"/>
      <point x="143" y="130"/>
    </contour>
    <contour>
      <point x="19" y="624" type="line"/>
      <point x="55" y="625"/>
      <point x="170" y="626"/>
      <point x="217" y="626" type="curve" smooth="yes"/>
      <point x="263" y="626"/>
      <point x="408" y="629"/>
      <point x="445" y="628" type="curve"/>
      <point x="452" y="700" type="line"/>
      <point x="412" y="699"/>
      <point x="276" y="698"/>
      <point x="230" y="698" type="curve" smooth="yes"/>
      <point x="181" y="698"/>
      <point x="55" y="698"/>
      <point x="18" y="700" type="curve"/>
    </contour>
  </outline>
</glyph>
<glyph name="nine" format="2">
  <advance width="611"/>
  <unicode hex="0039"/>
  <outline>
    <contour>
      <point x="283" y="-10" type="curve" smooth="yes"/>
      <point x="456" y="-10"/>
      <point x="544" y="101"/>
      <point x="544" y="382" type="curve" smooth="yes"/>
      <point x="544" y="598"/>
      <point x="487" y="713"/>
      <point x="304" y="713" type="curve" smooth="yes"/>
      <point x="164" y="713"/>
      <point x="71" y="623"/>
      <point x="71" y="469" type="curve" smooth="yes"/>
      <point x="71" y="326"/>
      <point x="152" y="246"/>
      <point x="291" y="246" type="curve" smooth="yes"/>
      <point x="394" y="246"/>
      <point x="470" y="302"/>
      <point x="488" y="393" type="curve"/>
      <point x="466" y="470" type="line"/>
      <point x="463" y="358"/>
      <point x="393" y="315"/>
      <point x="293" y="315" type="curve" smooth="yes"/>
      <point x="193" y="315"/>
      <point x="148" y="368"/>
      <point x="148" y="471" type="curve" smooth="yes"/>
      <point x="148" y="578"/>
      <point x="203" y="645"/>
      <point x="301" y="645" type="curve" smooth="yes"/>
      <point x="460" y="645"/>
      <point x="466" y="516"/>
      <point x="466" y="424" type="curve" smooth="yes"/>
      <point x="466" y="207"/>
      <point x="438" y="56"/>
      <point x="289" y="56" type="curve" smooth="yes"/>
      <point x="194" y="56"/>
      <point x="157" y="103"/>
      <point x="157" y="165" type="curve" smooth="yes"/>
      <point x="157" y="173"/>
      <point x="158" y="181"/>
      <point x="159" y="189" type="curve"/>
      <point x="82" y="187" type="line"/>
      <point x="79" y="173"/>
      <point x="77" y="160"/>
      <point x="77" y="146" type="curve" smooth="yes"/>
      <point x="77" y="60"/>
      <point x="149" y="-10"/>
    </contour>
  </outline>
</glyph>
<glyph name="colon" format="2">
  <advance width="296"/>
  <unicode hex="003A"/>
  <outline>
    <contour>
      <point x="186" y="0" type="line"/>
      <point x="186" y="138" type="line"/>
      <point x="110" y="131" type="line"/>
      <point x="113" y="0" type="line"/>
    </contour>
    <contour>
      <point x="186" y="423" type="line"/>
      <point x="186" y="560" type="line"/>
      <point x="110" y="553" type="line"/>
      <point x="113" y="423" type="line"/>
    </contour>
  </outline>
</glyph>
<glyph name="equal" format="2">
  <advance width="580"/>
  <unicode hex="003D"/>
  <outline>
    <contour>
      <point x="79" y="189" type="line"/>
      <point x="79" y="189"/>
      <point x="239" y="192"/>
      <point x="291" y="193" type="curve"/>
      <point x="346" y="194"/>
      <point x="495" y="192"/>
      <point x="495" y="192" type="curve"/>
      <point x="502" y="254" type="line"/>
      <point x="502" y="254"/>
      <point x="344" y="251"/>
      <point x="286" y="250" type="curve"/>
      <point x="229" y="248"/>
      <point x="78" y="252"/>
      <point x="78" y="252" type="curve"/>
    </contour>
    <contour>
      <point x="79" y="325" type="line"/>
      <point x="79" y="325"/>
      <point x="239" y="328"/>
      <point x="291" y="329" type="curve"/>
      <point x="346" y="329"/>
      <point x="495" y="328"/>
      <point x="495" y="328" type="curve"/>
      <point x="497" y="390" type="line"/>
      <point x="497" y="390"/>
      <point x="350" y="387"/>
      <point x="291" y="385" type="curve"/>
      <point x="235" y="383"/>
      <point x="87" y="387"/>
      <point x="87" y="387" type="curve"/>
    </contour>
  </outline>
</glyph>
<glyph name="question" format="2">
  <advance width="666"/>
  <unicode hex="003F"/>
  <guideline x="509" y="767" angle="90"/>
  <guideline x="419" y="767" angle="90"/>
  <outline>
    <contour>
      <point x="372" y="215" type="line"/>
      <point x="368" y="235"/>
      <point x="365" y="251"/>
      <point x="365" y="276" type="curve" smooth="yes"/>
      <point x="365" y="323"/>
      <point x="404" y="347"/>
      <point x="447" y="376" type="curve" smooth="yes"/>
      <point x="499" y="411"/>
      <point x="556" y="453"/>
      <point x="556" y="549" type="curve" smooth="yes"/>
      <point x="556" y="649"/>
      <point x="475" y="716"/>
      <point x="341" y="716" type="curve" smooth="yes"/>
      <point x="186" y="716"/>
      <point x="110" y="632"/>
      <point x="110" y="528" type="curve" smooth="yes"/>
      <point x="110" y="504"/>
      <point x="115" y="478"/>
      <point x="123" y="452" type="curve"/>
      <point x="201" y="451" type="line"/>
      <point x="193" y="474"/>
      <point x="188" y="499"/>
      <point x="188" y="522" type="curve" smooth="yes"/>
      <point x="188" y="591"/>
      <point x="229" y="650"/>
      <point x="334" y="650" type="curve" smooth="yes"/>
      <point x="428" y="650"/>
      <point x="477" y="610"/>
      <point x="477" y="544" type="curve" smooth="yes"/>
      <point x="477" y="485"/>
      <point x="441" y="453"/>
      <point x="400" y="425" type="curve" smooth="yes"/>
      <point x="348" y="388"/>
      <point x="288" y="357"/>
      <point x="288" y="282" type="curve" smooth="yes"/>
      <point x="288" y="257"/>
      <point x="291" y="231"/>
      <point x="294" y="216" type="curve"/>
    </contour>
    <contour>
      <point x="377" y="-3" type="line"/>
      <point x="368" y="128" type="line"/>
      <point x="298" y="126" type="line"/>
      <point x="297" y="0" type="line"/>
    </contour>
  </outline>
</glyph>
<glyph name="A" format="2">
  <advance width="554"/>
  <unicode hex="0041"/>
  <anchor x="273" y="0" name="bottom"/>
  <anchor x="511" y="0" name="ogonek"/>
  <anchor x="278" y="693" name="top"/>
  <outline>
    <contour>
      <point x="451" y="-6" type="curve"/>
      <point x="533" y="-1" type="line"/>
      <point x="506" y="86"/>
      <point x="467" y="219"/>
      <point x="429" y="352" type="curve" smooth="yes"/>
      <point x="391" y="484"/>
      <point x="354" y="616"/>
      <point x="330" y="704" type="curve"/>
      <point x="226" y="702" type="line"/>
      <point x="269" y="642" type="line"/>
      <point x="288" y="583"/>
      <point x="322" y="464"/>
      <point x="356" y="341" type="curve" smooth="yes"/>
      <point x="394" y="205"/>
      <point x="433" y="64"/>
    </contour>
    <contour>
      <point x="105" y="160" type="line"/>
      <point x="441" y="168" type="line"/>
      <point x="441" y="226" type="line"/>
      <point x="105" y="231" type="line"/>
    </contour>
    <contour>
      <point x="99" y="5" type="line"/>
      <point x="123" y="89"/>
      <point x="160" y="222"/>
      <point x="197" y="351" type="curve" smooth="yes"/>
      <point x="229" y="460"/>
      <point x="260" y="566"/>
      <point x="283" y="636" type="curve"/>
      <point x="330" y="704" type="line"/>
      <point x="226" y="702" type="line"/>
      <point x="204" y="626"/>
      <point x="164" y="487"/>
      <point x="124" y="350" type="curve" smooth="yes"/>
      <point x="84" y="212"/>
      <point x="43" y="76"/>
      <point x="21" y="6" type="curve"/>
    </contour>
  </outline>
</glyph>
<glyph name="B" format="2">
  <advance width="562"/>
  <unicode hex="0042"/>
  <outline>
    <contour>
      <point x="139" y="211" type="line"/>
      <point x="367" y="211"/>
      <point x="501" y="288"/>
      <point x="501" y="472" type="curve" smooth="yes"/>
      <point x="501" y="662"/>
      <point x="402" y="719"/>
      <point x="216" y="719" type="curve" smooth="yes"/>
      <point x="177" y="719"/>
      <point x="133" y="717"/>
      <point x="86" y="713" type="curve"/>
      <point x="109" y="646" type="line"/>
      <point x="155" y="652"/>
      <point x="196" y="656"/>
      <point x="232" y="656" type="curve" smooth="yes"/>
      <point x="355" y="656"/>
      <point x="425" y="608"/>
      <point x="425" y="469" type="curve" smooth="yes"/>
      <point x="425" y="316"/>
      <point x="344" y="263"/>
      <point x="135" y="263" type="curve"/>
    </contour>
    <contour>
      <point x="218" y="-10" type="curve" smooth="yes"/>
      <point x="379" y="-10"/>
      <point x="508" y="15"/>
      <point x="508" y="124" type="curve" smooth="yes"/>
      <point x="508" y="217"/>
      <point x="411" y="265"/>
      <point x="135" y="262" type="curve"/>
      <point x="139" y="203" type="line"/>
      <point x="174" y="204"/>
      <point x="207" y="205"/>
      <point x="238" y="205" type="curve" smooth="yes"/>
      <point x="348" y="205"/>
      <point x="432" y="190"/>
      <point x="432" y="126" type="curve" smooth="yes"/>
      <point x="432" y="70"/>
      <point x="359" y="54"/>
      <point x="270" y="54" type="curve" smooth="yes"/>
      <point x="223" y="54"/>
      <point x="171" y="57"/>
      <point x="117" y="62" type="curve"/>
      <point x="83" y="-6" type="line"/>
      <point x="130" y="-8"/>
      <point x="175" y="-10"/>
    </contour>
    <contour>
      <point x="83" y="-6" type="curve"/>
      <point x="166" y="4" type="line"/>
      <point x="166" y="4"/>
      <point x="161" y="215"/>
      <point x="161" y="335" type="curve" smooth="yes"/>
      <point x="161" y="451"/>
      <point x="170" y="704"/>
      <point x="170" y="704" type="curve"/>
      <point x="86" y="713" type="line"/>
      <point x="86" y="713"/>
      <point x="87" y="504"/>
      <point x="87" y="333" type="curve" smooth="yes"/>
      <point x="87" y="162"/>
      <point x="83" y="-6"/>
    </contour>
  </outline>
</glyph>
<glyph name="C" format="2">
  <advance width="518"/>
  <unicode hex="0043"/>
  <anchor x="265" y="0" name="bottom"/>
  <anchor x="273" y="693" name="top"/>
  <outline>
    <contour>
      <point x="271" y="-10" type="curve"/>
      <point x="399" y="-10"/>
      <point x="472" y="49"/>
      <point x="472" y="184" type="curve" smooth="yes"/>
      <point x="472" y="191"/>
      <point x="471" y="200"/>
      <point x="471" y="208" type="curve"/>
      <point x="401" y="208" type="line"/>
      <point x="403" y="196"/>
      <point x="403" y="184"/>
      <point x="403" y="173" type="curve" smooth="yes"/>
      <point x="403" y="88"/>
      <point x="352" y="54"/>
      <point x="277" y="54" type="curve" smooth="yes"/>
      <point x="203" y="54"/>
      <point x="164" y="93"/>
      <point x="143" y="152" type="curve" smooth="yes"/>
      <point x="124" y="203"/>
      <point x="120" y="268"/>
      <point x="120" y="336" type="curve" smooth="yes"/>
      <point x="120" y="409"/>
      <point x="124" y="472"/>
      <point x="140" y="523" type="curve" smooth="yes"/>
      <point x="163" y="595"/>
      <point x="201" y="638"/>
      <point x="277" y="638" type="curve" smooth="yes"/>
      <point x="375" y="638"/>
      <point x="404" y="574"/>
      <point x="404" y="472" type="curve" smooth="yes"/>
      <point x="404" y="437"/>
      <point x="400" y="394"/>
      <point x="395" y="353" type="curve"/>
      <point x="468" y="352" type="line"/>
      <point x="475" y="393"/>
      <point x="479" y="433"/>
      <point x="479" y="471" type="curve" smooth="yes"/>
      <point x="479" y="601"/>
      <point x="431" y="701"/>
      <point x="283" y="701" type="curve" smooth="yes"/>
      <point x="172" y="701"/>
      <point x="107" y="643"/>
      <point x="73" y="553" type="curve" smooth="yes"/>
      <point x="51" y="493"/>
      <point x="42" y="420"/>
      <point x="42" y="340" type="curve" smooth="yes"/>
      <point x="42" y="260"/>
      <point x="50" y="185"/>
      <point x="74" y="125" type="curve" smooth="yes"/>
      <point x="105" y="44"/>
      <point x="165" y="-10"/>
    </contour>
  </outline>
</glyph>
<glyph name="D" format="2">
  <advance width="561"/>
  <unicode hex="0044"/>
  <anchor x="179" y="348" name="center"/>
  <anchor x="284" y="693" name="top"/>
  <outline>
    <contour>
      <point x="206" y="-10" type="curve" smooth="yes"/>
      <point x="438" y="-10"/>
      <point x="519" y="94"/>
      <point x="519" y="359" type="curve" smooth="yes"/>
      <point x="519" y="623"/>
      <point x="444" y="708"/>
      <point x="206" y="708" type="curve" smooth="yes"/>
      <point x="169" y="708"/>
      <point x="128" y="706"/>
      <point x="83" y="702" type="curve"/>
      <point x="106" y="634" type="line"/>
      <point x="155" y="642"/>
      <point x="197" y="646"/>
      <point x="233" y="646" type="curve" smooth="yes"/>
      <point x="408" y="646"/>
      <point x="441" y="549"/>
      <point x="441" y="354" type="curve" smooth="yes"/>
      <point x="441" y="157"/>
      <point x="408" y="59"/>
      <point x="229" y="59" type="curve" smooth="yes"/>
      <point x="200" y="59"/>
      <point x="168" y="61"/>
      <point x="131" y="66" type="curve"/>
      <point x="86" y="-3" type="line"/>
      <point x="130" y="-8"/>
      <point x="174" y="-10"/>
    </contour>
    <contour>
      <point x="86" y="-3" type="curve"/>
      <point x="169" y="-3" type="line"/>
      <point x="167" y="104"/>
      <point x="165" y="277"/>
      <point x="165" y="361" type="curve"/>
      <point x="166" y="459"/>
      <point x="167" y="616"/>
      <point x="168" y="692" type="curve"/>
      <point x="83" y="702" type="line"/>
      <point x="86" y="630"/>
      <point x="90" y="488"/>
      <point x="90" y="363" type="curve"/>
      <point x="90" y="238"/>
      <point x="88" y="81"/>
    </contour>
  </outline>
</glyph>
<glyph name="E" format="2">
  <advance width="510"/>
  <unicode hex="0045"/>
  <anchor x="275" y="0" name="bottom"/>
  <anchor x="370" y="-3" name="ogonek"/>
  <anchor x="269" y="693" name="top"/>
  <outline>
    <contour>
      <point x="83" y="-5" type="curve"/>
      <point x="165" y="5" type="line"/>
      <point x="165" y="5"/>
      <point x="161" y="278"/>
      <point x="161" y="393" type="curve"/>
      <point x="161" y="509"/>
      <point x="164" y="690"/>
      <point x="164" y="690" type="curve"/>
      <point x="83" y="699" type="line"/>
      <point x="83" y="699"/>
      <point x="86" y="560"/>
      <point x="86" y="391" type="curve"/>
      <point x="86" y="220"/>
      <point x="83" y="-5"/>
    </contour>
    <contour>
      <point x="83" y="-5" type="line"/>
      <point x="452" y="0" type="line"/>
      <point x="452" y="63" type="line"/>
      <point x="127" y="68" type="line"/>
    </contour>
    <contour>
      <point x="122" y="202" type="line"/>
      <point x="447" y="206" type="line"/>
      <point x="449" y="269" type="line"/>
      <point x="122" y="272" type="line"/>
    </contour>
    <contour>
      <point x="115" y="623" type="line"/>
      <point x="440" y="624" type="line"/>
      <point x="440" y="693" type="line"/>
      <point x="83" y="699" type="line"/>
    </contour>
  </outline>
</glyph>
<glyph name="F" format="2">
  <advance width="460"/>
  <unicode hex="0046"/>
  <outline>
    <contour>
      <point x="83" y="-3" type="curve"/>
      <point x="164" y="0" type="line"/>
      <point x="164" y="0"/>
      <point x="160" y="206"/>
      <point x="160" y="322" type="curve"/>
      <point x="160" y="438"/>
      <point x="164" y="699"/>
      <point x="164" y="699" type="curve"/>
      <point x="84" y="709" type="line"/>
      <point x="84" y="709"/>
      <point x="87" y="495"/>
      <point x="87" y="324" type="curve"/>
      <point x="87" y="153"/>
      <point x="83" y="-3"/>
    </contour>
    <contour>
      <point x="124" y="240" type="line"/>
      <point x="415" y="249" type="line"/>
      <point x="413" y="308" type="line"/>
      <point x="124" y="310" type="line"/>
    </contour>
    <contour>
      <point x="127" y="636" type="line"/>
      <point x="411" y="638" type="line"/>
      <point x="414" y="702" type="line"/>
      <point x="84" y="709" type="line"/>
    </contour>
  </outline>
</glyph>
<glyph name="G" format="2">
  <advance width="527"/>
  <unicode hex="0047"/>
  <anchor x="264" y="0" name="bottom"/>
  <anchor x="267" y="693" name="top"/>
  <outline>
    <contour>
      <point x="42" y="347" type="curve" smooth="yes"/>
      <point x="42" y="269"/>
      <point x="50" y="190"/>
      <point x="74" y="126" type="curve" smooth="yes"/>
      <point x="104" y="48"/>
      <point x="160" y="-7"/>
      <point x="259" y="-7" type="curve" smooth="yes"/>
      <point x="356" y="-7"/>
      <point x="397" y="23"/>
      <point x="428" y="59" type="curve"/>
      <point x="440" y="0" type="line"/>
      <point x="480" y="0" type="line"/>
      <point x="474" y="258" type="line"/>
      <point x="270" y="260" type="line"/>
      <point x="270" y="196" type="line"/>
      <point x="405" y="198" type="line"/>
      <point x="405" y="190"/>
      <point x="406" y="183"/>
      <point x="406" y="176" type="curve" smooth="yes"/>
      <point x="405" y="106"/>
      <point x="382" y="57"/>
      <point x="269" y="57" type="curve" smooth="yes"/>
      <point x="201" y="57"/>
      <point x="163" y="96"/>
      <point x="143" y="154" type="curve" smooth="yes"/>
      <point x="124" y="206"/>
      <point x="119" y="273"/>
      <point x="119" y="342" type="curve" smooth="yes"/>
      <point x="119" y="411"/>
      <point x="124" y="478"/>
      <point x="141" y="532" type="curve" smooth="yes"/>
      <point x="162" y="600"/>
      <point x="203" y="647"/>
      <point x="276" y="647" type="curve" smooth="yes"/>
      <point x="369" y="647"/>
      <point x="399" y="577"/>
      <point x="399" y="487" type="curve" smooth="yes"/>
      <point x="399" y="454"/>
      <point x="395" y="419"/>
      <point x="389" y="384" type="curve"/>
      <point x="463" y="384" type="line"/>
      <point x="469" y="421"/>
      <point x="473" y="457"/>
      <point x="473" y="490" type="curve" smooth="yes"/>
      <point x="473" y="616"/>
      <point x="422.991" y="710"/>
      <point x="278" y="710" type="curve" smooth="yes"/>
      <point x="169" y="710"/>
      <point x="107" y="649"/>
      <point x="74" y="562" type="curve" smooth="yes"/>
      <point x="50" y="499"/>
      <point x="42" y="424"/>
    </contour>
  </outline>
</glyph>
<glyph name="H" format="2">
  <advance width="613"/>
  <unicode hex="0048"/>
  <anchor x="303" y="0" name="bottom"/>
  <anchor x="302" y="459" name="center"/>
  <anchor x="302" y="693" name="top"/>
  <outline>
    <contour>
      <point x="436" y="0" type="curve"/>
      <point x="526" y="0" type="line"/>
      <point x="523" y="103"/>
      <point x="521" y="227"/>
      <point x="521" y="363" type="curve" smooth="yes"/>
      <point x="521" y="465"/>
      <point x="525" y="611"/>
      <point x="530" y="708" type="curve"/>
      <point x="442" y="706" type="line"/>
      <point x="445" y="609"/>
      <point x="448" y="439"/>
      <point x="446" y="351" type="curve" smooth="yes"/>
      <point x="444" y="271"/>
      <point x="440" y="108"/>
    </contour>
    <contour>
      <point x="147" y="257" type="line"/>
      <point x="147" y="192" type="line"/>
      <point x="479" y="188" type="line"/>
      <point x="479" y="264" type="line"/>
    </contour>
    <contour>
      <point x="86" y="2" type="curve"/>
      <point x="171" y="3" type="line"/>
      <point x="168" y="121"/>
      <point x="166" y="276"/>
      <point x="166" y="352" type="curve" smooth="yes"/>
      <point x="166" y="438"/>
      <point x="168" y="574"/>
      <point x="172" y="698" type="curve"/>
      <point x="83" y="694" type="line"/>
      <point x="87" y="623"/>
      <point x="92" y="495"/>
      <point x="91" y="353" type="curve" smooth="yes"/>
      <point x="90" y="183"/>
      <point x="86" y="2"/>
    </contour>
  </outline>
</glyph>
<glyph name="I" format="2">
  <advance width="255"/>
  <unicode hex="0049"/>
  <anchor x="125" y="0" name="bottom"/>
  <anchor x="129" y="-4" name="ogonek"/>
  <anchor x="127" y="693" name="top"/>
  <outline>
    <contour>
      <point x="87" y="699" type="line"/>
      <point x="89" y="657"/>
      <point x="88" y="487"/>
      <point x="88" y="328" type="curve"/>
      <point x="88" y="157"/>
      <point x="83" y="1"/>
      <point x="83" y="1" type="curve"/>
      <point x="167" y="-1" type="line"/>
      <point x="167" y="-1"/>
      <point x="162" y="213"/>
      <point x="162" y="330" type="curve"/>
      <point x="162" y="446"/>
      <point x="172" y="701"/>
      <point x="172" y="701" type="curve"/>
    </contour>
  </outline>
</glyph>
<glyph name="J" format="2">
  <advance width="505"/>
  <unicode hex="004A"/>
  <anchor x="388" y="693" name="top"/>
  <outline>
    <contour>
      <point x="220" y="-10" type="curve"/>
      <point x="385" y="-10"/>
      <point x="427" y="101"/>
      <point x="427" y="244" type="curve"/>
      <point x="427" y="314"/>
      <point x="427" y="370"/>
      <point x="427" y="438" type="curve"/>
      <point x="427" y="528"/>
      <point x="427" y="604"/>
      <point x="429" y="697" type="curve"/>
      <point x="347" y="695" type="line"/>
      <point x="351" y="608"/>
      <point x="352" y="500"/>
      <point x="352" y="432" type="curve"/>
      <point x="353" y="355"/>
      <point x="353" y="286"/>
      <point x="353" y="246" type="curve"/>
      <point x="353" y="155"/>
      <point x="339" y="54"/>
      <point x="227" y="54" type="curve"/>
      <point x="126" y="54"/>
      <point x="99" y="117"/>
      <point x="99" y="202" type="curve" smooth="yes"/>
      <point x="99" y="232"/>
      <point x="103" y="264"/>
      <point x="107" y="298" type="curve"/>
      <point x="36" y="299" type="line"/>
      <point x="31" y="265"/>
      <point x="28" y="232"/>
      <point x="28" y="199" type="curve" smooth="yes"/>
      <point x="28" y="85"/>
      <point x="69" y="-10"/>
    </contour>
  </outline>
</glyph>
<glyph name="K" format="2">
  <advance width="527"/>
  <unicode hex="004B"/>
  <anchor x="281" y="0" name="bottom"/>
  <outline>
    <contour>
      <point x="424" y="1" type="curve"/>
      <point x="533" y="5" type="line"/>
      <point x="417" y="104"/>
      <point x="306" y="207"/>
      <point x="207" y="301" type="curve"/>
      <point x="285" y="405"/>
      <point x="443" y="605"/>
      <point x="526" y="704" type="curve"/>
      <point x="431" y="702" type="line"/>
      <point x="364" y="609"/>
      <point x="236" y="435"/>
      <point x="117" y="281" type="curve"/>
      <point x="226" y="190"/>
      <point x="333" y="89"/>
    </contour>
    <contour>
      <point x="83" y="0" type="curve"/>
      <point x="167" y="0" type="line"/>
      <point x="167" y="0"/>
      <point x="163" y="212"/>
      <point x="163" y="357" type="curve"/>
      <point x="163" y="503"/>
      <point x="169" y="702"/>
      <point x="169" y="702" type="curve"/>
      <point x="86" y="703" type="line"/>
      <point x="86" y="703"/>
      <point x="89" y="499"/>
      <point x="89" y="356" type="curve"/>
      <point x="89" y="213"/>
      <point x="83" y="0"/>
    </contour>
  </outline>
</glyph>
<glyph name="M" format="2">
  <advance width="819"/>
  <unicode hex="004D"/>
  <outline>
    <contour>
      <point x="83" y="-1" type="curve"/>
      <point x="156" y="-1" type="line"/>
      <point x="155" y="67"/>
      <point x="154" y="218"/>
      <point x="153" y="355" type="curve" smooth="yes"/>
      <point x="153" y="456"/>
      <point x="152" y="549"/>
      <point x="152" y="598" type="curve"/>
      <point x="174" y="538"/>
      <point x="209" y="443"/>
      <point x="246" y="338" type="curve" smooth="yes"/>
      <point x="285" y="228"/>
      <point x="327" y="107"/>
      <point x="361" y="10" type="curve"/>
      <point x="452" y="7" type="line"/>
      <point x="483" y="98"/>
      <point x="531" y="236"/>
      <point x="574" y="360" type="curve" smooth="yes"/>
      <point x="609" y="460"/>
      <point x="641" y="550"/>
      <point x="660" y="601" type="curve"/>
      <point x="660" y="542"/>
      <point x="660" y="451"/>
      <point x="660" y="347" type="curve" smooth="yes"/>
      <point x="660" y="237"/>
      <point x="660" y="113"/>
      <point x="659" y="0" type="curve"/>
      <point x="736" y="-2" type="line"/>
      <point x="734" y="81"/>
      <point x="734" y="216"/>
      <point x="734" y="352" type="curve" smooth="yes"/>
      <point x="734" y="481"/>
      <point x="734" y="611"/>
      <point x="735" y="697" type="curve"/>
      <point x="622" y="697" type="line"/>
      <point x="601" y="633"/>
      <point x="553" y="492"/>
      <point x="506" y="357" type="curve" smooth="yes"/>
      <point x="466" y="243"/>
      <point x="428" y="132"/>
      <point x="407" y="75" type="curve"/>
      <point x="385" y="135"/>
      <point x="349" y="239"/>
      <point x="312" y="347" type="curve" smooth="yes"/>
      <point x="264" y="484"/>
      <point x="214" y="630"/>
      <point x="189" y="704" type="curve"/>
      <point x="84" y="702" type="line"/>
      <point x="86" y="637"/>
      <point x="86" y="489"/>
      <point x="86" y="343" type="curve" smooth="yes"/>
      <point x="85" y="203"/>
      <point x="84" y="64"/>
    </contour>
  </outline>
</glyph>
<glyph name="N" format="2">
  <advance width="615"/>
  <unicode hex="004E"/>
  <anchor x="304" y="0" name="bottom"/>
  <anchor x="309" y="693" name="top"/>
  <outline>
    <contour>
      <point x="83" y="704" type="line"/>
      <point x="86" y="612"/>
      <point x="87" y="476"/>
      <point x="88" y="338" type="curve" smooth="yes"/>
      <point x="89" y="219"/>
      <point x="87" y="98"/>
      <point x="86" y="1" type="curve"/>
      <point x="162" y="0" type="line"/>
      <point x="161" y="46"/>
      <point x="160" y="194"/>
      <point x="159" y="336" type="curve" smooth="yes"/>
      <point x="158" y="450"/>
      <point x="158" y="560"/>
      <point x="158" y="613" type="curve"/>
      <point x="185" y="556"/>
      <point x="226" y="452"/>
      <point x="275" y="339" type="curve" smooth="yes"/>
      <point x="326" y="222"/>
      <point x="375" y="95"/>
      <point x="414" y="1" type="curve"/>
      <point x="530" y="9" type="line"/>
      <point x="528" y="96"/>
      <point x="527" y="226"/>
      <point x="527" y="355" type="curve" smooth="yes"/>
      <point x="527" y="493"/>
      <point x="529" y="631"/>
      <point x="532" y="715" type="curve"/>
      <point x="453" y="715" type="line"/>
      <point x="454" y="666"/>
      <point x="455" y="504"/>
      <point x="456" y="352" type="curve" smooth="yes"/>
      <point x="457" y="246"/>
      <point x="457" y="145"/>
      <point x="457" y="90" type="curve"/>
      <point x="431" y="147"/>
      <point x="393" y="245"/>
      <point x="349" y="348" type="curve" smooth="yes"/>
      <point x="291" y="483"/>
      <point x="235" y="627"/>
      <point x="203" y="704" type="curve"/>
    </contour>
  </outline>
</glyph>
<glyph name="O" format="2">
  <advance width="555"/>
  <unicode hex="004F"/>
  <anchor x="273" y="0" name="bottom"/>
  <anchor x="276" y="332" name="center"/>
  <anchor x="302" y="-4" name="ogonek"/>
  <anchor x="278" y="693" name="top"/>
  <anchor x="355" y="683" name="topright"/>
  <outline>
    <contour>
      <point x="270" y="-5" type="curve"/>
      <point x="367" y="-5"/>
      <point x="428" y="39"/>
      <point x="464" y="107" type="curve" smooth="yes"/>
      <point x="500" y="173"/>
      <point x="513" y="262"/>
      <point x="513" y="355" type="curve" smooth="yes"/>
      <point x="513" y="421"/>
      <point x="507" y="488"/>
      <point x="489" y="545" type="curve" smooth="yes"/>
      <point x="460" y="638"/>
      <point x="401" y="705"/>
      <point x="288" y="705" type="curve" smooth="yes"/>
      <point x="170" y="705"/>
      <point x="104" y="640"/>
      <point x="71" y="549" type="curve" smooth="yes"/>
      <point x="50" y="492"/>
      <point x="42" y="425"/>
      <point x="42" y="357" type="curve" smooth="yes"/>
      <point x="42" y="271"/>
      <point x="50" y="190"/>
      <point x="75" y="126" type="curve" smooth="yes"/>
      <point x="107" y="47"/>
      <point x="165" y="-5"/>
    </contour>
    <contour>
      <point x="273" y="59" type="curve"/>
      <point x="204" y="59"/>
      <point x="165" y="96"/>
      <point x="144" y="154" type="curve" smooth="yes"/>
      <point x="125" y="205"/>
      <point x="120" y="273"/>
      <point x="120" y="345" type="curve" smooth="yes"/>
      <point x="120" y="406"/>
      <point x="125" y="467"/>
      <point x="140" y="518" type="curve" smooth="yes"/>
      <point x="162" y="591"/>
      <point x="204" y="644"/>
      <point x="282" y="644" type="curve" smooth="yes"/>
      <point x="364" y="644"/>
      <point x="404" y="590"/>
      <point x="421" y="510" type="curve" smooth="yes"/>
      <point x="431" y="466"/>
      <point x="434" y="414"/>
      <point x="434" y="360" type="curve" smooth="yes"/>
      <point x="434" y="284"/>
      <point x="427" y="209"/>
      <point x="403" y="152" type="curve" smooth="yes"/>
      <point x="380" y="96"/>
      <point x="340" y="59"/>
    </contour>
  </outline>
</glyph>
<glyph name="P" format="2">
  <advance width="519"/>
  <unicode hex="0050"/>
  <outline>
    <contour>
      <point x="137" y="211" type="line"/>
      <point x="358" y="211"/>
      <point x="505" y="264"/>
      <point x="505" y="470" type="curve"/>
      <point x="505" y="663"/>
      <point x="421" y="713"/>
      <point x="200" y="713" type="curve" smooth="yes"/>
      <point x="165" y="713"/>
      <point x="126" y="712"/>
      <point x="84" y="710" type="curve"/>
      <point x="106" y="644" type="line"/>
      <point x="152" y="648"/>
      <point x="192" y="650"/>
      <point x="226" y="650" type="curve" smooth="yes"/>
      <point x="382" y="650"/>
      <point x="427" y="604"/>
      <point x="427" y="459" type="curve"/>
      <point x="427" y="302"/>
      <point x="321" y="278"/>
      <point x="133" y="278" type="curve"/>
    </contour>
    <contour>
      <point x="83" y="-6" type="curve"/>
      <point x="166" y="-2" type="line"/>
      <point x="164" y="103"/>
      <point x="162" y="274"/>
      <point x="162" y="359" type="curve"/>
      <point x="162" y="457"/>
      <point x="166" y="608"/>
      <point x="168" y="703" type="curve"/>
      <point x="84" y="710" type="line"/>
      <point x="85" y="632"/>
      <point x="87" y="482"/>
      <point x="87" y="357" type="curve"/>
      <point x="87" y="232"/>
      <point x="85" y="77"/>
    </contour>
  </outline>
</glyph>
<glyph name="R" format="2">
  <advance width="559"/>
  <unicode hex="0052"/>
  <anchor x="300" y="0" name="bottom"/>
  <anchor x="285" y="693" name="top"/>
  <outline>
    <contour>
      <point x="137" y="221" type="line"/>
      <point x="358" y="221"/>
      <point x="505" y="274"/>
      <point x="505" y="470" type="curve"/>
      <point x="505" y="663"/>
      <point x="421" y="713"/>
      <point x="200" y="713" type="curve" smooth="yes"/>
      <point x="165" y="713"/>
      <point x="126" y="712"/>
      <point x="84" y="710" type="curve"/>
      <point x="106" y="644" type="line"/>
      <point x="152" y="648"/>
      <point x="192" y="650"/>
      <point x="226" y="650" type="curve" smooth="yes"/>
      <point x="382" y="650"/>
      <point x="427" y="604"/>
      <point x="427" y="459" type="curve"/>
      <point x="427" y="312"/>
      <point x="321" y="288"/>
      <point x="133" y="288" type="curve"/>
    </contour>
    <contour>
      <point x="83" y="-6" type="curve"/>
      <point x="166" y="-2" type="line"/>
      <point x="164" y="108"/>
      <point x="162" y="282"/>
      <point x="162" y="359" type="curve"/>
      <point x="162" y="457"/>
      <point x="166" y="608"/>
      <point x="168" y="703" type="curve"/>
      <point x="84" y="710" type="line"/>
      <point x="85" y="632"/>
      <point x="87" y="482"/>
      <point x="87" y="357" type="curve"/>
      <point x="87" y="232"/>
      <point x="85" y="77"/>
    </contour>
    <contour>
      <point x="445" y="-6" type="curve"/>
      <point x="552" y="-3" type="line"/>
      <point x="474" y="103"/>
      <point x="407" y="203"/>
      <point x="353" y="301" type="curve"/>
      <point x="275" y="271" type="line"/>
      <point x="343" y="173"/>
      <point x="396" y="85"/>
    </contour>
  </outline>
</glyph>
<glyph name="S" format="2">
  <advance width="548"/>
  <unicode hex="0053"/>
  <anchor x="280" y="0" name="bottom"/>
  <anchor x="286" y="693" name="top"/>
  <outline>
    <contour>
      <point x="274" y="-10" type="curve"/>
      <point x="436" y="-10"/>
      <point x="503" y="68"/>
      <point x="503" y="163" type="curve" smooth="yes"/>
      <point x="503" y="271"/>
      <point x="387" y="306"/>
      <point x="284" y="349" type="curve" smooth="yes"/>
      <point x="202" y="383"/>
      <point x="128" y="410"/>
      <point x="128" y="504" type="curve" smooth="yes"/>
      <point x="128" y="557"/>
      <point x="154" y="641"/>
      <point x="280" y="641" type="curve"/>
      <point x="396" y="641"/>
      <point x="428" y="573"/>
      <point x="428" y="487" type="curve" smooth="yes"/>
      <point x="428" y="457"/>
      <point x="424" y="426"/>
      <point x="419" y="394" type="curve"/>
      <point x="496" y="394" type="line"/>
      <point x="502" y="428"/>
      <point x="505" y="462"/>
      <point x="505" y="493" type="curve" smooth="yes"/>
      <point x="505" y="614"/>
      <point x="454" y="704"/>
      <point x="282" y="704" type="curve"/>
      <point x="120" y="704"/>
      <point x="52" y="605"/>
      <point x="52" y="500" type="curve" smooth="yes"/>
      <point x="52" y="376"/>
      <point x="137" y="327"/>
      <point x="233" y="288" type="curve" smooth="yes"/>
      <point x="329" y="249"/>
      <point x="426" y="222"/>
      <point x="426" y="151" type="curve" smooth="yes"/>
      <point x="426" y="101"/>
      <point x="398" y="54"/>
      <point x="270" y="54" type="curve"/>
      <point x="158" y="54"/>
      <point x="126" y="102"/>
      <point x="126" y="168" type="curve" smooth="yes"/>
      <point x="126" y="184"/>
      <point x="128" y="200"/>
      <point x="131" y="217" type="curve"/>
      <point x="59" y="217" type="line"/>
      <point x="55" y="198"/>
      <point x="53" y="179"/>
      <point x="53" y="161" type="curve" smooth="yes"/>
      <point x="53" y="63"/>
      <point x="115" y="-10"/>
    </contour>
  </outline>
</glyph>
<glyph name="W" format="2">
  <advance width="948"/>
  <unicode hex="0057"/>
  <anchor x="469" y="693" name="top"/>
  <outline>
    <contour>
      <point x="320" y="0" type="line"/>
      <point x="342" y="84"/>
      <point x="377" y="216"/>
      <point x="411" y="345" type="curve" smooth="yes"/>
      <point x="430" y="416"/>
      <point x="451" y="487"/>
      <point x="468" y="549" type="curve"/>
      <point x="487" y="484"/>
      <point x="509" y="408"/>
      <point x="531" y="332" type="curve" smooth="yes"/>
      <point x="567" y="207"/>
      <point x="603" y="81"/>
      <point x="624" y="0" type="curve"/>
      <point x="732" y="3" type="line"/>
      <point x="758" y="96"/>
      <point x="791" y="217"/>
      <point x="826" y="341" type="curve" smooth="yes"/>
      <point x="862" y="472"/>
      <point x="901" y="607"/>
      <point x="932" y="713" type="curve"/>
      <point x="846" y="714" type="line"/>
      <point x="828" y="640"/>
      <point x="788" y="488"/>
      <point x="751" y="351" type="curve" smooth="yes"/>
      <point x="716" y="222"/>
      <point x="684" y="106"/>
      <point x="677" y="84" type="curve"/>
      <point x="664" y="127"/>
      <point x="633" y="226"/>
      <point x="602" y="337" type="curve" smooth="yes"/>
      <point x="571" y="445"/>
      <point x="537" y="564"/>
      <point x="515" y="650" type="curve"/>
      <point x="418" y="650" type="line"/>
      <point x="398" y="567"/>
      <point x="368" y="454"/>
      <point x="341" y="350" type="curve" smooth="yes"/>
      <point x="312" y="234"/>
      <point x="282" y="128"/>
      <point x="269" y="84" type="curve"/>
      <point x="262" y="107"/>
      <point x="230" y="222"/>
      <point x="195" y="351" type="curve" smooth="yes"/>
      <point x="159" y="483"/>
      <point x="120" y="628"/>
      <point x="102" y="701" type="curve"/>
      <point x="16" y="700" type="line"/>
      <point x="47" y="596"/>
      <point x="84" y="468"/>
      <point x="119" y="342" type="curve" smooth="yes"/>
      <point x="154" y="219"/>
      <point x="188" y="98"/>
      <point x="214" y="3" type="curve"/>
    </contour>
  </outline>
</glyph>
<glyph name="X" format="2">
  <advance width="537"/>
  <unicode hex="0058"/>
  <outline>
    <contour>
      <point x="-4" y="-2" type="curve"/>
      <point x="89" y="-1" type="line"/>
      <point x="89" y="-1"/>
      <point x="191" y="175"/>
      <point x="301" y="350" type="curve"/>
      <point x="408" y="521"/>
      <point x="524" y="691"/>
      <point x="524" y="691" type="curve"/>
      <point x="434" y="692" type="line"/>
      <point x="434" y="692"/>
      <point x="333" y="527"/>
      <point x="228" y="359" type="curve"/>
      <point x="118" y="184"/>
      <point x="-4" y="-2"/>
    </contour>
    <contour>
      <point x="443" y="-11" type="curve"/>
      <point x="541" y="-7" type="line"/>
      <point x="541" y="-7"/>
      <point x="411" y="196"/>
      <point x="308" y="369" type="curve"/>
      <point x="206" y="536"/>
      <point x="118" y="688"/>
      <point x="118" y="688" type="curve"/>
      <point x="21" y="690" type="line"/>
      <point x="21" y="690"/>
      <point x="134" y="516"/>
      <point x="238" y="346" type="curve"/>
      <point x="342" y="173"/>
      <point x="443" y="-11"/>
    </contour>
  </outline>
</glyph>
<glyph name="Y" format="2">
  <advance width="505"/>
  <unicode hex="0059"/>
  <anchor x="245" y="0" name="bottom"/>
  <anchor x="252" y="693" name="top"/>
  <outline>
    <contour>
      <point x="209" y="0" type="curve"/>
      <point x="289" y="1" type="line"/>
      <point x="289" y="1"/>
      <point x="286" y="121"/>
      <point x="283" y="231" type="curve"/>
      <point x="210" y="233" type="line"/>
      <point x="213" y="71"/>
      <point x="209" y="0"/>
    </contour>
    <contour>
      <point x="3" y="704" type="line"/>
      <point x="28" y="643"/>
      <point x="68" y="541"/>
      <point x="107" y="438" type="curve" smooth="yes"/>
      <point x="155" y="313"/>
      <point x="202" y="189"/>
      <point x="218" y="141" type="curve"/>
      <point x="278" y="141" type="line"/>
      <point x="293" y="184"/>
      <point x="343" y="311"/>
      <point x="393" y="435" type="curve" smooth="yes"/>
      <point x="438" y="547"/>
      <point x="483" y="657"/>
      <point x="502" y="698" type="curve"/>
      <point x="415" y="696" type="line"/>
      <point x="396" y="644"/>
      <point x="360" y="545"/>
      <point x="325" y="452" type="curve" smooth="yes"/>
      <point x="295" y="374"/>
      <point x="267" y="301"/>
      <point x="249" y="262" type="curve"/>
      <point x="238" y="290"/>
      <point x="210" y="365"/>
      <point x="181" y="446" type="curve" smooth="yes"/>
      <point x="143" y="551"/>
      <point x="102" y="667"/>
      <point x="90" y="704" type="curve"/>
    </contour>
  </outline>
</glyph>
<glyph name="Z" format="2">
  <advance width="449"/>
  <unicode hex="005A"/>
  <anchor x="215" y="693" name="top"/>
  <outline>
    <contour>
      <point x="28" y="693" type="curve"/>
      <point x="27" y="623" type="line"/>
      <point x="27" y="623"/>
      <point x="139" y="626"/>
      <point x="211" y="626" type="curve" smooth="yes"/>
      <point x="241" y="626"/>
      <point x="310" y="625"/>
      <point x="340" y="625" type="curve"/>
      <point x="300" y="555"/>
      <point x="241" y="453"/>
      <point x="177" y="345" type="curve" smooth="yes"/>
      <point x="121" y="251"/>
      <point x="62" y="153"/>
      <point x="11" y="69" type="curve"/>
      <point x="15" y="1" type="line"/>
      <point x="15" y="1"/>
      <point x="112" y="3"/>
      <point x="225" y="3" type="curve" smooth="yes"/>
      <point x="288" y="3"/>
      <point x="376" y="1"/>
      <point x="438" y="0" type="curve"/>
      <point x="438" y="72" type="line"/>
      <point x="380" y="71"/>
      <point x="303" y="71"/>
      <point x="246" y="69" type="curve" smooth="yes"/>
      <point x="216" y="68"/>
      <point x="136" y="69"/>
      <point x="99" y="69" type="curve"/>
      <point x="132" y="125"/>
      <point x="190" y="224"/>
      <point x="252" y="327" type="curve" smooth="yes"/>
      <point x="316" y="436"/>
      <point x="384" y="549"/>
      <point x="430" y="623" type="curve"/>
      <point x="427" y="695" type="line"/>
      <point x="370" y="694"/>
      <point x="291" y="693"/>
      <point x="234" y="692" type="curve" smooth="yes"/>
      <point x="174" y="691"/>
      <point x="62" y="691"/>
    </contour>
  </outline>
</glyph>
<glyph name="bracketleft" format="2">
  <advance width="527"/>
  <unicode hex="005B"/>
  <outline>
    <contour>
      <point x="110" y="-137" type="curve"/>
      <point x="186" y="-130" type="line"/>
      <point x="186" y="-130"/>
      <point x="186" y="179"/>
      <point x="186" y="315" type="curve"/>
      <point x="186" y="452"/>
      <point x="186" y="671"/>
      <point x="186" y="671" type="curve"/>
      <point x="117" y="691" type="line"/>
      <point x="117" y="691"/>
      <point x="121" y="505"/>
      <point x="121" y="304" type="curve"/>
      <point x="121" y="104"/>
      <point x="110" y="-137"/>
    </contour>
    <contour>
      <point x="110" y="-137" type="line"/>
      <point x="160" y="-135"/>
      <point x="413" y="-130"/>
      <point x="413" y="-130" type="curve"/>
      <point x="416" y="-71" type="line"/>
      <point x="416" y="-71"/>
      <point x="185" y="-70"/>
      <point x="135" y="-67" type="curve"/>
    </contour>
    <contour>
      <point x="144" y="627" type="line"/>
      <point x="194" y="628"/>
      <point x="417" y="629"/>
      <point x="417" y="629" type="curve"/>
      <point x="410" y="693" type="line"/>
      <point x="410" y="693"/>
      <point x="172" y="691"/>
      <point x="117" y="691" type="curve"/>
    </contour>
  </outline>
</glyph>
<glyph name="backslash" format="2">
  <advance width="382"/>
  <unicode hex="005C"/>
  <outline>
    <contour>
      <point x="369" y="-1" type="line"/>
      <point x="369" y="-1"/>
      <point x="283" y="193"/>
      <point x="228" y="339" type="curve"/>
      <point x="170" y="485"/>
      <point x="99" y="697"/>
      <point x="99" y="697" type="curve"/>
      <point x="13" y="695" type="line"/>
      <point x="13" y="695"/>
      <point x="100" y="484"/>
      <point x="156" y="340" type="curve"/>
      <point x="212" y="197"/>
      <point x="287" y="0"/>
      <point x="287" y="0" type="curve"/>
    </contour>
  </outline>
</glyph>
<glyph name="bracketright" format="2">
  <advance width="527"/>
  <unicode hex="005D"/>
  <outline>
    <contour>
      <point x="410" y="-135" type="line"/>
      <point x="408" y="-55"/>
      <point x="406" y="105"/>
      <point x="406" y="252" type="curve"/>
      <point x="406" y="398"/>
      <point x="412" y="589"/>
      <point x="417" y="693" type="curve"/>
      <point x="341" y="686" type="line"/>
      <point x="341" y="553"/>
      <point x="341" y="340"/>
      <point x="341" y="241" type="curve"/>
      <point x="341" y="141"/>
      <point x="341" y="-21"/>
      <point x="341" y="-115" type="curve"/>
    </contour>
    <contour>
      <point x="117" y="-137" type="line"/>
      <point x="219" y="-136"/>
      <point x="370" y="-135"/>
      <point x="410" y="-135" type="curve"/>
      <point x="383" y="-71" type="line"/>
      <point x="347" y="-72"/>
      <point x="206" y="-73"/>
      <point x="110" y="-73" type="curve"/>
    </contour>
    <contour>
      <point x="111" y="627" type="line"/>
      <point x="210" y="627"/>
      <point x="356" y="625"/>
      <point x="392" y="623" type="curve"/>
      <point x="417" y="693" type="line"/>
      <point x="381" y="692"/>
      <point x="223" y="688"/>
      <point x="114" y="686" type="curve"/>
    </contour>
  </outline>
</glyph>
<glyph name="underscore" format="2">
  <advance width="504"/>
  <unicode hex="005F"/>
  <outline>
    <contour>
      <point x="32" y="-115" type="line"/>
      <point x="32" y="-115"/>
      <point x="186" y="-112"/>
      <point x="253" y="-111" type="curve" smooth="yes"/>
      <point x="325" y="-110"/>
      <point x="472" y="-112"/>
      <point x="472" y="-112" type="curve"/>
      <point x="474" y="-46" type="line"/>
      <point x="474" y="-46"/>
      <point x="322" y="-49"/>
      <point x="247" y="-50" type="curve" smooth="yes"/>
      <point x="173" y="-52"/>
      <point x="30" y="-48"/>
      <point x="30" y="-48" type="curve"/>
    </contour>
  </outline>
</glyph>
<glyph name="a" format="2">
  <advance width="466"/>
  <unicode hex="0061"/>
  <anchor x="227" y="0" name="bottom"/>
  <anchor x="390" y="-3" name="ogonek"/>
  <anchor x="227" y="555" name="top"/>
  <outline>
    <contour>
      <point x="340" y="0" type="line"/>
      <point x="411" y="0" type="line"/>
      <point x="405" y="207" type="line"/>
      <point x="404" y="385" type="line" smooth="yes"/>
      <point x="403" y="476"/>
      <point x="371" y="564"/>
      <point x="237" y="564" type="curve" smooth="yes"/>
      <point x="130" y="564"/>
      <point x="59" y="499"/>
      <point x="59" y="405" type="curve" smooth="yes"/>
      <point x="59" y="388"/>
      <point x="61" y="370"/>
      <point x="66" y="351" type="curve"/>
      <point x="129" y="354" type="line"/>
      <point x="123" y="373"/>
      <point x="120" y="392"/>
      <point x="120" y="409" type="curve" smooth="yes"/>
      <point x="121" y="469"/>
      <point x="158" y="512"/>
      <point x="234" y="512" type="curve" smooth="yes"/>
      <point x="311" y="512"/>
      <point x="342" y="466"/>
      <point x="341" y="399" type="curve" smooth="yes"/>
      <point x="338" y="113" type="line"/>
    </contour>
    <contour>
      <point x="174" y="-10" type="curve" smooth="yes"/>
      <point x="315" y="-10"/>
      <point x="368" y="72"/>
      <point x="368" y="303" type="curve"/>
      <point x="339" y="239" type="line"/>
      <point x="340" y="118"/>
      <point x="276" y="45"/>
      <point x="192" y="45" type="curve" smooth="yes"/>
      <point x="140" y="45"/>
      <point x="104" y="73"/>
      <point x="104" y="125" type="curve" smooth="yes"/>
      <point x="104" y="191"/>
      <point x="149" y="219"/>
      <point x="218" y="251" type="curve" smooth="yes"/>
      <point x="335" y="305"/>
      <point x="370" y="338"/>
      <point x="370" y="370" type="curve"/>
      <point x="341" y="399" type="line"/>
      <point x="340" y="356"/>
      <point x="237" y="322"/>
      <point x="165" y="287" type="curve" smooth="yes"/>
      <point x="95" y="253"/>
      <point x="40" y="216"/>
      <point x="40" y="123" type="curve" smooth="yes"/>
      <point x="40" y="33"/>
      <point x="107" y="-10"/>
    </contour>
  </outline>
</glyph>
<glyph name="b" format="2">
  <advance width="527"/>
  <unicode hex="0062"/>
  <outline>
    <contour>
      <point x="270" y="-7" type="curve" smooth="yes"/>
      <point x="368" y="-7"/>
      <point x="421" y="49"/>
      <point x="445" y="139" type="curve" smooth="yes"/>
      <point x="464" y="208"/>
      <point x="472" y="329"/>
      <point x="459" y="406" type="curve" smooth="yes"/>
      <point x="442" y="505"/>
      <point x="393" y="565"/>
      <point x="296" y="565" type="curve" smooth="yes"/>
      <point x="169" y="565"/>
      <point x="106" y="440"/>
      <point x="92" y="277" type="curve"/>
      <point x="147" y="313" type="line"/>
      <point x="147" y="434"/>
      <point x="218" y="502"/>
      <point x="287" y="502" type="curve" smooth="yes"/>
      <point x="351" y="502"/>
      <point x="383" y="461"/>
      <point x="394" y="387" type="curve" smooth="yes"/>
      <point x="402" y="333"/>
      <point x="396" y="225"/>
      <point x="385" y="169" type="curve" smooth="yes"/>
      <point x="372" y="99"/>
      <point x="341" y="54"/>
      <point x="268" y="54" type="curve" smooth="yes"/>
      <point x="207" y="54"/>
      <point x="145" y="126"/>
      <point x="145" y="223" type="curve"/>
      <point x="92" y="277" type="line"/>
      <point x="96" y="194"/>
      <point x="114" y="-7"/>
    </contour>
    <contour>
      <point x="141" y="-1" type="line"/>
      <point x="144" y="96" type="line"/>
      <point x="144" y="176"/>
      <point x="147" y="276"/>
      <point x="147" y="344" type="curve"/>
      <point x="147" y="463"/>
      <point x="149" y="605"/>
      <point x="150" y="696" type="curve"/>
      <point x="70" y="691" type="line"/>
      <point x="74" y="619"/>
      <point x="82" y="467"/>
      <point x="80" y="345" type="curve" smooth="yes"/>
      <point x="78" y="202"/>
      <point x="74" y="1"/>
      <point x="74" y="1" type="curve"/>
    </contour>
  </outline>
</glyph>
<glyph name="c" format="2">
  <advance width="494"/>
  <unicode hex="0063"/>
  <anchor x="263" y="0" name="bottom"/>
  <anchor x="256" y="555" name="top"/>
  <outline>
    <contour>
      <point x="251" y="-13" type="curve" smooth="yes"/>
      <point x="384" y="-13"/>
      <point x="437" y="61"/>
      <point x="437" y="158" type="curve" smooth="yes"/>
      <point x="437" y="168"/>
      <point x="437" y="177"/>
      <point x="436" y="187" type="curve"/>
      <point x="370" y="185" type="line"/>
      <point x="372" y="175"/>
      <point x="372" y="165"/>
      <point x="372" y="155" type="curve" smooth="yes"/>
      <point x="372" y="95"/>
      <point x="341" y="44"/>
      <point x="258" y="44" type="curve" smooth="yes"/>
      <point x="198" y="44"/>
      <point x="166" y="79"/>
      <point x="149" y="129" type="curve" smooth="yes"/>
      <point x="136" y="169"/>
      <point x="132" y="220"/>
      <point x="132" y="270" type="curve" smooth="yes"/>
      <point x="132" y="326"/>
      <point x="136" y="385"/>
      <point x="154" y="430" type="curve" smooth="yes"/>
      <point x="172" y="476"/>
      <point x="204" y="507"/>
      <point x="262" y="507" type="curve" smooth="yes"/>
      <point x="346" y="507"/>
      <point x="372" y="453"/>
      <point x="372" y="378" type="curve" smooth="yes"/>
      <point x="372" y="356"/>
      <point x="370" y="331"/>
      <point x="366" y="306" type="curve"/>
      <point x="431" y="305" type="line"/>
      <point x="435" y="329"/>
      <point x="438" y="353"/>
      <point x="438" y="376" type="curve" smooth="yes"/>
      <point x="438" y="481"/>
      <point x="390" y="564"/>
      <point x="271" y="564" type="curve" smooth="yes"/>
      <point x="179" y="564"/>
      <point x="125" y="524"/>
      <point x="95" y="461" type="curve" smooth="yes"/>
      <point x="71" y="410"/>
      <point x="62" y="344"/>
      <point x="62" y="272" type="curve" smooth="yes"/>
      <point x="62" y="205"/>
      <point x="71" y="137"/>
      <point x="96" y="84" type="curve" smooth="yes"/>
      <point x="124" y="27"/>
      <point x="172" y="-13"/>
    </contour>
  </outline>
</glyph>
<glyph name="d" format="2">
  <advance width="525"/>
  <unicode hex="0064"/>
  <anchor x="384" y="625" name="center"/>
  <anchor x="477" y="461" name="topright"/>
  <outline>
    <contour>
      <point x="62" y="276" type="curve" smooth="yes"/>
      <point x="62" y="204"/>
      <point x="68" y="131"/>
      <point x="93" y="77" type="curve" smooth="yes"/>
      <point x="118" y="25"/>
      <point x="161" y="-10"/>
      <point x="235" y="-10" type="curve" smooth="yes"/>
      <point x="326" y="-10"/>
      <point x="369" y="49"/>
      <point x="389" y="87" type="curve"/>
      <point x="389" y="0" type="line"/>
      <point x="458" y="0" type="line"/>
      <point x="455" y="132"/>
      <point x="454" y="222"/>
      <point x="454" y="353" type="curve" smooth="yes"/>
      <point x="454" y="448"/>
      <point x="456" y="551"/>
      <point x="460" y="693" type="curve"/>
      <point x="389" y="694" type="line"/>
      <point x="386" y="637"/>
      <point x="387" y="548"/>
      <point x="388" y="492" type="curve"/>
      <point x="371" y="520"/>
      <point x="336" y="566"/>
      <point x="254" y="566" type="curve" smooth="yes"/>
      <point x="162" y="566"/>
      <point x="110" y="510"/>
      <point x="84" y="433" type="curve" smooth="yes"/>
      <point x="68" y="386"/>
      <point x="62" y="331"/>
    </contour>
    <contour>
      <point x="131" y="272" type="curve" smooth="yes"/>
      <point x="131" y="316"/>
      <point x="134" y="359"/>
      <point x="143" y="396" type="curve" smooth="yes"/>
      <point x="159" y="462"/>
      <point x="193" y="510"/>
      <point x="261" y="510" type="curve" smooth="yes"/>
      <point x="317" y="510"/>
      <point x="352" y="472"/>
      <point x="371" y="416" type="curve" smooth="yes"/>
      <point x="383" y="381"/>
      <point x="388" y="338"/>
      <point x="388" y="293" type="curve" smooth="yes"/>
      <point x="388" y="239"/>
      <point x="381" y="186"/>
      <point x="364" y="142" type="curve" smooth="yes"/>
      <point x="343" y="87"/>
      <point x="306" y="48"/>
      <point x="248" y="48" type="curve" smooth="yes"/>
      <point x="197" y="48"/>
      <point x="166" y="72"/>
      <point x="149" y="119" type="curve" smooth="yes"/>
      <point x="136" y="156"/>
      <point x="131" y="207"/>
    </contour>
  </outline>
</glyph>
<glyph name="e" format="2">
  <advance width="494"/>
  <unicode hex="0065"/>
  <anchor x="258" y="0" name="bottom"/>
  <anchor x="296" y="-5" name="ogonek"/>
  <anchor x="263" y="555" name="top"/>
  <outline>
    <contour>
      <point x="256" y="-12" type="curve" smooth="yes"/>
      <point x="373" y="-12"/>
      <point x="438" y="56"/>
      <point x="438" y="153" type="curve" smooth="yes"/>
      <point x="438" y="163"/>
      <point x="437" y="174"/>
      <point x="436" y="185" type="curve"/>
      <point x="370" y="185" type="line"/>
      <point x="372" y="174"/>
      <point x="372" y="164"/>
      <point x="372" y="154" type="curve" smooth="yes"/>
      <point x="372" y="84"/>
      <point x="332" y="44"/>
      <point x="258" y="44" type="curve" smooth="yes"/>
      <point x="202" y="44"/>
      <point x="170" y="73"/>
      <point x="153" y="117" type="curve" smooth="yes"/>
      <point x="137" y="157"/>
      <point x="132" y="214"/>
      <point x="132" y="288" type="curve" smooth="yes"/>
      <point x="132" y="339"/>
      <point x="137" y="392"/>
      <point x="154" y="433" type="curve" smooth="yes"/>
      <point x="172" y="477"/>
      <point x="209" y="507"/>
      <point x="260" y="507" type="curve" smooth="yes"/>
      <point x="337" y="507"/>
      <point x="372" y="461"/>
      <point x="372" y="384" type="curve" smooth="yes"/>
      <point x="372" y="363"/>
      <point x="370" y="340"/>
      <point x="367" y="314" type="curve"/>
      <point x="429" y="263" type="line"/>
      <point x="435" y="304"/>
      <point x="438" y="341"/>
      <point x="438" y="375" type="curve" smooth="yes"/>
      <point x="438" y="492"/>
      <point x="380" y="564"/>
      <point x="274" y="564" type="curve" smooth="yes"/>
      <point x="182" y="564"/>
      <point x="125" y="524"/>
      <point x="94" y="459" type="curve" smooth="yes"/>
      <point x="71" y="413"/>
      <point x="62" y="355"/>
      <point x="62" y="289" type="curve" smooth="yes"/>
      <point x="62" y="203"/>
      <point x="70" y="138"/>
      <point x="95" y="86" type="curve" smooth="yes"/>
      <point x="123" y="27"/>
      <point x="176" y="-12"/>
    </contour>
    <contour>
      <point x="97" y="256" type="line"/>
      <point x="236" y="261"/>
      <point x="429" y="263"/>
      <point x="429" y="263" type="curve"/>
      <point x="429" y="320" type="line"/>
      <point x="96" y="318" type="line"/>
    </contour>
  </outline>
</glyph>
<glyph name="g" format="2">
  <advance width="522"/>
  <unicode hex="0067"/>
  <anchor x="253" y="555" name="top"/>
  <outline>
    <contour>
      <point x="239" y="-166" type="curve" smooth="yes"/>
      <point x="373" y="-166"/>
      <point x="451" y="-97"/>
      <point x="451" y="41" type="curve" smooth="yes"/>
      <point x="451" y="78"/>
      <point x="447" y="125"/>
      <point x="447" y="278" type="curve"/>
      <point x="447" y="423"/>
      <point x="469" y="555"/>
      <point x="469" y="555" type="curve"/>
      <point x="395" y="555" type="line"/>
      <point x="388" y="508"/>
      <point x="376" y="407"/>
      <point x="379" y="276" type="curve"/>
      <point x="379" y="144"/>
      <point x="381" y="76"/>
      <point x="381" y="28" type="curve" smooth="yes"/>
      <point x="381" y="-78"/>
      <point x="304" y="-105"/>
      <point x="246" y="-105" type="curve" smooth="yes"/>
      <point x="189" y="-105"/>
      <point x="155" y="-97"/>
      <point x="138" y="-63" type="curve" smooth="yes"/>
      <point x="135" y="-57"/>
      <point x="132" y="-49"/>
      <point x="130" y="-40" type="curve"/>
      <point x="62" y="-50" type="line"/>
      <point x="62" y="-61"/>
      <point x="64" y="-71"/>
      <point x="66" y="-80" type="curve" smooth="yes"/>
      <point x="80" y="-144"/>
      <point x="155" y="-166"/>
    </contour>
    <contour>
      <point x="235" y="-9" type="curve" smooth="yes"/>
      <point x="401" y="-9"/>
      <point x="414" y="158"/>
      <point x="417" y="275" type="curve"/>
      <point x="379" y="233" type="line"/>
      <point x="379" y="103"/>
      <point x="319" y="50"/>
      <point x="249" y="50" type="curve" smooth="yes"/>
      <point x="193" y="50"/>
      <point x="165" y="82"/>
      <point x="150" y="131" type="curve" smooth="yes"/>
      <point x="138" y="171"/>
      <point x="133" y="224"/>
      <point x="133" y="282" type="curve" smooth="yes"/>
      <point x="133" y="340"/>
      <point x="137" y="396"/>
      <point x="156" y="437" type="curve" smooth="yes"/>
      <point x="176" y="480"/>
      <point x="204" y="508"/>
      <point x="256" y="508" type="curve" smooth="yes"/>
      <point x="325" y="508"/>
      <point x="379" y="432"/>
      <point x="379" y="311" type="curve"/>
      <point x="419" y="269" type="line"/>
      <point x="419" y="492"/>
      <point x="358" y="563"/>
      <point x="252" y="563" type="curve" smooth="yes"/>
      <point x="177" y="563"/>
      <point x="124" y="526"/>
      <point x="96" y="468" type="curve" smooth="yes"/>
      <point x="72" y="419"/>
      <point x="63" y="352"/>
      <point x="63" y="281" type="curve" smooth="yes"/>
      <point x="63" y="213"/>
      <point x="68" y="151"/>
      <point x="86" y="103" type="curve" smooth="yes"/>
      <point x="112" y="34"/>
      <point x="152" y="-9"/>
    </contour>
  </outline>
</glyph>
<glyph name="h" format="2">
  <advance width="528"/>
  <unicode hex="0068"/>
  <anchor x="264" y="0" name="bottom"/>
  <anchor x="188" y="629" name="center"/>
  <anchor x="118" y="669" name="top"/>
  <outline>
    <contour>
      <point x="81" y="0" type="curve"/>
      <point x="156" y="0" type="line"/>
      <point x="156" y="0"/>
      <point x="150" y="165"/>
      <point x="150" y="309" type="curve"/>
      <point x="150" y="452"/>
      <point x="157" y="703"/>
      <point x="157" y="703" type="curve"/>
      <point x="81" y="703" type="line"/>
      <point x="81" y="703"/>
      <point x="84" y="491"/>
      <point x="84" y="346" type="curve"/>
      <point x="84" y="200"/>
      <point x="81" y="0"/>
    </contour>
    <contour>
      <point x="454" y="0" type="line"/>
      <point x="450" y="82"/>
      <point x="449" y="155"/>
      <point x="449" y="226" type="curve" smooth="yes"/>
      <point x="449" y="286"/>
      <point x="448" y="312"/>
      <point x="449" y="374" type="curve" smooth="yes"/>
      <point x="451" y="474"/>
      <point x="409" y="560"/>
      <point x="302" y="560" type="curve" smooth="yes"/>
      <point x="131" y="560"/>
      <point x="93" y="369"/>
      <point x="93" y="253" type="curve"/>
      <point x="150" y="309" type="line"/>
      <point x="150" y="440"/>
      <point x="222" y="500"/>
      <point x="291" y="500" type="curve" smooth="yes"/>
      <point x="345" y="500"/>
      <point x="381" y="451"/>
      <point x="381" y="365" type="curve" smooth="yes"/>
      <point x="381" y="298"/>
      <point x="381" y="277"/>
      <point x="381" y="225" type="curve" smooth="yes"/>
      <point x="381" y="152"/>
      <point x="378" y="86"/>
      <point x="374" y="1" type="curve"/>
    </contour>
  </outline>
</glyph>
<glyph name="i" format="2">
  <advance width="245"/>
  <unicode hex="0069"/>
  <anchor x="122" y="0" name="bottom"/>
  <anchor x="135" y="-2" name="ogonek"/>
  <outline>
    <contour>
      <point x="164" y="0" type="line"/>
      <point x="159" y="75"/>
      <point x="157" y="184"/>
      <point x="157" y="292" type="curve" smooth="yes"/>
      <point x="156" y="389"/>
      <point x="158" y="486"/>
      <point x="160" y="557" type="curve"/>
      <point x="84" y="556" type="line"/>
      <point x="88" y="475"/>
      <point x="91" y="382"/>
      <point x="91" y="289" type="curve" smooth="yes"/>
      <point x="91" y="187"/>
      <point x="89" y="85"/>
      <point x="84" y="1" type="curve"/>
    </contour>
    <contour>
      <point x="160" y="617" type="line"/>
      <point x="164" y="702" type="line"/>
      <point x="81" y="698" type="line"/>
      <point x="83" y="613" type="line"/>
    </contour>
  </outline>
</glyph>
<glyph name="j" format="2">
  <advance width="233"/>
  <unicode hex="006A"/>
  <outline>
    <contour>
      <point x="-40" y="-166" type="line"/>
      <point x="75" y="-168"/>
      <point x="150" y="-120"/>
      <point x="154" y="12" type="curve" smooth="yes"/>
      <point x="157" y="103"/>
      <point x="155" y="137"/>
      <point x="155" y="283" type="curve"/>
      <point x="155" y="429"/>
      <point x="163" y="554"/>
      <point x="163" y="554" type="curve"/>
      <point x="83" y="555" type="line"/>
      <point x="83" y="555"/>
      <point x="87" y="425"/>
      <point x="87" y="282" type="curve"/>
      <point x="87" y="164"/>
      <point x="88" y="68"/>
      <point x="84" y="0" type="curve" smooth="yes"/>
      <point x="80" y="-74"/>
      <point x="38" y="-114"/>
      <point x="-42" y="-108" type="curve"/>
    </contour>
    <contour>
      <point x="85" y="613" type="line"/>
      <point x="158" y="616" type="line"/>
      <point x="161" y="702" type="line"/>
      <point x="83" y="699" type="line"/>
    </contour>
  </outline>
</glyph>
<glyph name="k" format="2">
  <advance width="452"/>
  <unicode hex="006B"/>
  <anchor x="284" y="0" name="bottom"/>
  <outline>
    <contour>
      <point x="387" y="0" type="curve"/>
      <point x="482" y="3" type="line"/>
      <point x="382" y="103"/>
      <point x="286" y="204"/>
      <point x="207" y="295" type="curve"/>
      <point x="293" y="391"/>
      <point x="374" y="478"/>
      <point x="454" y="559" type="curve"/>
      <point x="367" y="561" type="line"/>
      <point x="298" y="482"/>
      <point x="227" y="404"/>
      <point x="118" y="289" type="curve"/>
      <point x="209" y="197"/>
      <point x="310" y="88"/>
    </contour>
    <contour>
      <point x="81" y="0" type="curve"/>
      <point x="160" y="1" type="line"/>
      <point x="160" y="1"/>
      <point x="153" y="213"/>
      <point x="153" y="359" type="curve"/>
      <point x="153" y="504"/>
      <point x="160" y="698"/>
      <point x="160" y="698" type="curve"/>
      <point x="84" y="700" type="line"/>
      <point x="84" y="700"/>
      <point x="87" y="501"/>
      <point x="87" y="357" type="curve"/>
      <point x="87" y="214"/>
      <point x="81" y="0"/>
    </contour>
  </outline>
</glyph>
<glyph name="m" format="2">
  <advance width="810"/>
  <unicode hex="006D"/>
  <outline>
    <contour>
      <point x="370" y="1" type="curve"/>
      <point x="450" y="1" type="line"/>
      <point x="446" y="83"/>
      <point x="445" y="238"/>
      <point x="445" y="309" type="curve" smooth="yes"/>
      <point x="445" y="471"/>
      <point x="410" y="560"/>
      <point x="297" y="560" type="curve" smooth="yes"/>
      <point x="151" y="560"/>
      <point x="102" y="409"/>
      <point x="102" y="277" type="curve"/>
      <point x="154" y="309" type="line"/>
      <point x="154" y="438"/>
      <point x="198" y="501"/>
      <point x="284" y="501" type="curve" smooth="yes"/>
      <point x="333" y="501"/>
      <point x="377" y="473"/>
      <point x="377" y="378" type="curve" smooth="yes"/>
      <point x="377" y="311"/>
      <point x="377" y="277"/>
      <point x="377" y="225" type="curve" smooth="yes"/>
      <point x="377" y="152"/>
      <point x="374" y="86"/>
    </contour>
    <contour>
      <point x="81" y="1" type="curve"/>
      <point x="157" y="1" type="line"/>
      <point x="156" y="57"/>
      <point x="153" y="184"/>
      <point x="154" y="309" type="curve"/>
      <point x="151" y="416"/>
      <point x="151" y="515"/>
      <point x="153" y="559" type="curve"/>
      <point x="82" y="556" type="line"/>
      <point x="82" y="556"/>
      <point x="87" y="432"/>
      <point x="87" y="286" type="curve" smooth="yes"/>
      <point x="87" y="157"/>
      <point x="86" y="80"/>
    </contour>
    <contour>
      <point x="724" y="0" type="line"/>
      <point x="728" y="84"/>
      <point x="731" y="147"/>
      <point x="733" y="209" type="curve" smooth="yes"/>
      <point x="735" y="267"/>
      <point x="736" y="325"/>
      <point x="736" y="398" type="curve" smooth="yes"/>
      <point x="736" y="506"/>
      <point x="676" y="567"/>
      <point x="585" y="567" type="curve" smooth="yes"/>
      <point x="434" y="567"/>
      <point x="391" y="422"/>
      <point x="386" y="277" type="curve"/>
      <point x="445" y="309" type="line"/>
      <point x="445" y="438"/>
      <point x="485" y="508"/>
      <point x="574" y="508" type="curve" smooth="yes"/>
      <point x="629" y="508"/>
      <point x="668" y="477"/>
      <point x="668" y="385" type="curve" smooth="yes"/>
      <point x="668" y="320"/>
      <point x="667" y="266"/>
      <point x="664" y="216" type="curve" smooth="yes"/>
      <point x="661" y="149"/>
      <point x="656" y="87"/>
      <point x="651" y="9" type="curve"/>
    </contour>
  </outline>
</glyph>
<glyph name="n" format="2">
  <advance width="532"/>
  <unicode hex="006E"/>
  <anchor x="268" y="0" name="bottom"/>
  <anchor x="277" y="555" name="top"/>
  <anchor x="250" y="555" name="topright"/>
  <outline>
    <contour>
      <point x="458" y="0" type="line"/>
      <point x="454" y="82"/>
      <point x="453" y="155"/>
      <point x="453" y="226" type="curve" smooth="yes"/>
      <point x="453" y="286"/>
      <point x="452" y="312"/>
      <point x="453" y="374" type="curve" smooth="yes"/>
      <point x="454" y="474"/>
      <point x="413" y="560"/>
      <point x="306" y="560" type="curve" smooth="yes"/>
      <point x="135" y="560"/>
      <point x="97" y="369"/>
      <point x="97" y="253" type="curve"/>
      <point x="154" y="309" type="line"/>
      <point x="154" y="440"/>
      <point x="226" y="500"/>
      <point x="295" y="500" type="curve" smooth="yes"/>
      <point x="349" y="500"/>
      <point x="385" y="451"/>
      <point x="385" y="365" type="curve" smooth="yes"/>
      <point x="385" y="298"/>
      <point x="385" y="277"/>
      <point x="385" y="225" type="curve" smooth="yes"/>
      <point x="384" y="152"/>
      <point x="382" y="86"/>
      <point x="378" y="1" type="curve"/>
    </contour>
    <contour>
      <point x="81" y="1" type="curve"/>
      <point x="157" y="1" type="line"/>
      <point x="156" y="57"/>
      <point x="153" y="184"/>
      <point x="154" y="309" type="curve"/>
      <point x="151" y="416"/>
      <point x="151" y="515"/>
      <point x="153" y="559" type="curve"/>
      <point x="82" y="556" type="line"/>
      <point x="82" y="556"/>
      <point x="87" y="432"/>
      <point x="87" y="286" type="curve" smooth="yes"/>
      <point x="87" y="157"/>
      <point x="86" y="80"/>
    </contour>
  </outline>
</glyph>
<glyph name="o" format="2">
  <advance width="516"/>
  <unicode hex="006F"/>
  <anchor x="257" y="0" name="bottom"/>
  <anchor x="256" y="276" name="center"/>
  <anchor x="299" y="-3" name="ogonek"/>
  <anchor x="259" y="555" name="top"/>
  <anchor x="335" y="555" name="topright"/>
  <outline>
    <contour>
      <point x="251" y="-10" type="curve"/>
      <point x="329" y="-10"/>
      <point x="383" y="28"/>
      <point x="416" y="90" type="curve" smooth="yes"/>
      <point x="442" y="141"/>
      <point x="454" y="207"/>
      <point x="454" y="283" type="curve" smooth="yes"/>
      <point x="454" y="346"/>
      <point x="448" y="399"/>
      <point x="435" y="442" type="curve" smooth="yes"/>
      <point x="409" y="523"/>
      <point x="358" y="567"/>
      <point x="270" y="567" type="curve" smooth="yes"/>
      <point x="181" y="567"/>
      <point x="120" y="522"/>
      <point x="89" y="444" type="curve" smooth="yes"/>
      <point x="71" y="401"/>
      <point x="62" y="346"/>
      <point x="62" y="284" type="curve" smooth="yes"/>
      <point x="62" y="219"/>
      <point x="69" y="160"/>
      <point x="86" y="112" type="curve" smooth="yes"/>
      <point x="113" y="37"/>
      <point x="164" y="-10"/>
    </contour>
    <contour>
      <point x="252" y="53" type="curve" smooth="yes"/>
      <point x="198" y="53"/>
      <point x="165" y="85"/>
      <point x="148" y="138" type="curve" smooth="yes"/>
      <point x="137" y="172"/>
      <point x="132" y="215"/>
      <point x="132" y="263" type="curve" smooth="yes"/>
      <point x="132" y="324"/>
      <point x="137" y="378"/>
      <point x="152" y="420" type="curve" smooth="yes"/>
      <point x="170" y="473"/>
      <point x="204" y="506"/>
      <point x="263" y="506" type="curve" smooth="yes"/>
      <point x="328" y="506"/>
      <point x="359" y="476"/>
      <point x="373" y="417" type="curve" smooth="yes"/>
      <point x="382" y="383"/>
      <point x="384" y="339"/>
      <point x="384" y="286" type="curve" smooth="yes"/>
      <point x="384" y="220"/>
      <point x="379" y="165"/>
      <point x="362" y="125" type="curve" smooth="yes"/>
      <point x="344" y="79"/>
      <point x="310" y="53"/>
    </contour>
  </outline>
</glyph>
<glyph name="p" format="2">
  <advance width="543"/>
  <unicode hex="0070"/>
  <outline>
    <contour>
      <point x="81" y="-146" type="curve"/>
      <point x="160" y="-145" type="line"/>
      <point x="158" y="56" type="line"/>
      <point x="173" y="30"/>
      <point x="209" y="-14"/>
      <point x="290" y="-14" type="curve" smooth="yes"/>
      <point x="377" y="-14"/>
      <point x="429" y="36"/>
      <point x="457" y="112" type="curve" smooth="yes"/>
      <point x="474" y="159"/>
      <point x="481" y="216"/>
      <point x="481" y="276" type="curve" smooth="yes"/>
      <point x="481" y="351"/>
      <point x="474" y="422"/>
      <point x="450" y="474" type="curve" smooth="yes"/>
      <point x="425" y="528"/>
      <point x="382" y="562"/>
      <point x="309" y="562" type="curve" smooth="yes"/>
      <point x="226" y="562"/>
      <point x="175" y="508"/>
      <point x="158" y="472" type="curve"/>
      <point x="158" y="557" type="line"/>
      <point x="82" y="555" type="line"/>
      <point x="89" y="509"/>
      <point x="90" y="336"/>
      <point x="90" y="211" type="curve" smooth="yes"/>
      <point x="90" y="67"/>
      <point x="81" y="-146"/>
    </contour>
    <contour>
      <point x="157" y="219" type="curve" smooth="yes"/>
      <point x="158" y="304" type="line" smooth="yes"/>
      <point x="159" y="422"/>
      <point x="219" y="504"/>
      <point x="295" y="504" type="curve" smooth="yes"/>
      <point x="348" y="504"/>
      <point x="378" y="477"/>
      <point x="394" y="433" type="curve" smooth="yes"/>
      <point x="408" y="394"/>
      <point x="412" y="341"/>
      <point x="412" y="280" type="curve" smooth="yes"/>
      <point x="412" y="235"/>
      <point x="409" y="191"/>
      <point x="399" y="153" type="curve" smooth="yes"/>
      <point x="383" y="89"/>
      <point x="349" y="42"/>
      <point x="282" y="42" type="curve" smooth="yes"/>
      <point x="205" y="42"/>
      <point x="156" y="126"/>
    </contour>
  </outline>
</glyph>
<glyph name="q" format="2">
  <advance width="526"/>
  <unicode hex="0071"/>
  <outline>
    <contour>
      <point x="62" y="281" type="curve" smooth="yes"/>
      <point x="62" y="217"/>
      <point x="69" y="152"/>
      <point x="91" y="99" type="curve" smooth="yes"/>
      <point x="118" y="36"/>
      <point x="166" y="-9"/>
      <point x="249" y="-9" type="curve" smooth="yes"/>
      <point x="339" y="-9"/>
      <point x="368" y="37"/>
      <point x="386" y="64" type="curve"/>
      <point x="382" y="-146" type="line"/>
      <point x="458" y="-147" type="line"/>
      <point x="458" y="-147"/>
      <point x="453" y="59"/>
      <point x="453" y="205" type="curve" smooth="yes"/>
      <point x="453" y="351"/>
      <point x="464" y="564"/>
      <point x="464" y="564" type="curve"/>
      <point x="388" y="562" type="line"/>
      <point x="388" y="473" type="line"/>
      <point x="373" y="516"/>
      <point x="319" y="567"/>
      <point x="249" y="567" type="curve" smooth="yes"/>
      <point x="173" y="567"/>
      <point x="126" y="532"/>
      <point x="99" y="479" type="curve" smooth="yes"/>
      <point x="71" y="426"/>
      <point x="62" y="355"/>
    </contour>
    <contour>
      <point x="131" y="285" type="curve" smooth="yes"/>
      <point x="131" y="339"/>
      <point x="134" y="395"/>
      <point x="151" y="438" type="curve" smooth="yes"/>
      <point x="168" y="480"/>
      <point x="198" y="509"/>
      <point x="254" y="509" type="curve" smooth="yes"/>
      <point x="306" y="509"/>
      <point x="339" y="472"/>
      <point x="360" y="422" type="curve" smooth="yes"/>
      <point x="379" y="374"/>
      <point x="387" y="315"/>
      <point x="387" y="265" type="curve" smooth="yes"/>
      <point x="387" y="217"/>
      <point x="380" y="158"/>
      <point x="358" y="113" type="curve" smooth="yes"/>
      <point x="338" y="75"/>
      <point x="307" y="47"/>
      <point x="259" y="47" type="curve" smooth="yes"/>
      <point x="200" y="47"/>
      <point x="167" y="86"/>
      <point x="150" y="139" type="curve" smooth="yes"/>
      <point x="135" y="182"/>
      <point x="131" y="236"/>
    </contour>
  </outline>
</glyph>
<glyph name="r" format="2">
  <advance width="442"/>
  <unicode hex="0072"/>
  <anchor x="116" y="0" name="bottom"/>
  <anchor x="274" y="555" name="top"/>
  <outline>
    <contour>
      <point x="347" y="259" type="curve"/>
      <point x="411" y="259" type="line"/>
      <point x="424" y="311"/>
      <point x="433" y="367"/>
      <point x="433" y="413" type="curve" smooth="yes"/>
      <point x="433" y="499"/>
      <point x="392" y="570"/>
      <point x="298" y="571" type="curve" smooth="yes"/>
      <point x="187" y="572"/>
      <point x="120" y="476"/>
      <point x="120" y="285" type="curve"/>
      <point x="157" y="326" type="line"/>
      <point x="157" y="455"/>
      <point x="217" y="512"/>
      <point x="283" y="512" type="curve" smooth="yes"/>
      <point x="343" y="512"/>
      <point x="369" y="476"/>
      <point x="369" y="421" type="curve" smooth="yes"/>
      <point x="369" y="380"/>
      <point x="358" y="315"/>
    </contour>
    <contour>
      <point x="81" y="1" type="curve"/>
      <point x="162" y="1" type="line"/>
      <point x="160" y="59"/>
      <point x="157" y="254"/>
      <point x="157" y="326" type="curve"/>
      <point x="152" y="433"/>
      <point x="158" y="517"/>
      <point x="160" y="561" type="curve"/>
      <point x="88" y="558" type="line"/>
      <point x="90" y="500"/>
      <point x="90" y="409"/>
      <point x="90" y="286" type="curve" smooth="yes"/>
      <point x="90" y="157"/>
      <point x="84" y="59"/>
    </contour>
  </outline>
</glyph>
<glyph name="s" format="2">
  <advance width="450"/>
  <unicode hex="0073"/>
  <anchor x="223" y="0" name="bottom"/>
  <anchor x="234" y="555" name="top"/>
  <outline>
    <contour>
      <point x="230" y="-10" type="curve" smooth="yes"/>
      <point x="333" y="-10"/>
      <point x="407" y="42"/>
      <point x="407" y="137" type="curve" smooth="yes"/>
      <point x="407" y="218"/>
      <point x="320" y="255"/>
      <point x="238" y="292" type="curve" smooth="yes"/>
      <point x="175" y="320"/>
      <point x="118" y="351"/>
      <point x="118" y="419" type="curve" smooth="yes"/>
      <point x="118" y="482"/>
      <point x="156" y="514"/>
      <point x="221" y="514" type="curve" smooth="yes"/>
      <point x="293" y="514"/>
      <point x="328" y="466"/>
      <point x="328" y="402" type="curve" smooth="yes"/>
      <point x="328" y="375"/>
      <point x="324" y="350"/>
      <point x="319" y="320" type="curve"/>
      <point x="394" y="320" type="line"/>
      <point x="399" y="351"/>
      <point x="401" y="373"/>
      <point x="401" y="400" type="curve" smooth="yes"/>
      <point x="401" y="500"/>
      <point x="343" y="572"/>
      <point x="221" y="572" type="curve" smooth="yes"/>
      <point x="120" y="572"/>
      <point x="47" y="517"/>
      <point x="47" y="415" type="curve" smooth="yes"/>
      <point x="47" y="314"/>
      <point x="114" y="270"/>
      <point x="188" y="235" type="curve" smooth="yes"/>
      <point x="263" y="200"/>
      <point x="338" y="171"/>
      <point x="338" y="124" type="curve" smooth="yes"/>
      <point x="338" y="77"/>
      <point x="298" y="47"/>
      <point x="231" y="47" type="curve" smooth="yes"/>
      <point x="147" y="47"/>
      <point x="108" y="76"/>
      <point x="108" y="137" type="curve" smooth="yes"/>
      <point x="108" y="150"/>
      <point x="111" y="166"/>
      <point x="114" y="177" type="curve"/>
      <point x="52" y="177" type="line"/>
      <point x="46" y="159"/>
      <point x="45" y="143"/>
      <point x="45" y="126" type="curve" smooth="yes"/>
      <point x="45" y="47"/>
      <point x="105" y="-10"/>
    </contour>
  </outline>
</glyph>
<glyph name="t" format="2">
  <advance width="463"/>
  <unicode hex="0074"/>
  <anchor x="242" y="0" name="bottom"/>
  <anchor x="197" y="394" name="center"/>
  <anchor x="253" y="555" name="topright"/>
  <outline>
    <contour>
      <point x="234" y="-10" type="curve"/>
      <point x="373" y="-10"/>
      <point x="421" y="82"/>
      <point x="421" y="207" type="curve" smooth="yes"/>
      <point x="421" y="236"/>
      <point x="419" y="266"/>
      <point x="415" y="298" type="curve"/>
      <point x="346" y="299" type="line"/>
      <point x="351" y="260"/>
      <point x="355" y="226"/>
      <point x="355" y="193" type="curve" smooth="yes"/>
      <point x="355" y="117"/>
      <point x="324" y="46"/>
      <point x="244" y="46" type="curve" smooth="yes"/>
      <point x="176" y="46"/>
      <point x="141" y="91"/>
      <point x="141" y="178" type="curve" smooth="yes"/>
      <point x="141" y="248"/>
      <point x="144" y="316"/>
      <point x="150" y="385" type="curve" smooth="yes"/>
      <point x="157" y="464"/>
      <point x="166" y="547"/>
      <point x="176" y="640" type="curve"/>
      <point x="94" y="639" type="line"/>
      <point x="91" y="561"/>
      <point x="85" y="476"/>
      <point x="80" y="394" type="curve" smooth="yes"/>
      <point x="76" y="311"/>
      <point x="72" y="232"/>
      <point x="72" y="170" type="curve" smooth="yes"/>
      <point x="72" y="77"/>
      <point x="114" y="-10"/>
    </contour>
    <contour>
      <point x="18" y="490" type="line"/>
      <point x="18" y="490"/>
      <point x="135" y="492"/>
      <point x="219" y="494" type="curve" smooth="yes"/>
      <point x="253" y="495"/>
      <point x="313" y="495"/>
      <point x="413" y="494" type="curve"/>
      <point x="420" y="556" type="line"/>
      <point x="420" y="556"/>
      <point x="277" y="553"/>
      <point x="196" y="553" type="curve" smooth="yes"/>
      <point x="180" y="553"/>
      <point x="18" y="554"/>
      <point x="25" y="554" type="curve"/>
    </contour>
  </outline>
</glyph>
<glyph name="v" format="2">
  <advance width="464"/>
  <unicode hex="0076"/>
  <outline>
    <contour>
      <point x="10" y="559" type="line"/>
      <point x="41" y="471"/>
      <point x="68" y="379"/>
      <point x="99" y="282" type="curve" smooth="yes"/>
      <point x="129" y="190"/>
      <point x="154" y="94"/>
      <point x="177" y="-3" type="curve"/>
      <point x="280" y="-6" type="line"/>
      <point x="302" y="76"/>
      <point x="327" y="171"/>
      <point x="361" y="274" type="curve" smooth="yes"/>
      <point x="390" y="364"/>
      <point x="422" y="460"/>
      <point x="454" y="557" type="curve"/>
      <point x="372" y="554" type="line"/>
      <point x="352" y="480"/>
      <point x="325" y="384"/>
      <point x="300" y="295" type="curve" smooth="yes"/>
      <point x="274" y="206"/>
      <point x="247" y="112"/>
      <point x="230" y="58" type="curve"/>
      <point x="214" y="115"/>
      <point x="185" y="217"/>
      <point x="161" y="304" type="curve" smooth="yes"/>
      <point x="136" y="396"/>
      <point x="115" y="490"/>
      <point x="99" y="559" type="curve"/>
    </contour>
  </outline>
</glyph>
<glyph name="w" format="2">
  <advance width="757"/>
  <unicode hex="0077"/>
  <anchor x="374" y="555" name="top"/>
  <outline>
    <contour>
      <point x="177" y="-3" type="curve"/>
      <point x="268" y="-6" type="line"/>
      <point x="288" y="77"/>
      <point x="310" y="160"/>
      <point x="332" y="253" type="curve" smooth="yes"/>
      <point x="346" y="310"/>
      <point x="360" y="370"/>
      <point x="377" y="436" type="curve"/>
      <point x="394" y="368"/>
      <point x="409" y="306"/>
      <point x="422" y="249" type="curve" smooth="yes"/>
      <point x="443" y="158"/>
      <point x="464" y="76"/>
      <point x="482" y="-6" type="curve"/>
      <point x="579" y="-3" type="line"/>
      <point x="599" y="75"/>
      <point x="628" y="171"/>
      <point x="656" y="267" type="curve" smooth="yes"/>
      <point x="687" y="372"/>
      <point x="720" y="477"/>
      <point x="747" y="559" type="curve"/>
      <point x="662" y="559" type="line"/>
      <point x="640" y="464"/>
      <point x="619" y="380"/>
      <point x="594" y="281" type="curve" smooth="yes"/>
      <point x="577" y="215"/>
      <point x="555" y="139"/>
      <point x="532" y="54" type="curve"/>
      <point x="521" y="99"/>
      <point x="500" y="182"/>
      <point x="481" y="266" type="curve" smooth="yes"/>
      <point x="460" y="358"/>
      <point x="439" y="456"/>
      <point x="428" y="522" type="curve"/>
      <point x="329" y="522" type="line"/>
      <point x="317" y="457"/>
      <point x="296" y="361"/>
      <point x="276" y="271" type="curve" smooth="yes"/>
      <point x="257" y="185"/>
      <point x="235" y="97"/>
      <point x="223" y="52" type="curve"/>
      <point x="200" y="135"/>
      <point x="179" y="211"/>
      <point x="162" y="275" type="curve" smooth="yes"/>
      <point x="136" y="375"/>
      <point x="116" y="460"/>
      <point x="93" y="556" type="curve"/>
      <point x="10" y="556" type="line"/>
      <point x="37" y="474"/>
      <point x="69" y="371"/>
      <point x="99" y="268" type="curve" smooth="yes"/>
      <point x="127" y="172"/>
      <point x="157" y="76"/>
    </contour>
  </outline>
</glyph>
<glyph name="x" format="2">
  <advance width="416"/>
  <unicode hex="0078"/>
  <outline>
    <contour>
      <point x="66" y="-4" type="line"/>
      <point x="66" y="-4"/>
      <point x="149" y="140"/>
      <point x="241" y="281" type="curve" smooth="yes"/>
      <point x="329" y="418"/>
      <point x="423" y="558"/>
      <point x="423" y="558" type="curve"/>
      <point x="342" y="558" type="line"/>
      <point x="342" y="558"/>
      <point x="263" y="434"/>
      <point x="178" y="299" type="curve" smooth="yes"/>
      <point x="90" y="158"/>
      <point x="-15" y="-2"/>
      <point x="-15" y="-2" type="curve"/>
    </contour>
    <contour>
      <point x="354" y="0" type="curve"/>
      <point x="434" y="3" type="line"/>
      <point x="434" y="3"/>
      <point x="334" y="158"/>
      <point x="244" y="299" type="curve" smooth="yes"/>
      <point x="156" y="436"/>
      <point x="85" y="558"/>
      <point x="85" y="558" type="curve"/>
      <point x="-2" y="558" type="line"/>
      <point x="-2" y="558"/>
      <point x="93" y="418"/>
      <point x="183" y="281" type="curve" smooth="yes"/>
      <point x="274" y="140"/>
      <point x="354" y="0"/>
    </contour>
  </outline>
</glyph>
<glyph name="y" format="2">
  <advance width="464"/>
  <unicode hex="0079"/>
  <anchor x="374" y="37" name="bottom"/>
  <anchor x="234" y="555" name="top"/>
  <outline>
    <contour>
      <point x="234" y="-148" type="line"/>
      <point x="286" y="21"/>
      <point x="320" y="132"/>
      <point x="360" y="262" type="curve" smooth="yes"/>
      <point x="386" y="345"/>
      <point x="416" y="437"/>
      <point x="454" y="556" type="curve"/>
      <point x="379" y="556" type="line"/>
      <point x="356" y="472"/>
      <point x="327" y="375"/>
      <point x="297" y="278" type="curve" smooth="yes"/>
      <point x="250" y="126"/>
      <point x="200" y="-29"/>
      <point x="160" y="-146" type="curve"/>
    </contour>
    <contour>
      <point x="211" y="-9" type="curve"/>
      <point x="268" y="38" type="line"/>
      <point x="250" y="86"/>
      <point x="218" y="177"/>
      <point x="184" y="273" type="curve" smooth="yes"/>
      <point x="149" y="374"/>
      <point x="112" y="482"/>
      <point x="91" y="553" type="curve"/>
      <point x="10" y="550" type="line"/>
      <point x="32" y="498"/>
      <point x="76" y="379"/>
      <point x="119" y="262" type="curve" smooth="yes"/>
      <point x="158" y="152"/>
      <point x="196" y="43"/>
    </contour>
  </outline>
</glyph>
<glyph name="z" format="2">
  <advance width="367"/>
  <unicode hex="007A"/>
  <anchor x="177" y="555" name="top"/>
  <outline>
    <contour>
      <point x="55" y="10" type="line"/>
      <point x="107" y="93"/>
      <point x="158" y="174"/>
      <point x="212" y="259" type="curve" smooth="yes"/>
      <point x="258" y="331"/>
      <point x="307" y="406"/>
      <point x="360" y="489" type="curve"/>
      <point x="307" y="535" type="line"/>
      <point x="264" y="463"/>
      <point x="208" y="372"/>
      <point x="153" y="285" type="curve" smooth="yes"/>
      <point x="98" y="199"/>
      <point x="45" y="117"/>
      <point x="7" y="62" type="curve"/>
    </contour>
    <contour>
      <point x="8" y="-4" type="line"/>
      <point x="8" y="-4"/>
      <point x="137" y="0"/>
      <point x="187" y="0" type="curve"/>
      <point x="237" y="-1"/>
      <point x="368" y="0"/>
      <point x="368" y="0" type="curve"/>
      <point x="369" y="64" type="line"/>
      <point x="369" y="64"/>
      <point x="250" y="62"/>
      <point x="202" y="61" type="curve"/>
      <point x="153" y="61"/>
      <point x="7" y="62"/>
      <point x="7" y="62" type="curve"/>
    </contour>
    <contour>
      <point x="16" y="489" type="line"/>
      <point x="16" y="489"/>
      <point x="129" y="491"/>
      <point x="178" y="491" type="curve"/>
      <point x="226" y="491"/>
      <point x="360" y="489"/>
      <point x="360" y="489" type="curve"/>
      <point x="357" y="555" type="line"/>
      <point x="357" y="555"/>
      <point x="254" y="552"/>
      <point x="194" y="552" type="curve"/>
      <point x="144" y="551"/>
      <point x="17" y="552"/>
      <point x="17" y="552" type="curve"/>
    </contour>
  </outline>
</glyph>
<glyph name="braceleft" format="2">
  <advance width="654"/>
  <unicode hex="007B"/>
  <outline>
    <contour>
      <point x="397" y="-131" type="curve" smooth="yes"/>
      <point x="438" y="-131"/>
      <point x="483" y="-122"/>
      <point x="529" y="-106" type="curve"/>
      <point x="516" y="-52" type="line"/>
      <point x="474" y="-65"/>
      <point x="433" y="-74"/>
      <point x="399" y="-74" type="curve" smooth="yes"/>
      <point x="342" y="-74"/>
      <point x="302" y="-53"/>
      <point x="302" y="23" type="curve" smooth="yes"/>
      <point x="302" y="67"/>
      <point x="323" y="130"/>
      <point x="323" y="177" type="curve" smooth="yes"/>
      <point x="323" y="227"/>
      <point x="284" y="271"/>
      <point x="231" y="278" type="curve"/>
      <point x="284" y="285"/>
      <point x="321" y="324"/>
      <point x="321" y="374" type="curve" smooth="yes"/>
      <point x="321" y="421"/>
      <point x="290" y="505"/>
      <point x="290" y="549" type="curve" smooth="yes"/>
      <point x="290" y="624"/>
      <point x="328" y="645"/>
      <point x="386" y="645" type="curve" smooth="yes"/>
      <point x="418" y="645"/>
      <point x="457" y="636"/>
      <point x="498" y="624" type="curve"/>
      <point x="515" y="679" type="line"/>
      <point x="469" y="695"/>
      <point x="423" y="704"/>
      <point x="382" y="704" type="curve" smooth="yes"/>
      <point x="292" y="704"/>
      <point x="225" y="661"/>
      <point x="225" y="552" type="curve" smooth="yes"/>
      <point x="225" y="496"/>
      <point x="257" y="438"/>
      <point x="257" y="384" type="curve" smooth="yes"/>
      <point x="257" y="311"/>
      <point x="161" y="302"/>
      <point x="124" y="302" type="curve"/>
      <point x="131" y="243" type="line"/>
      <point x="168" y="243"/>
      <point x="257" y="235"/>
      <point x="257" y="161" type="curve" smooth="yes"/>
      <point x="257" y="107"/>
      <point x="235" y="77"/>
      <point x="235" y="21" type="curve" smooth="yes"/>
      <point x="235" y="-86"/>
      <point x="305" y="-131"/>
    </contour>
  </outline>
</glyph>
<glyph name="braceright" format="2">
  <advance width="654"/>
  <unicode hex="007D"/>
  <outline>
    <contour>
      <point x="271" y="-131" type="curve" smooth="yes"/>
      <point x="361" y="-131"/>
      <point x="428" y="-88"/>
      <point x="428" y="21" type="curve" smooth="yes"/>
      <point x="428" y="77"/>
      <point x="396" y="135"/>
      <point x="396" y="189" type="curve" smooth="yes"/>
      <point x="396" y="262"/>
      <point x="492" y="271"/>
      <point x="529" y="271" type="curve"/>
      <point x="522" y="330" type="line"/>
      <point x="485" y="330"/>
      <point x="396" y="338"/>
      <point x="396" y="412" type="curve" smooth="yes"/>
      <point x="396" y="466"/>
      <point x="418" y="496"/>
      <point x="418" y="552" type="curve" smooth="yes"/>
      <point x="418" y="659"/>
      <point x="348" y="704"/>
      <point x="256" y="704" type="curve" smooth="yes"/>
      <point x="215" y="704"/>
      <point x="170" y="695"/>
      <point x="124" y="679" type="curve"/>
      <point x="137" y="625" type="line"/>
      <point x="179" y="638"/>
      <point x="220" y="647"/>
      <point x="254" y="647" type="curve" smooth="yes"/>
      <point x="311" y="647"/>
      <point x="351" y="621"/>
      <point x="351" y="545" type="curve" smooth="yes"/>
      <point x="351" y="511"/>
      <point x="330" y="443"/>
      <point x="330" y="396" type="curve" smooth="yes"/>
      <point x="330" y="346"/>
      <point x="369" y="302"/>
      <point x="422" y="295" type="curve"/>
      <point x="369" y="288"/>
      <point x="332" y="249"/>
      <point x="332" y="199" type="curve" smooth="yes"/>
      <point x="332" y="152"/>
      <point x="363" y="63"/>
      <point x="363" y="29" type="curve" smooth="yes"/>
      <point x="363" y="-46"/>
      <point x="325" y="-72"/>
      <point x="267" y="-72" type="curve" smooth="yes"/>
      <point x="235" y="-72"/>
      <point x="196" y="-63"/>
      <point x="155" y="-51" type="curve"/>
      <point x="138" y="-106" type="line"/>
      <point x="184" y="-122"/>
      <point x="230" y="-131"/>
    </contour>
  </outline>
</glyph>
<glyph name="asciitilde" format="2">
  <advance width="580"/>
  <unicode hex="007E"/>
  <outline>
    <contour>
      <point x="69" y="247" type="line"/>
      <point x="95" y="257"/>
      <point x="145" y="269"/>
      <point x="186" y="269" type="curve" smooth="yes"/>
      <point x="243" y="269"/>
      <point x="314" y="245"/>
      <point x="376" y="245" type="curve" smooth="yes"/>
      <point x="439" y="245"/>
      <point x="485" y="263"/>
      <point x="508" y="273" type="curve"/>
      <point x="506" y="326" type="line"/>
      <point x="468" y="314"/>
      <point x="431" y="297"/>
      <point x="364" y="297" type="curve" smooth="yes"/>
      <point x="296" y="297"/>
      <point x="257" y="322"/>
      <point x="174" y="322" type="curve" smooth="yes"/>
      <point x="139" y="322"/>
      <point x="96" y="311"/>
      <point x="65" y="298" type="curve"/>
    </contour>
  </outline>
</glyph>
<glyph name="exclamdown" format="2">
  <advance width="305"/>
  <unicode hex="00A1"/>
  <outline>
    <contour>
      <point x="111" y="-146" type="curve"/>
      <point x="195" y="-145" type="line"/>
      <point x="195" y="-145"/>
      <point x="189" y="23"/>
      <point x="186" y="133" type="curve"/>
      <point x="183" y="242"/>
      <point x="182" y="323"/>
      <point x="182" y="323" type="curve"/>
      <point x="121" y="321" type="line"/>
      <point x="121" y="321"/>
      <point x="120" y="208"/>
      <point x="118" y="132" type="curve"/>
      <point x="117" y="57"/>
      <point x="111" y="-146"/>
    </contour>
    <contour>
      <point x="114" y="423" type="line"/>
      <point x="183" y="422" type="line"/>
      <point x="190" y="557" type="line"/>
      <point x="110" y="552" type="line"/>
    </contour>
  </outline>
</glyph>
<glyph name="currency" format="2">
  <advance width="640"/>
  <unicode hex="00A4"/>
  <outline>
    <contour>
      <point x="312" y="40" type="curve" smooth="yes"/>
      <point x="514" y="40"/>
      <point x="594" y="170"/>
      <point x="594" y="284" type="curve" smooth="yes"/>
      <point x="594" y="411"/>
      <point x="508" y="517"/>
      <point x="329" y="517" type="curve" smooth="yes"/>
      <point x="148" y="517"/>
      <point x="54" y="399"/>
      <point x="54" y="270" type="curve" smooth="yes"/>
      <point x="54" y="158"/>
      <point x="126" y="40"/>
    </contour>
    <contour>
      <point x="84" y="4" type="line"/>
      <point x="166" y="99" type="line"/>
      <point x="118" y="141" type="line"/>
      <point x="30" y="50" type="line"/>
    </contour>
    <contour>
      <point x="132" y="400" type="line"/>
      <point x="167" y="452" type="line"/>
      <point x="89" y="549" type="line"/>
      <point x="36" y="501" type="line"/>
    </contour>
    <contour>
      <point x="317" y="103" type="curve" smooth="yes"/>
      <point x="188" y="104"/>
      <point x="136" y="190"/>
      <point x="136" y="277" type="curve" smooth="yes"/>
      <point x="136" y="354"/>
      <point x="182" y="452"/>
      <point x="325" y="452" type="curve" smooth="yes"/>
      <point x="460" y="452"/>
      <point x="512" y="377"/>
      <point x="512" y="276" type="curve" smooth="yes"/>
      <point x="512" y="177"/>
      <point x="453" y="102"/>
    </contour>
    <contour>
      <point x="570" y="4" type="line"/>
      <point x="624" y="50" type="line"/>
      <point x="529" y="146" type="line"/>
      <point x="491" y="96" type="line"/>
    </contour>
    <contour>
      <point x="531" y="415" type="line"/>
      <point x="624" y="501" type="line"/>
      <point x="572" y="549" type="line"/>
      <point x="488" y="457" type="line"/>
    </contour>
  </outline>
</glyph>
<glyph name="yen" format="2">
  <advance width="640"/>
  <unicode hex="00A5"/>
  <outline>
    <contour>
      <point x="277" y="0" type="line"/>
      <point x="357" y="1" type="line"/>
      <point x="353" y="217" type="line"/>
      <point x="383" y="288"/>
      <point x="426" y="384"/>
      <point x="466" y="472" type="curve" smooth="yes"/>
      <point x="512" y="573"/>
      <point x="555" y="665"/>
      <point x="570" y="698" type="curve"/>
      <point x="483" y="696" type="line"/>
      <point x="459" y="631"/>
      <point x="431" y="562"/>
      <point x="404" y="498" type="curve" smooth="yes"/>
      <point x="373" y="425"/>
      <point x="341" y="358"/>
      <point x="317" y="308" type="curve"/>
      <point x="298" y="350"/>
      <point x="267" y="423"/>
      <point x="238" y="495" type="curve" smooth="yes"/>
      <point x="202" y="584"/>
      <point x="168" y="673"/>
      <point x="158" y="704" type="curve"/>
      <point x="71" y="704" type="line"/>
      <point x="91" y="656"/>
      <point x="134" y="559"/>
      <point x="178" y="457" type="curve" smooth="yes"/>
      <point x="215" y="373"/>
      <point x="252" y="285"/>
      <point x="279" y="219" type="curve"/>
    </contour>
    <contour>
      <point x="118" y="87" type="line"/>
      <point x="184" y="90"/>
      <point x="284" y="94"/>
      <point x="320" y="94" type="curve"/>
      <point x="357" y="94"/>
      <point x="445" y="92"/>
      <point x="500" y="90" type="curve"/>
      <point x="511" y="155" type="line"/>
      <point x="448" y="153"/>
      <point x="352" y="151"/>
      <point x="317" y="150" type="curve"/>
      <point x="284" y="149"/>
      <point x="186" y="150"/>
      <point x="121" y="150" type="curve"/>
    </contour>
    <contour>
      <point x="118" y="202" type="line"/>
      <point x="184" y="205"/>
      <point x="284" y="209"/>
      <point x="320" y="209" type="curve"/>
      <point x="357" y="209"/>
      <point x="445" y="207"/>
      <point x="500" y="205" type="curve"/>
      <point x="511" y="270" type="line"/>
      <point x="448" y="268"/>
      <point x="352" y="266"/>
      <point x="317" y="265" type="curve"/>
      <point x="284" y="264"/>
      <point x="186" y="265"/>
      <point x="121" y="265" type="curve"/>
    </contour>
  </outline>
</glyph>
<glyph name="brokenbar" format="2">
  <advance width="289"/>
  <unicode hex="00A6"/>
  <outline>
    <contour>
      <point x="113" y="351" type="curve"/>
      <point x="169" y="351" type="line"/>
      <point x="171" y="513"/>
      <point x="178" y="694"/>
      <point x="178" y="694" type="curve"/>
      <point x="111" y="693" type="line"/>
      <point x="111" y="693"/>
      <point x="113" y="511"/>
    </contour>
    <contour>
      <point x="110" y="-134" type="curve"/>
      <point x="179" y="-136" type="line"/>
      <point x="179" y="-136"/>
      <point x="172" y="31"/>
      <point x="170" y="186" type="curve"/>
      <point x="113" y="186" type="line"/>
      <point x="113" y="46"/>
      <point x="114" y="-69"/>
    </contour>
  </outline>
</glyph>
<glyph name="section" format="2">
  <advance width="528"/>
  <unicode hex="00A7"/>
  <outline>
    <contour>
      <point x="265" y="702" type="curve"/>
      <point x="137" y="702"/>
      <point x="82" y="620"/>
      <point x="82" y="541" type="curve" smooth="yes"/>
      <point x="82" y="444"/>
      <point x="151" y="404"/>
      <point x="221" y="377" type="curve" smooth="yes"/>
      <point x="295" y="349"/>
      <point x="369" y="334"/>
      <point x="369" y="283" type="curve" smooth="yes"/>
      <point x="369" y="229"/>
      <point x="309" y="213"/>
      <point x="252" y="213" type="curve"/>
      <point x="257" y="156" type="line"/>
      <point x="344" y="156"/>
      <point x="445" y="194"/>
      <point x="445" y="297" type="curve" smooth="yes"/>
      <point x="445" y="392"/>
      <point x="339" y="414"/>
      <point x="255" y="447" type="curve" smooth="yes"/>
      <point x="201" y="468"/>
      <point x="156" y="493"/>
      <point x="156" y="547" type="curve" smooth="yes"/>
      <point x="156" y="595"/>
      <point x="178" y="643"/>
      <point x="262" y="643" type="curve" smooth="yes"/>
      <point x="347" y="643"/>
      <point x="369" y="591"/>
      <point x="369" y="530" type="curve" smooth="yes"/>
      <point x="369" y="510"/>
      <point x="367" y="489"/>
      <point x="364" y="469" type="curve"/>
      <point x="439" y="469" type="line"/>
      <point x="442" y="490"/>
      <point x="444" y="511"/>
      <point x="444" y="531" type="curve" smooth="yes"/>
      <point x="444" y="626"/>
      <point x="402" y="702"/>
    </contour>
    <contour>
      <point x="262" y="-110" type="curve"/>
      <point x="390" y="-110"/>
      <point x="445" y="-28"/>
      <point x="445" y="51" type="curve" smooth="yes"/>
      <point x="445" y="148"/>
      <point x="376" y="188"/>
      <point x="306" y="215" type="curve" smooth="yes"/>
      <point x="232" y="243"/>
      <point x="158" y="258"/>
      <point x="158" y="309" type="curve" smooth="yes"/>
      <point x="158" y="363"/>
      <point x="218" y="379"/>
      <point x="275" y="379" type="curve"/>
      <point x="270" y="436" type="line"/>
      <point x="183" y="436"/>
      <point x="82" y="398"/>
      <point x="82" y="295" type="curve" smooth="yes"/>
      <point x="82" y="200"/>
      <point x="188" y="178"/>
      <point x="272" y="145" type="curve" smooth="yes"/>
      <point x="326" y="124"/>
      <point x="371" y="99"/>
      <point x="371" y="45" type="curve" smooth="yes"/>
      <point x="371" y="-3"/>
      <point x="349" y="-51"/>
      <point x="265" y="-51" type="curve" smooth="yes"/>
      <point x="180" y="-51"/>
      <point x="158" y="1"/>
      <point x="158" y="62" type="curve" smooth="yes"/>
      <point x="158" y="82"/>
      <point x="160" y="103"/>
      <point x="163" y="123" type="curve"/>
      <point x="88" y="123" type="line"/>
      <point x="85" y="102"/>
      <point x="83" y="81"/>
      <point x="83" y="61" type="curve" smooth="yes"/>
      <point x="83" y="-34"/>
      <point x="125" y="-110"/>
    </contour>
  </outline>
</glyph>
<glyph name="copyright" format="2">
  <advance width="807"/>
  <unicode hex="00A9"/>
  <outline>
    <contour>
      <point x="393" y="65" type="curve" smooth="yes"/>
      <point x="641" y="65"/>
      <point x="727" y="234"/>
      <point x="727" y="381" type="curve" smooth="yes"/>
      <point x="727" y="551"/>
      <point x="650" y="706"/>
      <point x="406" y="706" type="curve" smooth="yes"/>
      <point x="166" y="706"/>
      <point x="80" y="534"/>
      <point x="80" y="384" type="curve" smooth="yes"/>
      <point x="80" y="236"/>
      <point x="152" y="65"/>
    </contour>
    <contour>
      <point x="394" y="191" type="curve" smooth="yes"/>
      <point x="496" y="191"/>
      <point x="533" y="248"/>
      <point x="533" y="307" type="curve" smooth="yes"/>
      <point x="533" y="314"/>
      <point x="532" y="322"/>
      <point x="531" y="329" type="curve"/>
      <point x="479" y="327" type="line"/>
      <point x="480" y="322"/>
      <point x="480" y="316"/>
      <point x="480" y="310" type="curve" smooth="yes"/>
      <point x="480" y="278"/>
      <point x="465" y="237"/>
      <point x="398" y="237" type="curve" smooth="yes"/>
      <point x="360" y="237"/>
      <point x="338" y="251"/>
      <point x="326" y="276" type="curve" smooth="yes"/>
      <point x="312" y="302"/>
      <point x="309" y="340"/>
      <point x="309" y="386" type="curve" smooth="yes"/>
      <point x="309" y="423"/>
      <point x="311" y="458"/>
      <point x="320" y="484" type="curve" smooth="yes"/>
      <point x="331" y="520"/>
      <point x="355" y="543"/>
      <point x="401" y="543" type="curve" smooth="yes"/>
      <point x="462" y="543"/>
      <point x="476" y="504"/>
      <point x="476" y="456" type="curve" smooth="yes"/>
      <point x="476" y="441"/>
      <point x="474" y="425"/>
      <point x="473" y="410" type="curve"/>
      <point x="526" y="410" type="line"/>
      <point x="529" y="424"/>
      <point x="531" y="439"/>
      <point x="531" y="455" type="curve" smooth="yes"/>
      <point x="531" y="519"/>
      <point x="503" y="587"/>
      <point x="407" y="587" type="curve" smooth="yes"/>
      <point x="344" y="587"/>
      <point x="305" y="560"/>
      <point x="282" y="521" type="curve" smooth="yes"/>
      <point x="260" y="483"/>
      <point x="253" y="434"/>
      <point x="253" y="387" type="curve" smooth="yes"/>
      <point x="253" y="344"/>
      <point x="258" y="294"/>
      <point x="279" y="256" type="curve" smooth="yes"/>
      <point x="299" y="218"/>
      <point x="335" y="191"/>
    </contour>
    <contour>
      <point x="395" y="119" type="curve" smooth="yes"/>
      <point x="190" y="119"/>
      <point x="139" y="271"/>
      <point x="139" y="384" type="curve" smooth="yes"/>
      <point x="139" y="509"/>
      <point x="199" y="652"/>
      <point x="402" y="652" type="curve" smooth="yes"/>
      <point x="610" y="652"/>
      <point x="668" y="527"/>
      <point x="668" y="392" type="curve" smooth="yes"/>
      <point x="668" y="258"/>
      <point x="605" y="119"/>
    </contour>
  </outline>
</glyph>
<glyph name="ordfeminine" format="2">
  <advance width="410"/>
  <unicode hex="00AA"/>
  <outline>
    <contour>
      <point x="81" y="519" type="curve" smooth="yes"/>
      <point x="81" y="491"/>
      <point x="101" y="461"/>
      <point x="160" y="461" type="curve" smooth="yes"/>
      <point x="207" y="461"/>
      <point x="247" y="479"/>
      <point x="270" y="507" type="curve"/>
      <point x="272" y="492"/>
      <point x="281" y="468"/>
      <point x="290" y="461" type="curve"/>
      <point x="335" y="481" type="line"/>
      <point x="327" y="490"/>
      <point x="316" y="503"/>
      <point x="317" y="524" type="curve" smooth="yes"/>
      <point x="320" y="618" type="line" smooth="yes"/>
      <point x="321" y="654"/>
      <point x="306" y="703"/>
      <point x="207" y="703" type="curve" smooth="yes"/>
      <point x="126" y="703"/>
      <point x="90" y="667"/>
      <point x="90" y="621" type="curve"/>
      <point x="139" y="615" type="line"/>
      <point x="139" y="647"/>
      <point x="164" y="664"/>
      <point x="207" y="664" type="curve" smooth="yes"/>
      <point x="247" y="664"/>
      <point x="267" y="652"/>
      <point x="267" y="633" type="curve" smooth="yes"/>
      <point x="267" y="611"/>
      <point x="228" y="605"/>
      <point x="185" y="596" type="curve" smooth="yes"/>
      <point x="135" y="586"/>
      <point x="81" y="573"/>
    </contour>
    <contour>
      <point x="132" y="522" type="curve" smooth="yes"/>
      <point x="132" y="548"/>
      <point x="161" y="551"/>
      <point x="193" y="558" type="curve" smooth="yes"/>
      <point x="220" y="564"/>
      <point x="249" y="570"/>
      <point x="267" y="582" type="curve"/>
      <point x="267" y="571" type="line" smooth="yes"/>
      <point x="267" y="526"/>
      <point x="209" y="499"/>
      <point x="169" y="499" type="curve" smooth="yes"/>
      <point x="148" y="499"/>
      <point x="132" y="506"/>
    </contour>
  </outline>
</glyph>
<glyph name="guillemetleft" format="2">
  <advance width="923"/>
  <unicode hex="00AB"/>
  <outline>
    <contour>
      <point x="117" y="249" type="line"/>
      <point x="177" y="280"/>
      <point x="239" y="312"/>
      <point x="298" y="342" type="curve" smooth="yes"/>
      <point x="358" y="373"/>
      <point x="415" y="401"/>
      <point x="462" y="423" type="curve"/>
      <point x="429" y="477" type="line"/>
      <point x="389" y="453"/>
      <point x="336" y="424"/>
      <point x="278" y="395" type="curve" smooth="yes"/>
      <point x="224" y="367"/>
      <point x="165" y="339"/>
      <point x="110" y="313" type="curve"/>
    </contour>
    <contour>
      <point x="439" y="117" type="curve"/>
      <point x="466" y="176" type="line"/>
      <point x="433" y="188"/>
      <point x="383" y="206"/>
      <point x="327" y="228" type="curve" smooth="yes"/>
      <point x="259" y="253"/>
      <point x="181" y="284"/>
      <point x="110" y="313" type="curve"/>
      <point x="117" y="249" type="line"/>
      <point x="172" y="228"/>
      <point x="235" y="202"/>
      <point x="294" y="177" type="curve" smooth="yes"/>
      <point x="350" y="154"/>
      <point x="403" y="132"/>
    </contour>
    <contour>
      <point x="464" y="249" type="line"/>
      <point x="524" y="280"/>
      <point x="586" y="312"/>
      <point x="645" y="342" type="curve" smooth="yes"/>
      <point x="705" y="373"/>
      <point x="762" y="401"/>
      <point x="809" y="423" type="curve"/>
      <point x="776" y="477" type="line"/>
      <point x="736" y="453"/>
      <point x="683" y="424"/>
      <point x="625" y="395" type="curve" smooth="yes"/>
      <point x="571" y="367"/>
      <point x="512" y="339"/>
      <point x="457" y="313" type="curve"/>
    </contour>
    <contour>
      <point x="786" y="117" type="curve"/>
      <point x="813" y="176" type="line"/>
      <point x="780" y="188"/>
      <point x="730" y="206"/>
      <point x="674" y="228" type="curve" smooth="yes"/>
      <point x="606" y="253"/>
      <point x="528" y="284"/>
      <point x="457" y="313" type="curve"/>
      <point x="464" y="249" type="line"/>
      <point x="519" y="228"/>
      <point x="582" y="202"/>
      <point x="641" y="177" type="curve" smooth="yes"/>
      <point x="697" y="154"/>
      <point x="750" y="132"/>
    </contour>
  </outline>
</glyph>
<glyph name="logicalnot" format="2">
  <advance width="630"/>
  <unicode hex="00AC"/>
  <outline>
    <contour>
      <point x="32" y="313" type="line"/>
      <point x="88" y="313"/>
      <point x="262" y="316"/>
      <point x="314" y="317" type="curve" smooth="yes"/>
      <point x="369" y="318"/>
      <point x="588" y="316"/>
      <point x="588" y="316" type="curve"/>
      <point x="592" y="379" type="line"/>
      <point x="495" y="374"/>
      <point x="337" y="375"/>
      <point x="306" y="374" type="curve" smooth="yes"/>
      <point x="254" y="372"/>
      <point x="55" y="375"/>
      <point x="28" y="376" type="curve"/>
    </contour>
    <contour>
      <point x="532" y="119" type="curve"/>
      <point x="595" y="123" type="line"/>
      <point x="593" y="177"/>
      <point x="591" y="224"/>
      <point x="591" y="275" type="curve" smooth="yes"/>
      <point x="591" y="330"/>
      <point x="592" y="379"/>
      <point x="592" y="379" type="curve"/>
      <point x="530" y="358" type="line"/>
      <point x="531" y="330"/>
      <point x="533" y="304"/>
      <point x="534" y="267" type="curve" smooth="yes"/>
      <point x="536" y="210"/>
      <point x="532" y="161"/>
    </contour>
  </outline>
</glyph>
<glyph name="registered" format="2">
  <advance width="550"/>
  <unicode hex="00AE"/>
  <outline>
    <contour>
      <point x="268" y="229" type="curve" smooth="yes"/>
      <point x="461" y="229"/>
      <point x="517" y="358"/>
      <point x="517" y="462" type="curve" smooth="yes"/>
      <point x="517" y="569"/>
      <point x="468" y="702"/>
      <point x="277" y="702" type="curve" smooth="yes"/>
      <point x="91" y="702"/>
      <point x="34" y="571"/>
      <point x="34" y="464" type="curve" smooth="yes"/>
      <point x="34" y="359"/>
      <point x="81" y="229"/>
    </contour>
    <contour>
      <point x="271" y="274" type="curve" smooth="yes"/>
      <point x="114" y="274"/>
      <point x="81" y="378"/>
      <point x="81" y="464" type="curve" smooth="yes"/>
      <point x="81" y="552"/>
      <point x="118" y="657"/>
      <point x="274" y="657" type="curve" smooth="yes"/>
      <point x="435" y="657"/>
      <point x="470" y="551"/>
      <point x="470" y="463" type="curve" smooth="yes"/>
      <point x="470" y="377"/>
      <point x="433" y="274"/>
    </contour>
    <contour>
      <point x="334" y="322" type="curve"/>
      <point x="379" y="323" type="line"/>
      <point x="356" y="362"/>
      <point x="337" y="401"/>
      <point x="321" y="438" type="curve"/>
      <point x="348" y="455"/>
      <point x="364" y="482"/>
      <point x="364" y="519" type="curve" smooth="yes"/>
      <point x="364" y="593"/>
      <point x="322" y="611"/>
      <point x="252" y="611" type="curve" smooth="yes"/>
      <point x="241" y="611"/>
      <point x="208" y="610"/>
      <point x="194" y="609" type="curve"/>
      <point x="194" y="578"/>
      <point x="195" y="517"/>
      <point x="195" y="467" type="curve" smooth="yes"/>
      <point x="195" y="417"/>
      <point x="194" y="355"/>
      <point x="194" y="322" type="curve"/>
      <point x="234" y="323" type="line"/>
      <point x="233" y="353"/>
      <point x="233" y="383"/>
      <point x="232" y="413" type="curve"/>
      <point x="252" y="414"/>
      <point x="270" y="417"/>
      <point x="287" y="422" type="curve"/>
      <point x="305" y="387"/>
      <point x="320" y="355"/>
    </contour>
    <contour>
      <point x="232" y="447" type="curve"/>
      <point x="232" y="454"/>
      <point x="232" y="461"/>
      <point x="232" y="468" type="curve" smooth="yes"/>
      <point x="232" y="498"/>
      <point x="233" y="542"/>
      <point x="234" y="577" type="curve"/>
      <point x="244" y="578"/>
      <point x="254" y="578"/>
      <point x="264" y="578" type="curve" smooth="yes"/>
      <point x="308" y="578"/>
      <point x="328" y="561"/>
      <point x="328" y="518" type="curve" smooth="yes"/>
      <point x="328" y="471"/>
      <point x="294" y="451"/>
    </contour>
  </outline>
</glyph>
<glyph name="degree" format="2">
  <advance width="439"/>
  <unicode hex="00B0"/>
  <outline>
    <contour>
      <point x="222" y="501" type="curve"/>
      <point x="315" y="501"/>
      <point x="359" y="551"/>
      <point x="359" y="609" type="curve"/>
      <point x="359" y="659"/>
      <point x="317" y="703"/>
      <point x="221" y="703" type="curve"/>
      <point x="134" y="703"/>
      <point x="90" y="653"/>
      <point x="90" y="600" type="curve"/>
      <point x="90" y="549"/>
      <point x="124" y="501"/>
    </contour>
    <contour>
      <point x="223" y="532" type="curve"/>
      <point x="169" y="532"/>
      <point x="131" y="550"/>
      <point x="131" y="602" type="curve" smooth="yes"/>
      <point x="131" y="631"/>
      <point x="158" y="672"/>
      <point x="221" y="672" type="curve"/>
      <point x="282" y="672"/>
      <point x="318" y="647"/>
      <point x="318" y="611" type="curve" smooth="yes"/>
      <point x="318" y="572"/>
      <point x="300" y="532"/>
    </contour>
  </outline>
</glyph>
<glyph name="plusminus" format="2">
  <advance width="580"/>
  <unicode hex="00B1"/>
  <outline>
    <contour>
      <point x="335" y="218" type="line"/>
      <point x="335" y="219"/>
      <point x="326" y="336"/>
      <point x="326" y="402" type="curve"/>
      <point x="326" y="471"/>
      <point x="333" y="577"/>
      <point x="333" y="577" type="curve"/>
      <point x="264" y="573" type="line"/>
      <point x="264" y="573"/>
      <point x="268" y="466"/>
      <point x="269" y="401" type="curve"/>
      <point x="271" y="339"/>
      <point x="265" y="214"/>
      <point x="265" y="214" type="curve"/>
    </contour>
    <contour>
      <point x="90" y="103" type="line"/>
      <point x="90" y="103"/>
      <point x="250" y="107"/>
      <point x="302" y="107" type="curve"/>
      <point x="357" y="108"/>
      <point x="506" y="106"/>
      <point x="506" y="106" type="curve"/>
      <point x="510" y="169" type="line"/>
      <point x="510" y="169"/>
      <point x="352" y="166"/>
      <point x="294" y="164" type="curve"/>
      <point x="237" y="162"/>
      <point x="86" y="166"/>
      <point x="86" y="166" type="curve"/>
    </contour>
    <contour>
      <point x="85" y="358" type="line"/>
      <point x="85" y="358"/>
      <point x="252" y="364"/>
      <point x="311" y="364" type="curve"/>
      <point x="372" y="364"/>
      <point x="512" y="359"/>
      <point x="512" y="359" type="curve"/>
      <point x="515" y="424" type="line"/>
      <point x="515" y="424"/>
      <point x="367" y="421"/>
      <point x="310" y="420" type="curve"/>
      <point x="255" y="420"/>
      <point x="90" y="421"/>
      <point x="90" y="421" type="curve"/>
    </contour>
  </outline>
</glyph>
<glyph name="twosuperior" format="2">
  <advance width="352"/>
  <unicode hex="00B2"/>
  <outline>
    <contour>
      <point x="125" y="581" type="line"/>
      <point x="196" y="608"/>
      <point x="276" y="654"/>
      <point x="276" y="721" type="curve" smooth="yes"/>
      <point x="276" y="778"/>
      <point x="233" y="805"/>
      <point x="181" y="805" type="curve" smooth="yes"/>
      <point x="112" y="805"/>
      <point x="79" y="766"/>
      <point x="79" y="712" type="curve" smooth="yes"/>
      <point x="79" y="702"/>
      <point x="80" y="692"/>
      <point x="82" y="682" type="curve"/>
      <point x="136" y="683" type="line"/>
      <point x="134" y="693"/>
      <point x="132" y="704"/>
      <point x="132" y="715" type="curve" smooth="yes"/>
      <point x="132" y="741"/>
      <point x="142" y="765"/>
      <point x="177" y="765" type="curve" smooth="yes"/>
      <point x="205" y="765"/>
      <point x="221" y="752"/>
      <point x="221" y="721" type="curve" smooth="yes"/>
      <point x="221" y="668"/>
      <point x="159" y="634"/>
      <point x="78" y="604" type="curve"/>
    </contour>
    <contour>
      <point x="77" y="563" type="line"/>
      <point x="77" y="563"/>
      <point x="128" y="564"/>
      <point x="179" y="565" type="curve"/>
      <point x="210" y="565"/>
      <point x="280" y="565"/>
      <point x="280" y="565" type="curve"/>
      <point x="279" y="607" type="line"/>
      <point x="279" y="607"/>
      <point x="214" y="606"/>
      <point x="184" y="605" type="curve"/>
      <point x="156" y="605"/>
      <point x="78" y="604"/>
      <point x="78" y="604" type="curve"/>
    </contour>
  </outline>
</glyph>
<glyph name="threesuperior" format="2">
  <advance width="352"/>
  <unicode hex="00B3"/>
  <outline>
    <contour>
      <point x="167" y="559" type="curve" smooth="yes"/>
      <point x="247" y="559"/>
      <point x="273" y="592"/>
      <point x="273" y="626" type="curve" smooth="yes"/>
      <point x="273" y="650"/>
      <point x="253" y="665"/>
      <point x="235" y="668" type="curve"/>
      <point x="252" y="676"/>
      <point x="277" y="694"/>
      <point x="277" y="734" type="curve" smooth="yes"/>
      <point x="277" y="775"/>
      <point x="246" y="806"/>
      <point x="173" y="806" type="curve" smooth="yes"/>
      <point x="109" y="806"/>
      <point x="76" y="771"/>
      <point x="76" y="730" type="curve" smooth="yes"/>
      <point x="76" y="723"/>
      <point x="77" y="715"/>
      <point x="79" y="708" type="curve"/>
      <point x="128" y="709" type="line"/>
      <point x="127" y="714"/>
      <point x="127" y="719"/>
      <point x="127" y="724" type="curve" smooth="yes"/>
      <point x="127" y="745"/>
      <point x="135" y="767"/>
      <point x="173" y="767" type="curve" smooth="yes"/>
      <point x="213" y="767"/>
      <point x="223" y="747"/>
      <point x="223" y="724" type="curve" smooth="yes"/>
      <point x="223" y="701"/>
      <point x="216" y="684"/>
      <point x="168" y="684" type="curve"/>
      <point x="160" y="684"/>
      <point x="133" y="684"/>
      <point x="121" y="684" type="curve"/>
      <point x="121" y="649" type="line"/>
      <point x="130" y="649"/>
      <point x="167" y="649"/>
      <point x="174" y="649" type="curve"/>
      <point x="204" y="649"/>
      <point x="218" y="644"/>
      <point x="218" y="627" type="curve" smooth="yes"/>
      <point x="218" y="602"/>
      <point x="199" y="595"/>
      <point x="169" y="595" type="curve" smooth="yes"/>
      <point x="124" y="595"/>
      <point x="125" y="614"/>
      <point x="125" y="626" type="curve"/>
      <point x="73" y="625" type="line"/>
      <point x="73" y="607"/>
      <point x="76" y="559"/>
    </contour>
  </outline>
</glyph>
<glyph name="acute" format="2">
  <advance width="212"/>
  <unicode hex="00B4"/>
  <anchor x="89" y="555" name="_top"/>
  <outline>
    <contour>
      <point x="36" y="613" type="line"/>
      <point x="59" y="623"/>
      <point x="88" y="636"/>
      <point x="118" y="648" type="curve" smooth="yes"/>
      <point x="149" y="661"/>
      <point x="181" y="673"/>
      <point x="211" y="686" type="curve"/>
      <point x="172" y="743" type="line"/>
      <point x="147" y="727"/>
      <point x="118" y="709"/>
      <point x="91" y="693" type="curve" smooth="yes"/>
      <point x="63" y="678"/>
      <point x="36" y="663"/>
      <point x="12" y="651" type="curve"/>
    </contour>
  </outline>
</glyph>
<glyph name="paragraph" format="2">
  <advance width="680"/>
  <unicode hex="00B6"/>
  <outline>
    <contour>
      <point x="375" y="211" type="curve"/>
      <point x="423" y="710" type="line"/>
      <point x="391" y="712"/>
      <point x="285" y="713"/>
      <point x="248" y="713" type="curve"/>
      <point x="119" y="713"/>
      <point x="68" y="654"/>
      <point x="68" y="457" type="curve"/>
      <point x="68" y="261"/>
      <point x="165" y="211"/>
    </contour>
    <contour>
      <point x="343" y="-103" type="curve"/>
      <point x="424" y="-100" type="line"/>
      <point x="424" y="-100"/>
      <point x="420" y="186"/>
      <point x="420" y="357" type="curve"/>
      <point x="420" y="528"/>
      <point x="423" y="710"/>
      <point x="423" y="710" type="curve"/>
      <point x="341" y="703" type="line"/>
      <point x="341" y="703"/>
      <point x="347" y="475"/>
      <point x="347" y="359" type="curve"/>
      <point x="347" y="243"/>
      <point x="343" y="-103"/>
    </contour>
    <contour>
      <point x="504" y="-103" type="curve"/>
      <point x="585" y="-100" type="line"/>
      <point x="585" y="-100"/>
      <point x="581" y="186"/>
      <point x="581" y="357" type="curve"/>
      <point x="581" y="528"/>
      <point x="584" y="710"/>
      <point x="584" y="710" type="curve"/>
      <point x="502" y="703" type="line"/>
      <point x="502" y="703"/>
      <point x="508" y="475"/>
      <point x="508" y="359" type="curve"/>
      <point x="508" y="243"/>
      <point x="504" y="-103"/>
    </contour>
  </outline>
</glyph>
<glyph name="periodcentered" format="2">
  <advance width="300"/>
  <unicode hex="00B7"/>
  <outline>
    <contour>
      <point x="190" y="237" type="line"/>
      <point x="188" y="372" type="line"/>
      <point x="110" y="367" type="line"/>
      <point x="114" y="239" type="line"/>
    </contour>
  </outline>
</glyph>
<glyph name="cedilla" format="2">
  <advance width="305"/>
  <unicode hex="00B8"/>
  <anchor x="153" y="0" name="_bottom"/>
  <outline>
    <contour>
      <point x="100" y="-162" type="curve" smooth="yes"/>
      <point x="185" y="-162"/>
      <point x="265" y="-147"/>
      <point x="265" y="-98" type="curve" smooth="yes"/>
      <point x="265" y="-64"/>
      <point x="223" y="-37"/>
      <point x="111" y="-39" type="curve"/>
      <point x="96" y="-76" type="line"/>
      <point x="177" y="-76"/>
      <point x="202" y="-85"/>
      <point x="202" y="-99" type="curve" smooth="yes"/>
      <point x="202" y="-115"/>
      <point x="163" y="-120"/>
      <point x="119" y="-120" type="curve" smooth="yes"/>
      <point x="93" y="-120"/>
      <point x="67" y="-118"/>
      <point x="50" y="-115" type="curve"/>
      <point x="39" y="-160" type="line"/>
      <point x="59" y="-162"/>
      <point x="81" y="-162"/>
    </contour>
    <contour>
      <point x="167" y="0" type="line"/>
      <point x="120" y="0" type="line"/>
      <point x="96" y="-76" type="line"/>
      <point x="144" y="-76" type="line"/>
    </contour>
  </outline>
</glyph>
<glyph name="onesuperior" format="2">
  <advance width="352"/>
  <unicode hex="00B9"/>
  <outline>
    <contour>
      <point x="192" y="567" type="curve"/>
      <point x="251" y="567" type="line"/>
      <point x="248" y="645"/>
      <point x="248" y="721"/>
      <point x="252" y="801" type="curve"/>
      <point x="222" y="801" type="line"/>
      <point x="194" y="751" type="line"/>
      <point x="196" y="691"/>
      <point x="195" y="621"/>
    </contour>
    <contour>
      <point x="83" y="720" type="line"/>
      <point x="117" y="720"/>
      <point x="194" y="727"/>
      <point x="218" y="735" type="curve"/>
      <point x="222" y="801" type="line"/>
      <point x="202" y="781"/>
      <point x="115" y="761"/>
      <point x="80" y="756" type="curve"/>
    </contour>
  </outline>
</glyph>
<glyph name="ordmasculine" format="2">
  <advance width="410"/>
  <unicode hex="00BA"/>
  <outline>
    <contour>
      <point x="201" y="469" type="curve" smooth="yes"/>
      <point x="288" y="469"/>
      <point x="326" y="524"/>
      <point x="326" y="590" type="curve" smooth="yes"/>
      <point x="326" y="649"/>
      <point x="295" y="703"/>
      <point x="208" y="703" type="curve" smooth="yes"/>
      <point x="128" y="703"/>
      <point x="84" y="653"/>
      <point x="84" y="588" type="curve" smooth="yes"/>
      <point x="84" y="515"/>
      <point x="124" y="469"/>
    </contour>
    <contour>
      <point x="203" y="516" type="curve" smooth="yes"/>
      <point x="163" y="516"/>
      <point x="137" y="538"/>
      <point x="137" y="589" type="curve" smooth="yes"/>
      <point x="137" y="632"/>
      <point x="159" y="659"/>
      <point x="207" y="659" type="curve" smooth="yes"/>
      <point x="248" y="659"/>
      <point x="274" y="640"/>
      <point x="273" y="593" type="curve" smooth="yes"/>
      <point x="272" y="547"/>
      <point x="260" y="516"/>
    </contour>
  </outline>
</glyph>
<glyph name="guillemetright" format="2">
  <advance width="923"/>
  <unicode hex="00BB"/>
  <outline>
    <contour>
      <point x="813" y="281" type="curve"/>
      <point x="806" y="345" type="line"/>
      <point x="751" y="366"/>
      <point x="688" y="392"/>
      <point x="629" y="417" type="curve" smooth="yes"/>
      <point x="573" y="440"/>
      <point x="520" y="462"/>
      <point x="484" y="477" type="curve"/>
      <point x="457" y="418" type="line"/>
      <point x="490" y="406"/>
      <point x="540" y="388"/>
      <point x="596" y="366" type="curve" smooth="yes"/>
      <point x="664" y="341"/>
      <point x="742" y="310"/>
    </contour>
    <contour>
      <point x="466" y="281" type="curve"/>
      <point x="459" y="345" type="line"/>
      <point x="404" y="366"/>
      <point x="341" y="392"/>
      <point x="282" y="417" type="curve" smooth="yes"/>
      <point x="226" y="440"/>
      <point x="173" y="462"/>
      <point x="137" y="477" type="curve"/>
      <point x="110" y="418" type="line"/>
      <point x="143" y="406"/>
      <point x="193" y="388"/>
      <point x="249" y="366" type="curve" smooth="yes"/>
      <point x="317" y="341"/>
      <point x="395" y="310"/>
    </contour>
    <contour>
      <point x="494" y="117" type="line"/>
      <point x="534" y="141"/>
      <point x="587" y="170"/>
      <point x="645" y="199" type="curve" smooth="yes"/>
      <point x="699" y="227"/>
      <point x="758" y="255"/>
      <point x="813" y="281" type="curve"/>
      <point x="806" y="345" type="line"/>
      <point x="746" y="314"/>
      <point x="684" y="282"/>
      <point x="625" y="252" type="curve" smooth="yes"/>
      <point x="565" y="221"/>
      <point x="508" y="193"/>
      <point x="461" y="171" type="curve"/>
    </contour>
    <contour>
      <point x="147" y="117" type="line"/>
      <point x="187" y="141"/>
      <point x="240" y="170"/>
      <point x="298" y="199" type="curve" smooth="yes"/>
      <point x="352" y="227"/>
      <point x="411" y="255"/>
      <point x="466" y="281" type="curve"/>
      <point x="459" y="345" type="line"/>
      <point x="399" y="314"/>
      <point x="337" y="282"/>
      <point x="278" y="252" type="curve" smooth="yes"/>
      <point x="218" y="221"/>
      <point x="161" y="193"/>
      <point x="114" y="171" type="curve"/>
    </contour>
  </outline>
</glyph>
<glyph name="onequarter" format="2">
  <advance width="860"/>
  <unicode hex="00BC"/>
  <outline>
    <contour>
      <point x="126" y="-1" type="curve"/>
      <point x="215" y="0" type="line"/>
      <point x="298" y="113"/>
      <point x="377" y="229"/>
      <point x="463" y="340" type="curve" smooth="yes"/>
      <point x="554" y="458"/>
      <point x="645" y="577"/>
      <point x="736" y="695" type="curve"/>
      <point x="646" y="697" type="line"/>
      <point x="561" y="578"/>
      <point x="485" y="458"/>
      <point x="392" y="339" type="curve" smooth="yes"/>
      <point x="302" y="224"/>
      <point x="215" y="112"/>
    </contour>
    <contour>
      <point x="201" y="460" type="curve"/>
      <point x="260" y="460" type="line"/>
      <point x="257" y="538"/>
      <point x="257" y="614"/>
      <point x="261" y="694" type="curve"/>
      <point x="231" y="694" type="line"/>
      <point x="211" y="674"/>
      <point x="124" y="654"/>
      <point x="89" y="649" type="curve"/>
      <point x="92" y="613" type="line"/>
      <point x="118" y="613"/>
      <point x="170" y="617"/>
      <point x="204" y="623" type="curve"/>
      <point x="205" y="568"/>
      <point x="204" y="508"/>
    </contour>
    <contour>
      <point x="671" y="-1" type="line"/>
      <point x="716" y="0" type="line"/>
      <point x="715" y="49" type="line"/>
      <point x="759" y="49" type="line"/>
      <point x="759" y="91" type="line"/>
      <point x="715" y="90" type="line"/>
      <point x="715" y="127" type="line" smooth="yes"/>
      <point x="715" y="169"/>
      <point x="716" y="214"/>
      <point x="716" y="235" type="curve"/>
      <point x="640" y="236" type="line"/>
      <point x="626" y="211"/>
      <point x="610" y="187"/>
      <point x="593" y="162" type="curve" smooth="yes"/>
      <point x="544" y="89" type="line"/>
      <point x="549" y="48" type="line"/>
      <point x="672" y="49" type="line"/>
    </contour>
    <contour>
      <point x="591" y="88" type="line"/>
      <point x="671" y="211" type="line"/>
      <point x="672" y="88" type="line"/>
    </contour>
  </outline>
</glyph>
<glyph name="onehalf" format="2">
  <advance width="860"/>
  <unicode hex="00BD"/>
  <outline>
    <contour>
      <point x="126" y="-1" type="curve"/>
      <point x="215" y="0" type="line"/>
      <point x="298" y="113"/>
      <point x="377" y="229"/>
      <point x="463" y="340" type="curve" smooth="yes"/>
      <point x="554" y="458"/>
      <point x="645" y="577"/>
      <point x="736" y="695" type="curve"/>
      <point x="646" y="697" type="line"/>
      <point x="561" y="578"/>
      <point x="485" y="458"/>
      <point x="392" y="339" type="curve" smooth="yes"/>
      <point x="302" y="224"/>
      <point x="215" y="112"/>
    </contour>
    <contour>
      <point x="556" y="-2" type="line"/>
      <point x="590" y="-1"/>
      <point x="624" y="0"/>
      <point x="658" y="0" type="curve" smooth="yes"/>
      <point x="759" y="0" type="line"/>
      <point x="758" y="42" type="line"/>
      <point x="726" y="42"/>
      <point x="684" y="41"/>
      <point x="658" y="40" type="curve"/>
      <point x="710" y="67"/>
      <point x="755" y="106"/>
      <point x="755" y="156" type="curve" smooth="yes"/>
      <point x="755" y="213"/>
      <point x="712" y="240"/>
      <point x="660" y="240" type="curve" smooth="yes"/>
      <point x="591" y="240"/>
      <point x="558" y="201"/>
      <point x="558" y="147" type="curve" smooth="yes"/>
      <point x="558" y="137"/>
      <point x="559" y="127"/>
      <point x="561" y="117" type="curve"/>
      <point x="615" y="118" type="line"/>
      <point x="613" y="128"/>
      <point x="611" y="139"/>
      <point x="611" y="150" type="curve" smooth="yes"/>
      <point x="611" y="176"/>
      <point x="621" y="200"/>
      <point x="656" y="200" type="curve" smooth="yes"/>
      <point x="684" y="200"/>
      <point x="700" y="187"/>
      <point x="700" y="156" type="curve" smooth="yes"/>
      <point x="700" y="103"/>
      <point x="638" y="69"/>
      <point x="557" y="39" type="curve"/>
    </contour>
    <contour>
      <point x="201" y="460" type="curve"/>
      <point x="260" y="460" type="line"/>
      <point x="257" y="538"/>
      <point x="257" y="614"/>
      <point x="261" y="694" type="curve"/>
      <point x="231" y="694" type="line"/>
      <point x="211" y="674"/>
      <point x="124" y="654"/>
      <point x="89" y="649" type="curve"/>
      <point x="92" y="613" type="line"/>
      <point x="118" y="613"/>
      <point x="170" y="617"/>
      <point x="204" y="623" type="curve"/>
      <point x="205" y="568"/>
      <point x="204" y="508"/>
    </contour>
  </outline>
</glyph>
<glyph name="threequarters" format="2">
  <advance width="860"/>
  <unicode hex="00BE"/>
  <outline>
    <contour>
      <point x="126" y="-1" type="curve"/>
      <point x="215" y="0" type="line"/>
      <point x="298" y="113"/>
      <point x="377" y="229"/>
      <point x="463" y="340" type="curve" smooth="yes"/>
      <point x="554" y="458"/>
      <point x="645" y="577"/>
      <point x="736" y="695" type="curve"/>
      <point x="646" y="697" type="line"/>
      <point x="561" y="578"/>
      <point x="485" y="458"/>
      <point x="392" y="339" type="curve" smooth="yes"/>
      <point x="302" y="224"/>
      <point x="215" y="112"/>
    </contour>
    <contour>
      <point x="183" y="452" type="curve" smooth="yes"/>
      <point x="263" y="452"/>
      <point x="289" y="485"/>
      <point x="289" y="519" type="curve" smooth="yes"/>
      <point x="289" y="543"/>
      <point x="269" y="558"/>
      <point x="251" y="561" type="curve"/>
      <point x="268" y="569"/>
      <point x="293" y="587"/>
      <point x="293" y="627" type="curve" smooth="yes"/>
      <point x="293" y="668"/>
      <point x="262" y="699"/>
      <point x="189" y="699" type="curve" smooth="yes"/>
      <point x="125" y="699"/>
      <point x="92" y="664"/>
      <point x="92" y="623" type="curve" smooth="yes"/>
      <point x="92" y="616"/>
      <point x="93" y="608"/>
      <point x="95" y="601" type="curve"/>
      <point x="144" y="602" type="line"/>
      <point x="143" y="607"/>
      <point x="143" y="612"/>
      <point x="143" y="617" type="curve" smooth="yes"/>
      <point x="143" y="638"/>
      <point x="151" y="660"/>
      <point x="189" y="660" type="curve" smooth="yes"/>
      <point x="229" y="660"/>
      <point x="239" y="640"/>
      <point x="239" y="617" type="curve" smooth="yes"/>
      <point x="239" y="594"/>
      <point x="232" y="577"/>
      <point x="184" y="577" type="curve"/>
      <point x="176" y="577"/>
      <point x="149" y="577"/>
      <point x="137" y="577" type="curve"/>
      <point x="137" y="542" type="line"/>
      <point x="146" y="542"/>
      <point x="183" y="542"/>
      <point x="190" y="542" type="curve"/>
      <point x="220" y="542"/>
      <point x="234" y="537"/>
      <point x="234" y="520" type="curve" smooth="yes"/>
      <point x="234" y="495"/>
      <point x="215" y="488"/>
      <point x="185" y="488" type="curve" smooth="yes"/>
      <point x="140" y="488"/>
      <point x="141" y="507"/>
      <point x="141" y="519" type="curve"/>
      <point x="89" y="518" type="line"/>
      <point x="89" y="500"/>
      <point x="92" y="452"/>
    </contour>
    <contour>
      <point x="671" y="-1" type="line"/>
      <point x="716" y="0" type="line"/>
      <point x="715" y="49" type="line"/>
      <point x="759" y="49" type="line"/>
      <point x="759" y="91" type="line"/>
      <point x="715" y="90" type="line"/>
      <point x="715" y="127" type="line" smooth="yes"/>
      <point x="715" y="169"/>
      <point x="716" y="214"/>
      <point x="716" y="235" type="curve"/>
      <point x="640" y="236" type="line"/>
      <point x="626" y="211"/>
      <point x="610" y="187"/>
      <point x="593" y="162" type="curve" smooth="yes"/>
      <point x="544" y="89" type="line"/>
      <point x="549" y="48" type="line"/>
      <point x="672" y="49" type="line"/>
    </contour>
    <contour>
      <point x="591" y="88" type="line"/>
      <point x="671" y="211" type="line"/>
      <point x="672" y="88" type="line"/>
    </contour>
  </outline>
</glyph>
<glyph name="questiondown" format="2">
  <advance width="666"/>
  <unicode hex="00BF"/>
  <outline>
    <contour>
      <point x="294" y="341" type="line"/>
      <point x="298" y="321"/>
      <point x="301" y="305"/>
      <point x="301" y="280" type="curve" smooth="yes"/>
      <point x="301" y="233"/>
      <point x="262" y="209"/>
      <point x="219" y="180" type="curve" smooth="yes"/>
      <point x="167" y="145"/>
      <point x="110" y="103"/>
      <point x="110" y="7" type="curve" smooth="yes"/>
      <point x="110" y="-93"/>
      <point x="191" y="-160"/>
      <point x="325" y="-160" type="curve" smooth="yes"/>
      <point x="480" y="-160"/>
      <point x="556" y="-76"/>
      <point x="556" y="28" type="curve" smooth="yes"/>
      <point x="556" y="52"/>
      <point x="551" y="78"/>
      <point x="543" y="104" type="curve"/>
      <point x="465" y="105" type="line"/>
      <point x="473" y="82"/>
      <point x="478" y="57"/>
      <point x="478" y="34" type="curve" smooth="yes"/>
      <point x="478" y="-35"/>
      <point x="437" y="-94"/>
      <point x="332" y="-94" type="curve" smooth="yes"/>
      <point x="238" y="-94"/>
      <point x="189" y="-54"/>
      <point x="189" y="12" type="curve" smooth="yes"/>
      <point x="189" y="71"/>
      <point x="225" y="103"/>
      <point x="266" y="131" type="curve" smooth="yes"/>
      <point x="318" y="168"/>
      <point x="378" y="199"/>
      <point x="378" y="274" type="curve" smooth="yes"/>
      <point x="378" y="299"/>
      <point x="375" y="325"/>
      <point x="372" y="340" type="curve"/>
    </contour>
    <contour>
      <point x="369" y="561" type="line"/>
      <point x="289" y="555" type="line"/>
      <point x="298" y="428" type="line"/>
      <point x="363" y="430" type="line"/>
    </contour>
  </outline>
</glyph>
<glyph name="AE" format="2">
  <advance width="776"/>
  <unicode hex="00C6"/>
  <anchor x="450" y="693" name="top"/>
  <outline>
    <contour>
      <point x="21" y="6" type="curve"/>
      <point x="101" y="5" type="line"/>
      <point x="123" y="57"/>
      <point x="145" y="109"/>
      <point x="167" y="161" type="curve"/>
      <point x="351" y="167" type="line"/>
      <point x="349" y="-5" type="line"/>
      <point x="718" y="0" type="line"/>
      <point x="718" y="63" type="line"/>
      <point x="430" y="67" type="line"/>
      <point x="428" y="202" type="line"/>
      <point x="713" y="206" type="line"/>
      <point x="715" y="269" type="line"/>
      <point x="428" y="272" type="line"/>
      <point x="427" y="393" type="line" smooth="yes"/>
      <point x="427" y="464"/>
      <point x="428" y="560"/>
      <point x="429" y="623" type="curve"/>
      <point x="706" y="624" type="line"/>
      <point x="706" y="693" type="line"/>
      <point x="325" y="699" type="line"/>
      <point x="292" y="623"/>
      <point x="232" y="487"/>
      <point x="173" y="350" type="curve" smooth="yes"/>
      <point x="113" y="212"/>
      <point x="53" y="76"/>
    </contour>
    <contour>
      <point x="351" y="227" type="line"/>
      <point x="196" y="230" type="line"/>
      <point x="213" y="270"/>
      <point x="231" y="311"/>
      <point x="248" y="351" type="curve" smooth="yes"/>
      <point x="278" y="419"/>
      <point x="317" y="511"/>
      <point x="351" y="587" type="curve"/>
      <point x="351" y="534"/>
      <point x="352" y="465"/>
      <point x="352" y="391" type="curve" smooth="yes"/>
    </contour>
  </outline>
</glyph>
<glyph name="Eth" format="2">
  <advance width="561"/>
  <unicode hex="00D0"/>
  <outline>
    <contour>
      <point x="0" y="315" type="line"/>
      <point x="28" y="316"/>
      <point x="99" y="317"/>
      <point x="191" y="317" type="curve"/>
      <point x="235" y="317"/>
      <point x="311" y="316"/>
      <point x="357" y="315" type="curve"/>
      <point x="357" y="375" type="line"/>
      <point x="317" y="373"/>
      <point x="246" y="371"/>
      <point x="197" y="372" type="curve"/>
      <point x="104" y="373"/>
      <point x="31" y="374"/>
      <point x="3" y="375" type="curve"/>
    </contour>
    <component base="D"/>
  </outline>
</glyph>
<glyph name="Oslash" format="2">
  <advance width="555"/>
  <unicode hex="00D8"/>
  <anchor x="278" y="0" name="bottom"/>
  <anchor x="278" y="693" name="top"/>
  <outline>
    <contour>
      <point x="270" y="-5" type="curve"/>
      <point x="367" y="-5"/>
      <point x="428" y="39"/>
      <point x="464" y="107" type="curve" smooth="yes"/>
      <point x="500" y="173"/>
      <point x="513" y="262"/>
      <point x="513" y="355" type="curve" smooth="yes"/>
      <point x="513" y="421"/>
      <point x="507" y="488"/>
      <point x="489" y="545" type="curve" smooth="yes"/>
      <point x="460" y="638"/>
      <point x="401" y="705"/>
      <point x="288" y="705" type="curve" smooth="yes"/>
      <point x="170" y="705"/>
      <point x="104" y="640"/>
      <point x="71" y="549" type="curve" smooth="yes"/>
      <point x="50" y="492"/>
      <point x="42" y="425"/>
      <point x="42" y="357" type="curve" smooth="yes"/>
      <point x="42" y="271"/>
      <point x="50" y="190"/>
      <point x="75" y="126" type="curve" smooth="yes"/>
      <point x="107" y="47"/>
      <point x="165" y="-5"/>
    </contour>
    <contour>
      <point x="273" y="59" type="curve"/>
      <point x="204" y="59"/>
      <point x="165" y="96"/>
      <point x="144" y="154" type="curve" smooth="yes"/>
      <point x="125" y="205"/>
      <point x="120" y="273"/>
      <point x="120" y="345" type="curve" smooth="yes"/>
      <point x="120" y="406"/>
      <point x="125" y="467"/>
      <point x="140" y="518" type="curve" smooth="yes"/>
      <point x="162" y="591"/>
      <point x="204" y="644"/>
      <point x="282" y="644" type="curve" smooth="yes"/>
      <point x="364" y="644"/>
      <point x="404" y="590"/>
      <point x="421" y="510" type="curve" smooth="yes"/>
      <point x="431" y="466"/>
      <point x="434" y="414"/>
      <point x="434" y="360" type="curve" smooth="yes"/>
      <point x="434" y="284"/>
      <point x="427" y="209"/>
      <point x="403" y="152" type="curve" smooth="yes"/>
      <point x="380" y="96"/>
      <point x="340" y="59"/>
    </contour>
    <contour>
      <point x="169" y="-52" type="line"/>
      <point x="169" y="-52"/>
      <point x="262" y="195"/>
      <point x="310" y="317" type="curve"/>
      <point x="358" y="439"/>
      <point x="487" y="728"/>
      <point x="487" y="728" type="curve"/>
      <point x="418" y="745" type="line"/>
      <point x="418" y="745"/>
      <point x="333" y="514"/>
      <point x="262" y="335" type="curve"/>
      <point x="192" y="156"/>
      <point x="102" y="-38"/>
      <point x="102" y="-38" type="curve"/>
    </contour>
  </outline>
</glyph>
<glyph name="Thorn" format="2">
  <advance width="509"/>
  <unicode hex="00DE"/>
  <outline>
    <contour>
      <point x="147" y="131" type="line"/>
      <point x="348" y="131"/>
      <point x="495" y="159"/>
      <point x="495" y="365" type="curve"/>
      <point x="495" y="533"/>
      <point x="411" y="583"/>
      <point x="210" y="583" type="curve" smooth="yes"/>
      <point x="175" y="583"/>
      <point x="136" y="582"/>
      <point x="94" y="580" type="curve"/>
      <point x="116" y="514" type="line"/>
      <point x="162" y="518"/>
      <point x="202" y="520"/>
      <point x="236" y="520" type="curve" smooth="yes"/>
      <point x="372" y="520"/>
      <point x="417" y="474"/>
      <point x="417" y="354" type="curve"/>
      <point x="417" y="197"/>
      <point x="311" y="198"/>
      <point x="143" y="198" type="curve"/>
    </contour>
    <contour>
      <point x="83" y="-6" type="curve"/>
      <point x="166" y="-2" type="line"/>
      <point x="164" y="103"/>
      <point x="162" y="274"/>
      <point x="162" y="359" type="curve"/>
      <point x="162" y="457"/>
      <point x="166" y="608"/>
      <point x="168" y="703" type="curve"/>
      <point x="84" y="710" type="line"/>
      <point x="85" y="632"/>
      <point x="87" y="482"/>
      <point x="87" y="357" type="curve"/>
      <point x="87" y="232"/>
      <point x="85" y="77"/>
    </contour>
  </outline>
</glyph>
<glyph name="germandbls" format="2">
  <advance width="577"/>
  <unicode hex="00DF"/>
  <outline>
    <contour>
      <point x="74" y="-3" type="curve"/>
      <point x="155" y="0" type="line"/>
      <point x="152" y="55"/>
      <point x="148" y="167"/>
      <point x="148" y="271" type="curve" smooth="yes"/>
      <point x="148" y="410"/>
      <point x="150" y="409"/>
      <point x="153" y="473" type="curve" smooth="yes"/>
      <point x="157" y="556"/>
      <point x="185" y="643"/>
      <point x="320" y="643" type="curve" smooth="yes"/>
      <point x="445" y="643"/>
      <point x="470" y="571"/>
      <point x="470" y="529" type="curve" smooth="yes"/>
      <point x="470" y="429"/>
      <point x="323" y="408"/>
      <point x="323" y="323" type="curve" smooth="yes"/>
      <point x="323" y="265"/>
      <point x="378" y="240"/>
      <point x="429" y="216" type="curve" smooth="yes"/>
      <point x="474" y="195"/>
      <point x="516" y="176"/>
      <point x="516" y="137" type="curve" smooth="yes"/>
      <point x="516" y="46"/>
      <point x="437" y="23"/>
      <point x="285" y="48" type="curve"/>
      <point x="280" y="-9" type="line"/>
      <point x="503" y="-39"/>
      <point x="585" y="40"/>
      <point x="585" y="135" type="curve" smooth="yes"/>
      <point x="585" y="216"/>
      <point x="515" y="249"/>
      <point x="459" y="274" type="curve" smooth="yes"/>
      <point x="422" y="291"/>
      <point x="391" y="306"/>
      <point x="391" y="329" type="curve" smooth="yes"/>
      <point x="391" y="374"/>
      <point x="538" y="405"/>
      <point x="538" y="533" type="curve" smooth="yes"/>
      <point x="538" y="617"/>
      <point x="479" y="701"/>
      <point x="319" y="701" type="curve" smooth="yes"/>
      <point x="137" y="701"/>
      <point x="83" y="575"/>
      <point x="83" y="470" type="curve" smooth="yes"/>
      <point x="83" y="379"/>
      <point x="82" y="411"/>
      <point x="82" y="270" type="curve" smooth="yes"/>
      <point x="82" y="163"/>
      <point x="77" y="52"/>
    </contour>
  </outline>
</glyph>
<glyph name="ae" format="2">
  <advance width="773"/>
  <unicode hex="00E6"/>
  <anchor x="383" y="555" name="top"/>
  <outline>
    <contour>
      <point x="174" y="-10" type="curve" smooth="yes"/>
      <point x="266" y="-10"/>
      <point x="331" y="22"/>
      <point x="367" y="103" type="curve"/>
      <point x="403" y="25"/>
      <point x="449" y="-12"/>
      <point x="535" y="-12" type="curve" smooth="yes"/>
      <point x="652" y="-12"/>
      <point x="717" y="56"/>
      <point x="717" y="153" type="curve" smooth="yes"/>
      <point x="717" y="163"/>
      <point x="716" y="174"/>
      <point x="715" y="185" type="curve"/>
      <point x="649" y="185" type="line"/>
      <point x="651" y="174"/>
      <point x="651" y="164"/>
      <point x="651" y="154" type="curve" smooth="yes"/>
      <point x="651" y="84"/>
      <point x="611" y="44"/>
      <point x="537" y="44" type="curve" smooth="yes"/>
      <point x="481" y="44"/>
      <point x="449" y="73"/>
      <point x="432" y="117" type="curve" smooth="yes"/>
      <point x="418" y="151"/>
      <point x="413" y="198"/>
      <point x="411" y="257" type="curve"/>
      <point x="509" y="260"/>
      <point x="638" y="262"/>
      <point x="708" y="263" type="curve"/>
      <point x="714" y="304"/>
      <point x="717" y="341"/>
      <point x="717" y="375" type="curve" smooth="yes"/>
      <point x="717" y="492"/>
      <point x="659" y="564"/>
      <point x="553" y="564" type="curve" smooth="yes"/>
      <point x="472" y="564"/>
      <point x="419" y="533"/>
      <point x="386" y="482" type="curve"/>
      <point x="364" y="530"/>
      <point x="320" y="564"/>
      <point x="237" y="564" type="curve" smooth="yes"/>
      <point x="130" y="564"/>
      <point x="59" y="499"/>
      <point x="59" y="405" type="curve" smooth="yes"/>
      <point x="59" y="388"/>
      <point x="61" y="370"/>
      <point x="66" y="351" type="curve"/>
      <point x="129" y="354" type="line"/>
      <point x="123" y="373"/>
      <point x="120" y="392"/>
      <point x="120" y="409" type="curve" smooth="yes"/>
      <point x="121" y="469"/>
      <point x="158" y="512"/>
      <point x="234" y="512" type="curve" smooth="yes"/>
      <point x="311" y="512"/>
      <point x="342" y="466"/>
      <point x="341" y="399" type="curve" smooth="yes"/>
      <point x="340" y="356"/>
      <point x="237" y="322"/>
      <point x="165" y="287" type="curve" smooth="yes"/>
      <point x="95" y="253"/>
      <point x="40" y="216"/>
      <point x="40" y="123" type="curve" smooth="yes"/>
      <point x="40" y="33"/>
      <point x="107" y="-10"/>
    </contour>
    <contour>
      <point x="192" y="45" type="curve" smooth="yes"/>
      <point x="140" y="45"/>
      <point x="104" y="73"/>
      <point x="104" y="125" type="curve" smooth="yes"/>
      <point x="104" y="191"/>
      <point x="149" y="219"/>
      <point x="218" y="251" type="curve" smooth="yes"/>
      <point x="278" y="279"/>
      <point x="317" y="301"/>
      <point x="340" y="321" type="curve"/>
      <point x="340" y="294"/>
      <point x="339" y="266"/>
      <point x="339" y="239" type="curve" smooth="yes"/>
      <point x="340" y="118"/>
      <point x="276" y="45"/>
    </contour>
    <contour>
      <point x="412" y="318" type="line"/>
      <point x="413" y="359"/>
      <point x="419" y="400"/>
      <point x="433" y="433" type="curve" smooth="yes"/>
      <point x="451" y="477"/>
      <point x="488" y="507"/>
      <point x="539" y="507" type="curve" smooth="yes"/>
      <point x="616" y="507"/>
      <point x="651" y="461"/>
      <point x="651" y="384" type="curve" smooth="yes"/>
      <point x="651" y="365"/>
      <point x="649" y="343"/>
      <point x="647" y="320" type="curve"/>
    </contour>
  </outline>
</glyph>
<glyph name="eth" format="2">
  <advance width="496"/>
  <unicode hex="00F0"/>
  <outline>
    <contour>
      <point x="234" y="-10" type="curve" smooth="yes"/>
      <point x="400" y="-10"/>
      <point x="445" y="108"/>
      <point x="445" y="321" type="curve"/>
      <point x="445" y="586"/>
      <point x="340" y="675"/>
      <point x="183" y="729" type="curve"/>
      <point x="149" y="667" type="line"/>
      <point x="325" y="622"/>
      <point x="364" y="496"/>
      <point x="366" y="370" type="curve" smooth="yes"/>
      <point x="367" y="297"/>
      <point x="366" y="272"/>
      <point x="366" y="245" type="curve"/>
      <point x="366" y="137"/>
      <point x="350" y="50"/>
      <point x="244" y="50" type="curve" smooth="yes"/>
      <point x="147" y="50"/>
      <point x="123" y="119"/>
      <point x="123" y="214" type="curve" smooth="yes"/>
      <point x="123" y="291"/>
      <point x="149" y="376"/>
      <point x="240" y="376" type="curve" smooth="yes"/>
      <point x="338" y="376"/>
      <point x="366" y="317"/>
      <point x="366" y="243" type="curve"/>
      <point x="402" y="325" type="line"/>
      <point x="374" y="398"/>
      <point x="323" y="437"/>
      <point x="244" y="437" type="curve" smooth="yes"/>
      <point x="117" y="437"/>
      <point x="50" y="333"/>
      <point x="50" y="206" type="curve" smooth="yes"/>
      <point x="50" y="81"/>
      <point x="108" y="-10"/>
    </contour>
    <contour>
      <point x="204" y="497" type="line"/>
      <point x="204" y="497"/>
      <point x="278" y="541"/>
      <point x="334" y="573" type="curve"/>
      <point x="371" y="594"/>
      <point x="478" y="656"/>
      <point x="478" y="656" type="curve"/>
      <point x="446" y="708" type="line"/>
      <point x="446" y="708"/>
      <point x="351" y="648"/>
      <point x="311" y="625" type="curve"/>
      <point x="251" y="593"/>
      <point x="174" y="547"/>
      <point x="174" y="547" type="curve"/>
    </contour>
  </outline>
</glyph>
<glyph name="oslash" format="2">
  <advance width="516"/>
  <unicode hex="00F8"/>
  <anchor x="258" y="555" name="top"/>
  <outline>
    <contour>
      <point x="251" y="-10" type="curve"/>
      <point x="329" y="-10"/>
      <point x="383" y="28"/>
      <point x="416" y="90" type="curve" smooth="yes"/>
      <point x="442" y="141"/>
      <point x="454" y="207"/>
      <point x="454" y="283" type="curve" smooth="yes"/>
      <point x="454" y="346"/>
      <point x="448" y="399"/>
      <point x="435" y="442" type="curve" smooth="yes"/>
      <point x="409" y="523"/>
      <point x="358" y="567"/>
      <point x="270" y="567" type="curve" smooth="yes"/>
      <point x="181" y="567"/>
      <point x="120" y="522"/>
      <point x="89" y="444" type="curve" smooth="yes"/>
      <point x="71" y="401"/>
      <point x="62" y="346"/>
      <point x="62" y="284" type="curve" smooth="yes"/>
      <point x="62" y="219"/>
      <point x="69" y="160"/>
      <point x="86" y="112" type="curve" smooth="yes"/>
      <point x="113" y="37"/>
      <point x="164" y="-10"/>
    </contour>
    <contour>
      <point x="252" y="53" type="curve" smooth="yes"/>
      <point x="198" y="53"/>
      <point x="165" y="85"/>
      <point x="148" y="138" type="curve" smooth="yes"/>
      <point x="137" y="172"/>
      <point x="132" y="215"/>
      <point x="132" y="263" type="curve" smooth="yes"/>
      <point x="132" y="324"/>
      <point x="137" y="378"/>
      <point x="152" y="420" type="curve" smooth="yes"/>
      <point x="170" y="473"/>
      <point x="204" y="506"/>
      <point x="263" y="506" type="curve" smooth="yes"/>
      <point x="328" y="506"/>
      <point x="359" y="476"/>
      <point x="373" y="417" type="curve" smooth="yes"/>
      <point x="382" y="383"/>
      <point x="384" y="339"/>
      <point x="384" y="286" type="curve" smooth="yes"/>
      <point x="384" y="220"/>
      <point x="379" y="165"/>
      <point x="362" y="125" type="curve" smooth="yes"/>
      <point x="344" y="79"/>
      <point x="310" y="53"/>
    </contour>
    <contour>
      <point x="161" y="-60" type="line"/>
      <point x="192" y="30"/>
      <point x="243" y="176"/>
      <point x="272" y="250" type="curve"/>
      <point x="300" y="324"/>
      <point x="379" y="496"/>
      <point x="430" y="605" type="curve"/>
      <point x="362" y="630" type="line"/>
      <point x="330" y="542"/>
      <point x="271" y="386"/>
      <point x="229" y="277" type="curve"/>
      <point x="186" y="168"/>
      <point x="126" y="35"/>
      <point x="93" y="-36" type="curve"/>
    </contour>
  </outline>
</glyph>
<glyph name="idotless" format="2">
  <advance width="245"/>
  <unicode hex="0131"/>
  <anchor x="123" y="0" name="bottom"/>
  <anchor x="122" y="555" name="top"/>
  <outline>
    <contour>
      <point x="164" y="0" type="line"/>
      <point x="159" y="75"/>
      <point x="157" y="184"/>
      <point x="157" y="292" type="curve" smooth="yes"/>
      <point x="156" y="389"/>
      <point x="158" y="486"/>
      <point x="160" y="557" type="curve"/>
      <point x="84" y="556" type="line"/>
      <point x="88" y="475"/>
      <point x="91" y="382"/>
      <point x="91" y="289" type="curve" smooth="yes"/>
      <point x="91" y="187"/>
      <point x="89" y="85"/>
      <point x="84" y="1" type="curve"/>
    </contour>
  </outline>
</glyph>
<glyph name="kgreenlandic" format="2">
  <advance width="512"/>
  <unicode hex="0138"/>
  <outline>
    <contour>
      <point x="427" y="0" type="curve"/>
      <point x="522" y="3" type="line"/>
      <point x="411" y="103"/>
      <point x="304" y="204"/>
      <point x="207" y="295" type="curve"/>
      <point x="311" y="391"/>
      <point x="402" y="478"/>
      <point x="494" y="559" type="curve"/>
      <point x="407" y="561" type="line"/>
      <point x="325" y="482"/>
      <point x="243" y="404"/>
      <point x="120" y="289" type="curve"/>
      <point x="220" y="197"/>
      <point x="335" y="88"/>
    </contour>
    <contour>
      <point x="81" y="0" type="curve"/>
      <point x="160" y="1" type="line"/>
      <point x="157" y="75"/>
      <point x="153" y="212"/>
      <point x="153" y="319" type="curve"/>
      <point x="153" y="425"/>
      <point x="157" y="519"/>
      <point x="160" y="560" type="curve"/>
      <point x="84" y="555" type="line"/>
      <point x="85" y="515"/>
      <point x="87" y="422"/>
      <point x="87" y="317" type="curve"/>
      <point x="87" y="213"/>
      <point x="84" y="75"/>
    </contour>
  </outline>
</glyph>
<glyph name="ldot" format="2">
  <advance width="256"/>
  <unicode hex="0140"/>
  <outline>
    <contour>
      <point x="81" y="2" type="curve"/>
      <point x="160" y="10" type="line"/>
      <point x="160" y="10"/>
      <point x="150" y="212"/>
      <point x="150" y="358" type="curve"/>
      <point x="150" y="504"/>
      <point x="160" y="698"/>
      <point x="160" y="698" type="curve"/>
      <point x="82" y="697" type="line"/>
      <point x="82" y="697"/>
      <point x="84" y="500"/>
      <point x="84" y="357" type="curve"/>
      <point x="84" y="221"/>
      <point x="84" y="63"/>
    </contour>
    <contour>
      <point x="288" y="310" type="line"/>
      <point x="285" y="404" type="line"/>
      <point x="204" y="399" type="line"/>
      <point x="210" y="312" type="line"/>
    </contour>
  </outline>
</glyph>
<glyph name="Eng" format="2">
  <advance width="615"/>
  <unicode hex="014A"/>
  <outline>
    <contour>
      <point x="331" y="-166" type="line"/>
      <point x="446" y="-168"/>
      <point x="524" y="-120"/>
      <point x="527" y="12" type="curve" smooth="yes"/>
      <point x="529" y="103"/>
      <point x="527" y="209"/>
      <point x="527" y="355" type="curve" smooth="yes"/>
      <point x="527" y="462"/>
      <point x="530" y="623"/>
      <point x="532" y="715" type="curve"/>
      <point x="453" y="715" type="line"/>
      <point x="454" y="621"/>
      <point x="456" y="457"/>
      <point x="456" y="353" type="curve" smooth="yes"/>
      <point x="456" y="292"/>
      <point x="457" y="230"/>
      <point x="457" y="169" type="curve"/>
      <point x="430" y="220"/>
      <point x="403" y="284"/>
      <point x="370" y="350" type="curve" smooth="yes"/>
      <point x="301" y="486"/>
      <point x="233" y="633"/>
      <point x="200" y="704" type="curve"/>
      <point x="83" y="704" type="line"/>
      <point x="86" y="612"/>
      <point x="87" y="476"/>
      <point x="88" y="338" type="curve" smooth="yes"/>
      <point x="89" y="219"/>
      <point x="87" y="98"/>
      <point x="86" y="1" type="curve"/>
      <point x="162" y="0" type="line"/>
      <point x="161" y="46"/>
      <point x="160" y="194"/>
      <point x="159" y="336" type="curve" smooth="yes"/>
      <point x="158" y="450"/>
      <point x="158" y="560"/>
      <point x="158" y="613" type="curve"/>
      <point x="185" y="565"/>
      <point x="237" y="454"/>
      <point x="298" y="336" type="curve" smooth="yes"/>
      <point x="359" y="216"/>
      <point x="418" y="88"/>
      <point x="456" y="12" type="curve"/>
      <point x="456" y="-74"/>
      <point x="414" y="-114"/>
      <point x="329" y="-108" type="curve"/>
    </contour>
  </outline>
</glyph>
<glyph name="eng" format="2">
  <advance width="532"/>
  <unicode hex="014B"/>
  <outline>
    <contour>
      <point x="258" y="-166" type="line"/>
      <point x="373" y="-168"/>
      <point x="452" y="-120"/>
      <point x="452" y="12" type="curve" smooth="yes"/>
      <point x="452" y="111"/>
      <point x="453" y="153"/>
      <point x="453" y="245" type="curve" smooth="yes"/>
      <point x="453" y="374" type="line" smooth="yes"/>
      <point x="453" y="474"/>
      <point x="413" y="560"/>
      <point x="306" y="560" type="curve" smooth="yes"/>
      <point x="232" y="560"/>
      <point x="184" y="525"/>
      <point x="152" y="475" type="curve"/>
      <point x="152" y="511"/>
      <point x="152" y="540"/>
      <point x="153" y="559" type="curve"/>
      <point x="82" y="556" type="line"/>
      <point x="84" y="503"/>
      <point x="87" y="393"/>
      <point x="87" y="286" type="curve" smooth="yes"/>
      <point x="87" y="157"/>
      <point x="86" y="80"/>
      <point x="81" y="1" type="curve"/>
      <point x="157" y="1" type="line"/>
      <point x="156" y="57"/>
      <point x="153" y="184"/>
      <point x="154" y="309" type="curve" smooth="yes"/>
      <point x="154" y="440"/>
      <point x="226" y="500"/>
      <point x="295" y="500" type="curve" smooth="yes"/>
      <point x="349" y="500"/>
      <point x="385" y="451"/>
      <point x="385" y="365" type="curve" smooth="yes"/>
      <point x="385" y="244" type="line" smooth="yes"/>
      <point x="385" y="137"/>
      <point x="385" y="85"/>
      <point x="383" y="-2" type="curve" smooth="yes"/>
      <point x="381" y="-95"/>
      <point x="319" y="-112"/>
      <point x="256" y="-108" type="curve"/>
    </contour>
  </outline>
</glyph>
<glyph name="OE" format="2">
  <advance width="808"/>
  <unicode hex="0152"/>
  <outline>
    <contour>
      <point x="270" y="-5" type="curve" smooth="yes"/>
      <point x="353" y="-5"/>
      <point x="391" y="0"/>
      <point x="428" y="0" type="curve" smooth="yes"/>
      <point x="750" y="0" type="line"/>
      <point x="750" y="63" type="line"/>
      <point x="462" y="67" type="line"/>
      <point x="460" y="202" type="line"/>
      <point x="745" y="206" type="line"/>
      <point x="747" y="269" type="line"/>
      <point x="460" y="272" type="line"/>
      <point x="459" y="393" type="line" smooth="yes"/>
      <point x="459" y="464"/>
      <point x="460" y="560"/>
      <point x="461" y="623" type="curve"/>
      <point x="738" y="624" type="line"/>
      <point x="738" y="693" type="line"/>
      <point x="449" y="693" type="line" smooth="yes"/>
      <point x="387" y="693"/>
      <point x="355" y="705"/>
      <point x="288" y="705" type="curve" smooth="yes"/>
      <point x="111" y="705"/>
      <point x="42" y="557"/>
      <point x="42" y="357" type="curve" smooth="yes"/>
      <point x="42" y="146"/>
      <point x="90" y="-5"/>
    </contour>
    <contour>
      <point x="305" y="58" type="curve" smooth="yes"/>
      <point x="146" y="58"/>
      <point x="120" y="165"/>
      <point x="120" y="345" type="curve" smooth="yes"/>
      <point x="120" y="521"/>
      <point x="154" y="644"/>
      <point x="302" y="644" type="curve" smooth="yes"/>
      <point x="326" y="644"/>
      <point x="352" y="641"/>
      <point x="382" y="637" type="curve"/>
      <point x="383" y="583"/>
      <point x="384" y="494"/>
      <point x="384" y="391" type="curve" smooth="yes"/>
      <point x="384" y="278"/>
      <point x="383" y="143"/>
      <point x="382" y="65" type="curve"/>
      <point x="356" y="61"/>
      <point x="330" y="58"/>
    </contour>
  </outline>
</glyph>
<glyph name="oe" format="2">
  <advance width="816"/>
  <unicode hex="0153"/>
  <outline>
    <contour>
      <point x="251" y="-10" type="curve"/>
      <point x="329" y="-10"/>
      <point x="383" y="28"/>
      <point x="416" y="90" type="curve" smooth="yes"/>
      <point x="442" y="141"/>
      <point x="454" y="207"/>
      <point x="454" y="283" type="curve" smooth="yes"/>
      <point x="454" y="346"/>
      <point x="448" y="399"/>
      <point x="435" y="442" type="curve" smooth="yes"/>
      <point x="409" y="523"/>
      <point x="358" y="567"/>
      <point x="270" y="567" type="curve" smooth="yes"/>
      <point x="181" y="567"/>
      <point x="120" y="522"/>
      <point x="89" y="444" type="curve" smooth="yes"/>
      <point x="71" y="401"/>
      <point x="62" y="346"/>
      <point x="62" y="284" type="curve" smooth="yes"/>
      <point x="62" y="219"/>
      <point x="69" y="160"/>
      <point x="86" y="112" type="curve" smooth="yes"/>
      <point x="113" y="37"/>
      <point x="164" y="-10"/>
    </contour>
    <contour>
      <point x="252" y="53" type="curve" smooth="yes"/>
      <point x="198" y="53"/>
      <point x="165" y="85"/>
      <point x="148" y="138" type="curve" smooth="yes"/>
      <point x="137" y="172"/>
      <point x="132" y="215"/>
      <point x="132" y="263" type="curve" smooth="yes"/>
      <point x="132" y="324"/>
      <point x="137" y="378"/>
      <point x="152" y="420" type="curve" smooth="yes"/>
      <point x="170" y="473"/>
      <point x="204" y="506"/>
      <point x="263" y="506" type="curve" smooth="yes"/>
      <point x="328" y="506"/>
      <point x="359" y="476"/>
      <point x="373" y="417" type="curve" smooth="yes"/>
      <point x="382" y="383"/>
      <point x="384" y="339"/>
      <point x="384" y="286" type="curve" smooth="yes"/>
      <point x="384" y="220"/>
      <point x="379" y="165"/>
      <point x="362" y="125" type="curve" smooth="yes"/>
      <point x="344" y="79"/>
      <point x="310" y="53"/>
    </contour>
    <contour>
      <point x="578" y="-12" type="curve" smooth="yes"/>
      <point x="695" y="-12"/>
      <point x="760" y="56"/>
      <point x="760" y="153" type="curve" smooth="yes"/>
      <point x="760" y="163"/>
      <point x="759" y="174"/>
      <point x="758" y="185" type="curve"/>
      <point x="692" y="185" type="line"/>
      <point x="694" y="174"/>
      <point x="694" y="164"/>
      <point x="694" y="154" type="curve" smooth="yes"/>
      <point x="694" y="84"/>
      <point x="654" y="44"/>
      <point x="580" y="44" type="curve" smooth="yes"/>
      <point x="524" y="44"/>
      <point x="492" y="73"/>
      <point x="475" y="117" type="curve" smooth="yes"/>
      <point x="459" y="157"/>
      <point x="454" y="214"/>
      <point x="454" y="288" type="curve" smooth="yes"/>
      <point x="454" y="339"/>
      <point x="459" y="392"/>
      <point x="476" y="433" type="curve" smooth="yes"/>
      <point x="494" y="477"/>
      <point x="531" y="507"/>
      <point x="582" y="507" type="curve" smooth="yes"/>
      <point x="659" y="507"/>
      <point x="694" y="461"/>
      <point x="694" y="384" type="curve" smooth="yes"/>
      <point x="694" y="363"/>
      <point x="692" y="340"/>
      <point x="689" y="314" type="curve"/>
      <point x="751" y="263" type="line"/>
      <point x="757" y="304"/>
      <point x="760" y="341"/>
      <point x="760" y="375" type="curve" smooth="yes"/>
      <point x="760" y="492"/>
      <point x="702" y="564"/>
      <point x="596" y="564" type="curve" smooth="yes"/>
      <point x="504" y="564"/>
      <point x="447" y="524"/>
      <point x="416" y="459" type="curve" smooth="yes"/>
      <point x="393" y="413"/>
      <point x="384" y="355"/>
      <point x="384" y="289" type="curve" smooth="yes"/>
      <point x="384" y="203"/>
      <point x="392" y="138"/>
      <point x="417" y="86" type="curve" smooth="yes"/>
      <point x="445" y="27"/>
      <point x="498" y="-12"/>
    </contour>
    <contour>
      <point x="419" y="256" type="line"/>
      <point x="558" y="261"/>
      <point x="751" y="263"/>
      <point x="751" y="263" type="curve"/>
      <point x="751" y="320" type="line"/>
      <point x="418" y="318" type="line"/>
    </contour>
  </outline>
</glyph>
<glyph name="longs" format="2">
  <advance width="339"/>
  <unicode hex="017F"/>
  <outline>
    <contour>
      <point x="15" y="488" type="line"/>
      <point x="49" y="488"/>
      <point x="99" y="491"/>
      <point x="160" y="491" type="curve"/>
      <point x="163" y="548" type="line"/>
      <point x="108" y="548"/>
      <point x="66" y="550"/>
      <point x="21" y="550" type="curve"/>
    </contour>
    <contour>
      <point x="281" y="716" type="curve" smooth="yes"/>
      <point x="163" y="716"/>
      <point x="121" y="616"/>
      <point x="120" y="537" type="curve" smooth="yes"/>
      <point x="119" y="428"/>
      <point x="119" y="393"/>
      <point x="119" y="270" type="curve" smooth="yes"/>
      <point x="119" y="151"/>
      <point x="116" y="82"/>
      <point x="110" y="-3" type="curve"/>
      <point x="195" y="0" type="line"/>
      <point x="192" y="73"/>
      <point x="188" y="160"/>
      <point x="188" y="272" type="curve" smooth="yes"/>
      <point x="188" y="361"/>
      <point x="187" y="418"/>
      <point x="192" y="551" type="curve" smooth="yes"/>
      <point x="194" y="600"/>
      <point x="214" y="660"/>
      <point x="280" y="660" type="curve" smooth="yes"/>
      <point x="321" y="660"/>
      <point x="359" y="646"/>
      <point x="359" y="601" type="curve"/>
      <point x="425" y="599" type="line"/>
      <point x="429" y="656"/>
      <point x="392" y="716"/>
    </contour>
  </outline>
</glyph>
<glyph name="Schwa" format="2">
  <advance width="534"/>
  <unicode hex="018F"/>
  <outline>
    <contour>
      <point x="251" y="-10" type="curve" smooth="yes"/>
      <point x="362" y="-10"/>
      <point x="427" y="48"/>
      <point x="461" y="138" type="curve" smooth="yes"/>
      <point x="483" y="198"/>
      <point x="492" y="271"/>
      <point x="492" y="351" type="curve" smooth="yes"/>
      <point x="492" y="431"/>
      <point x="484" y="506"/>
      <point x="460" y="566" type="curve" smooth="yes"/>
      <point x="429" y="647"/>
      <point x="369" y="701"/>
      <point x="263" y="701" type="curve"/>
      <point x="135" y="701"/>
      <point x="62" y="642"/>
      <point x="62" y="507" type="curve" smooth="yes"/>
      <point x="62" y="500"/>
      <point x="63" y="491"/>
      <point x="63" y="483" type="curve"/>
      <point x="133" y="483" type="line"/>
      <point x="131" y="495"/>
      <point x="131" y="507"/>
      <point x="131" y="518" type="curve" smooth="yes"/>
      <point x="131" y="603"/>
      <point x="182" y="637"/>
      <point x="257" y="637" type="curve" smooth="yes"/>
      <point x="331" y="637"/>
      <point x="370" y="598"/>
      <point x="391" y="539" type="curve" smooth="yes"/>
      <point x="410" y="488"/>
      <point x="414" y="423"/>
      <point x="414" y="355" type="curve" smooth="yes"/>
      <point x="414" y="282"/>
      <point x="410" y="219"/>
      <point x="394" y="168" type="curve" smooth="yes"/>
      <point x="371" y="96"/>
      <point x="333" y="53"/>
      <point x="257" y="53" type="curve" smooth="yes"/>
      <point x="159" y="53"/>
      <point x="130" y="117"/>
      <point x="130" y="219" type="curve" smooth="yes"/>
      <point x="130" y="254"/>
      <point x="134" y="297"/>
      <point x="139" y="338" type="curve"/>
      <point x="66" y="339" type="line"/>
      <point x="59" y="298"/>
      <point x="55" y="258"/>
      <point x="55" y="220" type="curve" smooth="yes"/>
      <point x="55" y="90"/>
      <point x="103" y="-10"/>
    </contour>
    <contour>
      <point x="72" y="281" type="line"/>
      <point x="458" y="283" type="line"/>
      <point x="457" y="346" type="line"/>
      <point x="375" y="341"/>
      <point x="66" y="339"/>
      <point x="66" y="339" type="curve"/>
    </contour>
  </outline>
</glyph>
<glyph name="florin" format="2">
  <advance width="640"/>
  <unicode hex="0192"/>
  <outline>
    <contour>
      <point x="141" y="-144" type="curve" smooth="yes"/>
      <point x="245" y="-144"/>
      <point x="299" y="-85"/>
      <point x="311" y="16" type="curve" smooth="yes"/>
      <point x="318" y="77"/>
      <point x="321" y="130"/>
      <point x="334" y="273" type="curve" smooth="yes"/>
      <point x="347" y="417"/>
      <point x="351" y="461"/>
      <point x="358" y="530" type="curve" smooth="yes"/>
      <point x="367" y="619"/>
      <point x="387" y="651"/>
      <point x="460" y="651" type="curve" smooth="yes"/>
      <point x="493" y="651"/>
      <point x="535" y="643"/>
      <point x="588" y="629" type="curve"/>
      <point x="603" y="681" type="line"/>
      <point x="549" y="698"/>
      <point x="506" y="705"/>
      <point x="464" y="705" type="curve" smooth="yes"/>
      <point x="362" y="705"/>
      <point x="304" y="649"/>
      <point x="294" y="534" type="curve" smooth="yes"/>
      <point x="286" y="443"/>
      <point x="284" y="418"/>
      <point x="271" y="272" type="curve" smooth="yes"/>
      <point x="258" y="126"/>
      <point x="254" y="104"/>
      <point x="246" y="26" type="curve" smooth="yes"/>
      <point x="239" y="-42"/>
      <point x="219" y="-91"/>
      <point x="141" y="-91" type="curve" smooth="yes"/>
      <point x="111" y="-91"/>
      <point x="72" y="-84"/>
      <point x="23" y="-69" type="curve"/>
      <point x="8" y="-121" type="line"/>
      <point x="60" y="-136"/>
      <point x="104" y="-144"/>
    </contour>
    <contour>
      <point x="160" y="490" type="line"/>
      <point x="217" y="491"/>
      <point x="307" y="493"/>
      <point x="343" y="494" type="curve"/>
      <point x="358" y="494"/>
      <point x="539" y="494"/>
      <point x="535" y="494" type="curve"/>
      <point x="551" y="552" type="line"/>
      <point x="486" y="552"/>
      <point x="386" y="551"/>
      <point x="350" y="551" type="curve"/>
      <point x="315" y="551"/>
      <point x="230" y="552"/>
      <point x="175" y="552" type="curve"/>
    </contour>
  </outline>
</glyph>
